{
.appVersion = "1352";
classes = (
{

glyphs = (
{
glyphname = .notdef;
lastChange = "2021-07-09 03:44:18 +0000";
layers = (
{
layerId = UUID0;
paths = (
{
closed = 1;
nodes = (
"1023 0 LINE SMOOTH",
"1083 0 OFFCURVE",
"1119 35 OFFCURVE",
"1119 96 CURVE SMOOTH",
"1119 1274 LINE SMOOTH",
"1119 1335 OFFCURVE",
"1083 1370 OFFCURVE",
"1023 1370 CURVE SMOOTH",
"296 1370 LINE SMOOTH",
"236 1370 OFFCURVE",
"200 1335 OFFCURVE",
"200 1274 CURVE SMOOTH",
"200 96 LINE SMOOTH",
"200 35 OFFCURVE",
"236 0 OFFCURVE",
"296 0 CURVE SMOOTH"
);
},
{
closed = 1;
nodes = (
"676 608 LINE",
"726 664 LINE",
"947 1017 OFFCURVE",
"965 1050 OFFCURVE",
"1006 1147 CURVE",
"1093 1127 LINE",
"1011 1343 LINE",
"654 768 LINE",
"604 712 LINE",
"383 359 OFFCURVE",
"365 326 OFFCURVE",
"325 229 CURVE",
"237 249 LINE",
"309 17 LINE"
);
},
{
closed = 1;
nodes = (
"1101 247 LINE",
"1003 227 LINE",
"963 324 OFFCURVE",
"946 352 OFFCURVE",
"703 736 CURVE SMOOTH",
"317 1346 LINE",
"226 1127 LINE",
"323 1147 LINE",
"364 1050 OFFCURVE",
"381 1022 OFFCURVE",
"624 638 CURVE SMOOTH",
"1010 28 LINE"
);
},
{
closed = 1;
nodes = (
"325 304 OFFCURVE",
"329 368 OFFCURVE",
"329 680 CURVE SMOOTH",
"329 987 OFFCURVE",
"325 1069 OFFCURVE",
"304 1262 CURVE",
"388 1257 OFFCURVE",
"472 1250 OFFCURVE",
"662 1250 CURVE SMOOTH",
"852 1250 OFFCURVE",
"942 1257 OFFCURVE",
"1025 1262 CURVE",
"1004 1067 OFFCURVE",
"1000 986 OFFCURVE",
"1000 680 CURVE SMOOTH",
"1000 369 OFFCURVE",
"1004 306 OFFCURVE",
"1025 108 CURVE",
"941 117 OFFCURVE",
"852 120 OFFCURVE",
"662 120 CURVE SMOOTH",
"472 120 OFFCURVE",
"388 117 OFFCURVE",
"304 108 CURVE"
);
}
);
width = 1319;
},
{
guideLines = (
{
position = "{225, 680}";
}
);
layerId = UUID1;
paths = (
{
closed = 1;
nodes = (
"971 0 LINE SMOOTH",
"1031 0 OFFCURVE",
"1067 35 OFFCURVE",
"1067 96 CURVE SMOOTH",
"1067 1274 LINE SMOOTH",
"1067 1335 OFFCURVE",
"1031 1370 OFFCURVE",
"971 1370 CURVE SMOOTH",
"244 1370 LINE SMOOTH",
"184 1370 OFFCURVE",
"148 1335 OFFCURVE",
"148 1274 CURVE SMOOTH",
"148 96 LINE SMOOTH",
"148 35 OFFCURVE",
"184 0 OFFCURVE",
"244 0 CURVE SMOOTH"
);
},
{
closed = 1;
nodes = (
"624 608 LINE",
"674 664 LINE",
"895 1017 OFFCURVE",
"913 1050 OFFCURVE",
"954 1147 CURVE",
"1041 1127 LINE",
"959 1343 LINE",
"602 768 LINE",
"552 712 LINE",
"331 359 OFFCURVE",
"313 326 OFFCURVE",
"273 229 CURVE",
"185 249 LINE",
"257 17 LINE"
);
},
{
closed = 1;
nodes = (
"1049 247 LINE",
"951 227 LINE",
"911 324 OFFCURVE",
"894 352 OFFCURVE",
"651 736 CURVE SMOOTH",
"265 1346 LINE",
"174 1127 LINE",
"271 1147 LINE",
"312 1050 OFFCURVE",
"329 1022 OFFCURVE",
"572 638 CURVE SMOOTH",
"958 28 LINE"
);
},
{
closed = 1;
nodes = (
"273 304 OFFCURVE",
"277 368 OFFCURVE",
"277 680 CURVE SMOOTH",
"277 987 OFFCURVE",
"273 1069 OFFCURVE",
"252 1262 CURVE",
"336 1257 OFFCURVE",
"420 1250 OFFCURVE",
"610 1250 CURVE SMOOTH",
"800 1250 OFFCURVE",
"890 1257 OFFCURVE",
"973 1262 CURVE",
"952 1067 OFFCURVE",
"948 986 OFFCURVE",
"948 680 CURVE SMOOTH",
"948 369 OFFCURVE",
"952 306 OFFCURVE",
"973 108 CURVE",
"889 117 OFFCURVE",
"800 120 OFFCURVE",
"610 120 CURVE SMOOTH",
"420 120 OFFCURVE",
"336 117 OFFCURVE",
"252 108 CURVE"
);
}
);
width = 1215;
}
);
leftMetricsKey = H;
rightMetricsKey = H;
},
{
glyphname = A;
lastChange = "2021-07-09 03:44:18 +0000";
layers = (
{
anchors = (
{
name = bottom;
position = "{595, 0}";
},
{
name = ogonek;
position = "{1134, 8}";
},
{
name = top;
position = "{594, 1464}";
}
);
layerId = UUID0;
paths = (
{
closed = 1;
nodes = (
"54 8 LINE",
"58 2 LINE",
"80 -4 OFFCURVE",
"98 -8 OFFCURVE",
"128 -8 CURVE SMOOTH",
"150 -8 OFFCURVE",
"174 -6 OFFCURVE",
"192 -2 CURVE",
"514 978 LINE SMOOTH",
"530 1028 OFFCURVE",
"560 1132 OFFCURVE",
"580 1208 CURVE",
"590 1208 LINE",
"614 1120 OFFCURVE",
"652 996 OFFCURVE",
"692 878 CURVE SMOOTH",
"962 62 LINE SMOOTH",
"982 4 OFFCURVE",
"1002 -12 OFFCURVE",
"1048 -12 CURVE SMOOTH",
"1084 -12 OFFCURVE",
"1112 -6 OFFCURVE",
"1134 8 CURVE",
"674 1366 LINE",
"658 1370 OFFCURVE",
"618 1372 OFFCURVE",
"596 1372 CURVE SMOOTH",
"572 1372 OFFCURVE",
"534 1370 OFFCURVE",
"512 1366 CURVE"
);
},
{
closed = 1;
nodes = (
"720 358 LINE SMOOTH",
"732 358 OFFCURVE",
"862 360 OFFCURVE",
"876 360 CURVE SMOOTH",
"930 360 LINE",
"888 484 LINE",
"840 484 LINE SMOOTH",
"826 484 OFFCURVE",
"716 486 OFFCURVE",
"704 486 CURVE SMOOTH",
"470 486 LINE SMOOTH",
"458 486 OFFCURVE",
"352 484 OFFCURVE",
"338 484 CURVE SMOOTH",
"290 484 LINE",
"244 360 LINE",
"298 360 LINE SMOOTH",
"312 360 OFFCURVE",
"440 358 OFFCURVE",
"452 358 CURVE SMOOTH"
);
}
);
width = 1189;
},
{
anchors = (
{
name = bottom;
position = "{648, 0}";
},
{
name = ogonek;
position = "{1270, 22}";
},
{
name = top;
position = "{648, 1464}";
}
);
layerId = UUID1;
paths = (
{
closed = 1;
nodes = (
"14 26 LINE",
"26 8 LINE",
"64 -6 OFFCURVE",
"138 -14 OFFCURVE",
"188 -14 CURVE SMOOTH",
"240 -14 OFFCURVE",
"288 -12 OFFCURVE",
"330 -2 CURVE",
"524 668 LINE SMOOTH",
"556 782 OFFCURVE",
"604 948 OFFCURVE",
"624 1062 CURVE",
"636 1062 LINE",
"670 926 OFFCURVE",
"716 756 OFFCURVE",
"746 644 CURVE SMOOTH",
"878 164 LINE SMOOTH",
"918 20 OFFCURVE",
"972 -18 OFFCURVE",
"1078 -18 CURVE SMOOTH",
"1140 -18 OFFCURVE",
"1224 -4 OFFCURVE",
"1270 22 CURVE",
"842 1364 LINE",
"788 1374 OFFCURVE",
"702 1378 OFFCURVE",
"648 1378 CURVE SMOOTH",
"592 1378 OFFCURVE",
"508 1374 OFFCURVE",
"454 1366 CURVE"
);
},
{
closed = 1;
nodes = (
"772 280 LINE SMOOTH",
"802 280 OFFCURVE",
"840 282 OFFCURVE",
"870 282 CURVE SMOOTH",
"1048 282 LINE",
"964 542 LINE",
"802 542 LINE SMOOTH",
"772 542 OFFCURVE",
"734 544 OFFCURVE",
"704 544 CURVE SMOOTH",
"566 544 LINE SMOOTH",
"536 544 OFFCURVE",
"498 542 OFFCURVE",
"468 542 CURVE SMOOTH",
"312 542 LINE",
"210 282 LINE",
"388 282 LINE SMOOTH",
"418 282 OFFCURVE",
"456 280 OFFCURVE",
"486 280 CURVE SMOOTH"
);
}
);
width = 1284;
}
);
leftKerningGroup = A;
rightKerningGroup = A;
unicode = 0041;
},
{
glyphname = B;
lastChange = "2021-07-09 03:44:18 +0000";
layers = (
{
anchors = (
{
name = bottom;
position = "{590, 0}";
},
{
name = top;
position = "{556, 1464}";
}
);
layerId = UUID0;
paths = (
{
closed = 1;
nodes = (
"200 1354 LINE",
"200 12 LINE",
"212 0 LINE",
"350 -2 OFFCURVE",
"454 -6 OFFCURVE",
"620 -6 CURVE SMOOTH",
"970 -6 OFFCURVE",
"1082 190 OFFCURVE",
"1082 376 CURVE SMOOTH",
"1082 590 OFFCURVE",
"910 738 OFFCURVE",
"742 738 CURVE",
"742 710 LINE",
"910 728 OFFCURVE",
"1016 856 OFFCURVE",
"1016 1012 CURVE SMOOTH",
"1016 1220 OFFCURVE",
"904 1372 OFFCURVE",
"598 1372 CURVE SMOOTH",
"472 1372 OFFCURVE",
"350 1368 OFFCURVE",
"212 1366 CURVE"
);
},
{
closed = 1;
nodes = (
"344 1252 LINE",
"418 1250 OFFCURVE",
"534 1250 OFFCURVE",
"602 1250 CURVE SMOOTH",
"826 1250 OFFCURVE",
"864 1126 OFFCURVE",
"864 1016 CURVE SMOOTH",
"864 910 OFFCURVE",
"818 780 OFFCURVE",
"596 780 CURVE SMOOTH",
"284 780 LINE",
"284 656 LINE",
"614 656 LINE SMOOTH",
"864 656 OFFCURVE",
"930 494 OFFCURVE",
"930 386 CURVE SMOOTH",
"930 274 OFFCURVE",
"884 116 OFFCURVE",
"634 116 CURVE SMOOTH",
"538 116 OFFCURVE",
"440 114 OFFCURVE",
"344 114 CURVE"
);
}
);
width = 1198;
},
{
anchors = (
{
name = bottom;
position = "{598, 0}";
},
{
name = top;
position = "{582, 1464}";
}
);
layerId = UUID1;
paths = (
{
closed = 1;
nodes = (
"148 1356 LINE",
"148 10 LINE",
"162 -4 LINE",
"336 -8 OFFCURVE",
"508 -12 OFFCURVE",
"662 -12 CURVE SMOOTH",
"964 -12 OFFCURVE",
"1166 106 OFFCURVE",
"1166 394 CURVE SMOOTH",
"1166 578 OFFCURVE",
"1022 744 OFFCURVE",
"860 754 CURVE",
"860 722 LINE",
"990 738 OFFCURVE",
"1102 868 OFFCURVE",
"1102 1014 CURVE SMOOTH",
"1102 1270 OFFCURVE",
"906 1378 OFFCURVE",
"630 1378 CURVE SMOOTH",
"486 1378 OFFCURVE",
"324 1374 OFFCURVE",
"162 1370 CURVE"
);
},
{
closed = 1;
nodes = (
"478 1144 LINE",
"526 1142 OFFCURVE",
"580 1142 OFFCURVE",
"612 1142 CURVE SMOOTH",
"738 1142 OFFCURVE",
"776 1066 OFFCURVE",
"776 990 CURVE SMOOTH",
"776 914 OFFCURVE",
"740 834 OFFCURVE",
"612 834 CURVE SMOOTH",
"352 834 LINE",
"352 598 LINE",
"636 598 LINE SMOOTH",
"788 598 OFFCURVE",
"830 494 OFFCURVE",
"830 408 CURVE SMOOTH",
"830 326 OFFCURVE",
"792 222 OFFCURVE",
"636 222 CURVE SMOOTH",
"598 222 OFFCURVE",
"540 222 OFFCURVE",
"478 220 CURVE"
);
}
);
width = 1232;
}
);
unicode = 0042;
},
{
glyphname = C;
lastChange = "2021-07-09 03:44:18 +0000";
layers = (
{
anchors = (
{
name = bottom;
position = "{632, 0}";
},
{
name = top;
position = "{636, 1466}";
}
);
layerId = UUID0;
paths = (
{
closed = 1;
nodes = (
"984 932 OFFCURVE",
"998 930 OFFCURVE",
"1022 930 CURVE SMOOTH",
"1090 930 OFFCURVE",
"1102 976 OFFCURVE",
"1102 1016 CURVE SMOOTH",
"1102 1196 OFFCURVE",
"928 1390 OFFCURVE",
"640 1390 CURVE SMOOTH",
"360 1390 OFFCURVE",
"116 1170 OFFCURVE",
"116 676 CURVE SMOOTH",
"116 314 OFFCURVE",
"256 -24 OFFCURVE",
"616 -24 CURVE SMOOTH",
"810 -24 OFFCURVE",
"978 60 OFFCURVE",
"1084 168 CURVE",
"1072 202 OFFCURVE",
"1040 240 OFFCURVE",
"1004 262 CURVE",
"874 148 OFFCURVE",
"752 102 OFFCURVE",
"636 102 CURVE SMOOTH",
"408 102 OFFCURVE",
"268 316 OFFCURVE",
"268 676 CURVE SMOOTH",
"268 1064 OFFCURVE",
"404 1268 OFFCURVE",
"640 1268 CURVE SMOOTH",
"880 1268 OFFCURVE",
"956 1082 OFFCURVE",
"956 940 CURVE"
);
}
);
width = 1200;
},
{
anchors = (
{
name = bottom;
position = "{656, 0}";
},
{
name = top;
position = "{654, 1466}";
}
);
layerId = UUID1;
paths = (
{
closed = 1;
nodes = (
"898 802 OFFCURVE",
"936 794 OFFCURVE",
"984 794 CURVE SMOOTH",
"1102 794 OFFCURVE",
"1176 846 OFFCURVE",
"1176 978 CURVE SMOOTH",
"1176 1218 OFFCURVE",
"970 1398 OFFCURVE",
"658 1398 CURVE SMOOTH",
"336 1398 OFFCURVE",
"68 1182 OFFCURVE",
"68 678 CURVE SMOOTH",
"68 336 OFFCURVE",
"198 -30 OFFCURVE",
"624 -30 CURVE SMOOTH",
"848 -30 OFFCURVE",
"1060 70 OFFCURVE",
"1176 184 CURVE",
"1162 262 OFFCURVE",
"1088 356 OFFCURVE",
"1024 400 CURVE",
"934 335 OFFCURVE",
"826 262 OFFCURVE",
"686 262 CURVE SMOOTH",
"516 262 OFFCURVE",
"420 398 OFFCURVE",
"420 676 CURVE SMOOTH",
"420 972 OFFCURVE",
"480 1132 OFFCURVE",
"646 1132 CURVE SMOOTH",
"818 1132 OFFCURVE",
"862 980 OFFCURVE",
"858 812 CURVE"
);
}
);
width = 1220;
}
);
leftKerningGroup = C;
rightKerningGroup = C;
unicode = 0043;
},
{
glyphname = D;
lastChange = "2021-07-09 03:44:18 +0000";
layers = (
{
anchors = (
{
name = bottom;
position = "{602, 0}";
},
{
name = top;
position = "{602, 1464}";
}
);
guideLines = (
{
angle = 90;
position = "{602, 1410}";
}
);
layerId = UUID0;
paths = (
{
closed = 1;
nodes = (
"1152 914 OFFCURVE",
"1120 1122 OFFCURVE",
"948 1270 CURVE SMOOTH",
"864 1342 OFFCURVE",
"714 1372 OFFCURVE",
"612 1372 CURVE SMOOTH",
"456 1372 OFFCURVE",
"386 1372 OFFCURVE",
"212 1366 CURVE",
"200 1354 LINE",
"200 12 LINE",
"212 0 LINE",
"386 -4 OFFCURVE",
"456 -8 OFFCURVE",
"612 -8 CURVE SMOOTH",
"714 -8 OFFCURVE",
"864 22 OFFCURVE",
"948 94 CURVE SMOOTH",
"1122 242 OFFCURVE",
"1152 448 OFFCURVE",
"1152 682 CURVE SMOOTH"
);
},
{
closed = 1;
nodes = (
"1000 422 OFFCURVE",
"950 114 OFFCURVE",
"610 114 CURVE SMOOTH",
"516 114 OFFCURVE",
"448 116 OFFCURVE",
"344 116 CURVE",
"344 1252 LINE",
"448 1252 OFFCURVE",
"516 1250 OFFCURVE",
"610 1250 CURVE SMOOTH",
"950 1250 OFFCURVE",
"1000 944 OFFCURVE",
"1000 682 CURVE SMOOTH"
);
}
);
width = 1272;
},
{
anchors = (
{
name = bottom;
position = "{634, 0}";
},
{
name = top;
position = "{644, 1464}";
}
);
guideLines = (
{
angle = 90;
position = "{644, -1}";
}
);
layerId = UUID1;
paths = (
{
closed = 1;
nodes = (
"1270 916 OFFCURVE",
"1234 1130 OFFCURVE",
"1044 1278 CURVE SMOOTH",
"952 1350 OFFCURVE",
"786 1378 OFFCURVE",
"674 1378 CURVE SMOOTH",
"500 1378 OFFCURVE",
"334 1376 OFFCURVE",
"162 1370 CURVE",
"148 1356 LINE",
"148 10 LINE",
"162 -4 LINE",
"336 -8 OFFCURVE",
"500 -12 OFFCURVE",
"674 -12 CURVE SMOOTH",
"786 -12 OFFCURVE",
"951 16 OFFCURVE",
"1044 88 CURVE SMOOTH",
"1236 236 OFFCURVE",
"1270 450 OFFCURVE",
"1270 684 CURVE SMOOTH"
);
},
{
closed = 1;
nodes = (
"926 486 OFFCURVE",
"894 248 OFFCURVE",
"674 248 CURVE SMOOTH",
"608 248 OFFCURVE",
"550 248 OFFCURVE",
"482 246 CURVE",
"482 1120 LINE",
"550 1118 OFFCURVE",
"608 1118 OFFCURVE",
"674 1118 CURVE SMOOTH",
"894 1118 OFFCURVE",
"926 882 OFFCURVE",
"926 684 CURVE SMOOTH"
);
}
);
width = 1340;
}
);
rightKerningGroup = D;
unicode = 0044;
},
{
glyphname = E;
lastChange = "2021-07-09 03:44:18 +0000";
layers = (
{
anchors = (
{
name = bottom;
position = "{614, 0}";
},
{
name = ogonek;
position = "{916, 0}";
},
{
name = top;
position = "{598, 1464}";
}
);
layerId = UUID0;
paths = (
{
closed = 1;
nodes = (
"200 96 LINE SMOOTH",
"200 36 OFFCURVE",
"232 0 OFFCURVE",
"282 0 CURVE SMOOTH",
"338 0 LINE",
"338 120 LINE SMOOTH",
"338 148 OFFCURVE",
"340 168 OFFCURVE",
"340 194 CURVE SMOOTH",
"340 1120 LINE SMOOTH",
"340 1174 OFFCURVE",
"338 1192 OFFCURVE",
"338 1248 CURVE SMOOTH",
"338 1366 LINE",
"212 1366 LINE",
"200 1354 LINE"
);
},
{
closed = 1;
nodes = (
"458 754 LINE SMOOTH",
"414 754 OFFCURVE",
"348 752 OFFCURVE",
"290 752 CURVE",
"290 632 LINE",
"348 632 OFFCURVE",
"414 630 OFFCURVE",
"458 630 CURVE SMOOTH",
"878 630 LINE",
"882 652 OFFCURVE",
"884 676 OFFCURVE",
"884 692 CURVE SMOOTH",
"884 708 OFFCURVE",
"882 732 OFFCURVE",
"878 754 CURVE"
);
},
{
closed = 1;
nodes = (
"290 1366 LINE",
"290 1244 LINE",
"348 1242 OFFCURVE",
"414 1242 OFFCURVE",
"458 1242 CURVE SMOOTH",
"974 1242 LINE",
"982 1264 OFFCURVE",
"984 1292 OFFCURVE",
"984 1308 CURVE SMOOTH",
"984 1324 OFFCURVE",
"984 1344 OFFCURVE",
"980 1366 CURVE"
);
},
{
closed = 1;
nodes = (
"460 126 LINE SMOOTH",
"388 126 OFFCURVE",
"340 122 OFFCURVE",
"290 118 CURVE",
"290 0 LINE",
"916 0 LINE SMOOTH",
"984 0 OFFCURVE",
"1012 26 OFFCURVE",
"1012 126 CURVE"
);
}
);
width = 1124;
},
{
anchors = (
{
name = bottom;
position = "{622, 0}";
},
{
name = ogonek;
position = "{930, 0}";
},
{
name = top;
position = "{598, 1464}";
}
);
layerId = UUID1;
paths = (
{
closed = 1;
nodes = (
"146 188 LINE SMOOTH",
"146 68 OFFCURVE",
"218 -6 OFFCURVE",
"338 -6 CURVE SMOOTH",
"476 -6 LINE",
"476 272 LINE SMOOTH",
"476 328 OFFCURVE",
"478 368 OFFCURVE",
"478 422 CURVE SMOOTH",
"478 940 LINE SMOOTH",
"478 994 OFFCURVE",
"476 1034 OFFCURVE",
"476 1090 CURVE SMOOTH",
"476 1366 LINE",
"160 1366 LINE",
"146 1352 LINE"
);
},
{
closed = 1;
nodes = (
"614 822 LINE SMOOTH",
"564 822 OFFCURVE",
"426 820 OFFCURVE",
"362 818 CURVE",
"362 554 LINE",
"426 552 OFFCURVE",
"564 550 OFFCURVE",
"614 550 CURVE SMOOTH",
"910 550 LINE",
"924 592 OFFCURVE",
"930 648 OFFCURVE",
"930 686 CURVE SMOOTH",
"930 722 OFFCURVE",
"924 782 OFFCURVE",
"910 822 CURVE"
);
},
{
closed = 1;
nodes = (
"362 1366 LINE",
"362 1090 LINE",
"426 1088 OFFCURVE",
"564 1086 OFFCURVE",
"614 1086 CURVE SMOOTH",
"1014 1086 LINE",
"1032 1136 OFFCURVE",
"1042 1196 OFFCURVE",
"1042 1234 CURVE SMOOTH",
"1042 1272 OFFCURVE",
"1040 1316 OFFCURVE",
"1030 1366 CURVE"
);
},
{
closed = 1;
nodes = (
"626 274 LINE SMOOTH",
"526 274 OFFCURVE",
"452 268 OFFCURVE",
"362 264 CURVE",
"362 -6 LINE",
"862 -6 LINE SMOOTH",
"1040 -6 OFFCURVE",
"1082 91 OFFCURVE",
"1082 274 CURVE"
);
}
);
width = 1148;
}
);
rightKerningGroup = E;
unicode = 0045;
},
{
glyphname = F;
lastChange = "2021-07-09 03:44:18 +0000";
layers = (
{
anchors = (
{
name = top;
position = "{598, 1464}";
}
);
layerId = UUID0;
paths = (
{
closed = 1;
nodes = (
"344 958 LINE SMOOTH",
"344 1056 OFFCURVE",
"342 1156 OFFCURVE",
"342 1254 CURVE SMOOTH",
"342 1366 LINE",
"212 1366 LINE",
"200 1354 LINE",
"200 0 LINE",
"218 -4 OFFCURVE",
"244 -6 OFFCURVE",
"270 -6 CURVE SMOOTH",
"298 -6 OFFCURVE",
"324 -4 OFFCURVE",
"344 0 CURVE"
);
},
{
closed = 1;
nodes = (
"290 1366 LINE",
"290 1248 LINE",
"358 1242 OFFCURVE",
"448 1240 OFFCURVE",
"564 1240 CURVE SMOOTH",
"886 1240 LINE SMOOTH",
"946 1240 OFFCURVE",
"974 1260 OFFCURVE",
"974 1306 CURVE SMOOTH",
"974 1326 OFFCURVE",
"970 1348 OFFCURVE",
"964 1366 CURVE"
);
},
{
closed = 1;
nodes = (
"458 754 LINE SMOOTH",
"414 754 OFFCURVE",
"348 752 OFFCURVE",
"290 752 CURVE",
"290 632 LINE",
"348 632 OFFCURVE",
"414 630 OFFCURVE",
"458 630 CURVE SMOOTH",
"868 630 LINE",
"872 652 OFFCURVE",
"874 676 OFFCURVE",
"874 692 CURVE SMOOTH",
"874 708 OFFCURVE",
"872 732 OFFCURVE",
"868 754 CURVE"
);
}
);
width = 1026;
},
{
anchors = (
{
name = top;
position = "{590, 1464}";
}
);
layerId = UUID1;
paths = (
{
closed = 1;
nodes = (
"484 936 LINE SMOOTH",
"484 1042 OFFCURVE",
"482 1160 OFFCURVE",
"482 1272 CURVE SMOOTH",
"482 1366 LINE",
"162 1366 LINE",
"148 1354 LINE",
"148 0 LINE",
"206 -10 OFFCURVE",
"274 -12 OFFCURVE",
"320 -12 CURVE SMOOTH",
"366 -12 OFFCURVE",
"426 -10 OFFCURVE",
"484 0 CURVE"
);
},
{
closed = 1;
nodes = (
"344 1366 LINE",
"344 1084 LINE",
"434 1084 OFFCURVE",
"520 1082 OFFCURVE",
"618 1082 CURVE SMOOTH",
"862 1082 LINE SMOOTH",
"982 1082 OFFCURVE",
"1040 1128 OFFCURVE",
"1040 1238 CURVE SMOOTH",
"1040 1276 OFFCURVE",
"1036 1330 OFFCURVE",
"1026 1366 CURVE"
);
},
{
closed = 1;
nodes = (
"516 816 LINE SMOOTH",
"458 816 OFFCURVE",
"394 814 OFFCURVE",
"356 812 CURVE",
"356 546 LINE",
"394 544 OFFCURVE",
"458 542 OFFCURVE",
"516 542 CURVE SMOOTH",
"902 542 LINE",
"914 582 OFFCURVE",
"920 642 OFFCURVE",
"920 680 CURVE SMOOTH",
"920 716 OFFCURVE",
"914 778 OFFCURVE",
"902 816 CURVE"
);
}
);
width = 1074;
}
);
unicode = 0046;
},
{
glyphname = G;
lastChange = "2021-07-09 03:44:18 +0000";
layers = (
{
anchors = (
{
name = bottom;
position = "{670, 0}";
},
{
name = top;
position = "{682, 1464}";
}
);
layerId = UUID0;
paths = (
{
closed = 1;
nodes = (
"1020 1333 OFFCURVE",
"841 1390 OFFCURVE",
"687 1390 CURVE SMOOTH",
"402 1390 OFFCURVE",
"116 1196 OFFCURVE",
"116 673 CURVE SMOOTH",
"116 336 OFFCURVE",
"235 -24 OFFCURVE",
"677 -24 CURVE SMOOTH",
"820 -24 OFFCURVE",
"1008 14 OFFCURVE",
"1130 62 CURVE",
"1058 182 LINE",
"996 150 OFFCURVE",
"851 104 OFFCURVE",
"703 104 CURVE SMOOTH",
"408 104 OFFCURVE",
"268 288 OFFCURVE",
"268 670 CURVE SMOOTH",
"268 1114 OFFCURVE",
"457 1260 OFFCURVE",
"680 1260 CURVE SMOOTH",
"818 1260 OFFCURVE",
"957 1204 OFFCURVE",
"1050 1128 CURVE",
"1080 1148 OFFCURVE",
"1116 1190 OFFCURVE",
"1128 1240 CURVE"
);
},
{
closed = 1;
nodes = (
"988 60 LINE",
"1130 62 LINE",
"1130 582 LINE",
"1002 628 LINE",
"992 584 OFFCURVE",
"988 524 OFFCURVE",
"988 432 CURVE SMOOTH"
);
},
{
closed = 1;
nodes = (
"712 682 LINE",
"706 664 OFFCURVE",
"700 639 OFFCURVE",
"700 617 CURVE SMOOTH",
"700 552 OFFCURVE",
"755 552 OFFCURVE",
"775 552 CURVE SMOOTH",
"1130 552 LINE",
"1130 582 LINE SMOOTH",
"1130 652 OFFCURVE",
"1100 682 OFFCURVE",
"1016 682 CURVE SMOOTH"
);
}
);
width = 1272;
},
{
anchors = (
{
name = bottom;
position = "{690, 0}";
},
{
name = top;
position = "{702, 1464}";
}
);
layerId = UUID1;
paths = (
{
closed = 1;
nodes = (
"1070 1338 OFFCURVE",
"898 1396 OFFCURVE",
"712 1396 CURVE SMOOTH",
"384 1396 OFFCURVE",
"68 1156 OFFCURVE",
"68 674 CURVE SMOOTH",
"68 234 OFFCURVE",
"270 -30 OFFCURVE",
"678 -30 CURVE SMOOTH",
"904 -30 OFFCURVE",
"1096 14 OFFCURVE",
"1212 52 CURVE",
"1036 280 LINE",
"968 262 OFFCURVE",
"864 232 OFFCURVE",
"736 232 CURVE SMOOTH",
"528 232 OFFCURVE",
"410 366 OFFCURVE",
"410 672 CURVE SMOOTH",
"410 982 OFFCURVE",
"533 1120 OFFCURVE",
"733 1120 CURVE SMOOTH",
"843 1120 OFFCURVE",
"962 1078 OFFCURVE",
"1060 1014 CURVE",
"1128 1058 OFFCURVE",
"1202 1160 OFFCURVE",
"1208 1254 CURVE"
);
},
{
closed = 1;
nodes = (
"898 48 LINE",
"1212 52 LINE",
"1212 578 LINE",
"928 672 LINE",
"902 578 OFFCURVE",
"898 460 OFFCURVE",
"898 366 CURVE SMOOTH"
);
},
{
closed = 1;
nodes = (
"678 784 LINE",
"664 744 OFFCURVE",
"654 690 OFFCURVE",
"654 646 CURVE SMOOTH",
"654 542 OFFCURVE",
"704 506 OFFCURVE",
"814 506 CURVE SMOOTH",
"1212 506 LINE",
"1212 578 LINE SMOOTH",
"1212 698 OFFCURVE",
"1158 784 OFFCURVE",
"992 784 CURVE SMOOTH"
);
}
);
width = 1312;
}
);
leftKerningGroup = C;
rightKerningGroup = G;
unicode = 0047;
},
{
glyphname = H;
lastChange = "2021-07-09 03:44:18 +0000";
layers = (
{
anchors = (
{
name = bottom;
position = "{667, 0}";
},
{
name = top;
position = "{666, 1464}";
}
);
layerId = UUID0;
paths = (
{
closed = 1;
nodes = (
"870 642 LINE",
"882 642 OFFCURVE",
"978 644 OFFCURVE",
"992 644 CURVE SMOOTH",
"1020 644 OFFCURVE",
"1048 642 OFFCURVE",
"1076 642 CURVE",
"1076 770 LINE",
"1048 770 OFFCURVE",
"1020 768 OFFCURVE",
"992 768 CURVE SMOOTH",
"978 768 OFFCURVE",
"882 770 OFFCURVE",
"870 770 CURVE SMOOTH",
"464 770 LINE SMOOTH",
"452 770 OFFCURVE",
"356 768 OFFCURVE",
"342 768 CURVE SMOOTH",
"314 768 OFFCURVE",
"286 770 OFFCURVE",
"258 770 CURVE",
"258 642 LINE",
"286 642 OFFCURVE",
"314 644 OFFCURVE",
"342 644 CURVE SMOOTH",
"356 644 OFFCURVE",
"452 642 OFFCURVE",
"464 642 CURVE SMOOTH"
);
},
{
closed = 1;
nodes = (
"344 496 LINE SMOOTH",
"344 552 OFFCURVE",
"342 590 OFFCURVE",
"342 644 CURVE SMOOTH",
"342 768 LINE SMOOTH",
"342 822 OFFCURVE",
"344 860 OFFCURVE",
"344 916 CURVE SMOOTH",
"344 1366 LINE",
"324 1370 OFFCURVE",
"298 1372 OFFCURVE",
"270 1372 CURVE SMOOTH",
"244 1372 OFFCURVE",
"218 1370 OFFCURVE",
"200 1366 CURVE",
"200 0 LINE",
"218 -4 OFFCURVE",
"244 -6 OFFCURVE",
"270 -6 CURVE SMOOTH",
"298 -6 OFFCURVE",
"324 -4 OFFCURVE",
"344 0 CURVE"
);
},
{
closed = 1;
nodes = (
"990 0 LINE",
"1008 -4 OFFCURVE",
"1034 -6 OFFCURVE",
"1060 -6 CURVE SMOOTH",
"1088 -6 OFFCURVE",
"1114 -4 OFFCURVE",
"1134 0 CURVE",
"1134 1366 LINE",
"1114 1370 OFFCURVE",
"1088 1372 OFFCURVE",
"1060 1372 CURVE SMOOTH",
"1034 1372 OFFCURVE",
"1008 1370 OFFCURVE",
"990 1366 CURVE",
"990 916 LINE SMOOTH",
"990 860 OFFCURVE",
"992 822 OFFCURVE",
"992 768 CURVE SMOOTH",
"992 644 LINE SMOOTH",
"992 590 OFFCURVE",
"990 552 OFFCURVE",
"990 496 CURVE SMOOTH"
);
}
);
width = 1334;
},
{
anchors = (
{
name = bottom;
position = "{688, 0}";
},
{
name = top;
position = "{688, 1466}";
}
);
layerId = UUID1;
paths = (
{
closed = 1;
nodes = (
"796 564 LINE",
"826 564 OFFCURVE",
"864 566 OFFCURVE",
"894 566 CURVE SMOOTH",
"960 566 OFFCURVE",
"1030 564 OFFCURVE",
"1096 564 CURVE",
"1096 844 LINE",
"1030 844 OFFCURVE",
"960 842 OFFCURVE",
"894 842 CURVE SMOOTH",
"864 842 OFFCURVE",
"826 844 OFFCURVE",
"796 844 CURVE SMOOTH",
"580 844 LINE SMOOTH",
"550 844 OFFCURVE",
"512 842 OFFCURVE",
"482 842 CURVE SMOOTH",
"416 842 OFFCURVE",
"346 844 OFFCURVE",
"280 844 CURVE",
"280 564 LINE",
"346 564 OFFCURVE",
"416 566 OFFCURVE",
"482 566 CURVE SMOOTH",
"512 566 OFFCURVE",
"550 564 OFFCURVE",
"580 564 CURVE SMOOTH"
);
},
{
closed = 1;
nodes = (
"484 418 LINE SMOOTH",
"484 474 OFFCURVE",
"482 512 OFFCURVE",
"482 566 CURVE SMOOTH",
"482 842 LINE SMOOTH",
"482 896 OFFCURVE",
"484 934 OFFCURVE",
"484 990 CURVE SMOOTH",
"484 1366 LINE",
"428 1376 OFFCURVE",
"360 1378 OFFCURVE",
"316 1378 CURVE SMOOTH",
"276 1378 OFFCURVE",
"202 1376 OFFCURVE",
"148 1366 CURVE",
"148 0 LINE",
"202 -10 OFFCURVE",
"276 -12 OFFCURVE",
"316 -12 CURVE SMOOTH",
"360 -12 OFFCURVE",
"428 -10 OFFCURVE",
"484 0 CURVE"
);
},
{
closed = 1;
nodes = (
"892 0 LINE",
"950 -10 OFFCURVE",
"1018 -12 OFFCURVE",
"1064 -12 CURVE SMOOTH",
"1110 -12 OFFCURVE",
"1170 -10 OFFCURVE",
"1228 0 CURVE",
"1228 1366 LINE",
"1174 1376 OFFCURVE",
"1100 1378 OFFCURVE",
"1060 1378 CURVE SMOOTH",
"1016 1378 OFFCURVE",
"948 1376 OFFCURVE",
"892 1366 CURVE",
"892 990 LINE SMOOTH",
"892 934 OFFCURVE",
"894 896 OFFCURVE",
"894 842 CURVE SMOOTH",
"894 566 LINE SMOOTH",
"894 512 OFFCURVE",
"892 474 OFFCURVE",
"892 418 CURVE SMOOTH"
);
}
);
width = 1376;
}
);
unicode = 0048;
},
{
glyphname = I;
lastChange = "2021-07-09 03:44:18 +0000";
layers = (
{
anchors = (
{
name = bottom;
position = "{278, 0}";
},
{
name = ogonek;
position = "{352, 0}";
},
{
name = top;
position = "{280, 1464}";
}
);
layerId = UUID0;
paths = (
{
closed = 1;
nodes = (
"208 0 LINE",
"226 -4 OFFCURVE",
"252 -6 OFFCURVE",
"278 -6 CURVE SMOOTH",
"306 -6 OFFCURVE",
"332 -4 OFFCURVE",
"352 0 CURVE",
"352 1366 LINE",
"332 1370 OFFCURVE",
"306 1372 OFFCURVE",
"278 1372 CURVE SMOOTH",
"252 1372 OFFCURVE",
"226 1370 OFFCURVE",
"208 1366 CURVE"
);
}
);
width = 560;
},
{
anchors = (
{
name = bottom;
position = "{320, 0}";
},
{
name = ogonek;
position = "{488, 0}";
},
{
name = top;
position = "{320, 1466}";
}
);
layerId = UUID1;
paths = (
{
closed = 1;
nodes = (
"152 0 LINE",
"206 -10 OFFCURVE",
"280 -12 OFFCURVE",
"320 -12 CURVE SMOOTH",
"364 -12 OFFCURVE",
"432 -10 OFFCURVE",
"488 0 CURVE",
"488 1366 LINE",
"432 1376 OFFCURVE",
"364 1378 OFFCURVE",
"320 1378 CURVE SMOOTH",
"280 1378 OFFCURVE",
"206 1376 OFFCURVE",
"152 1366 CURVE"
);
}
);
width = 640;
}
);
unicode = 0049;
},
{
glyphname = J;
lastChange = "2021-07-09 03:44:18 +0000";
layers = (
{
anchors = (
{
name = top;
position = "{626, 1464}";
}
);
layerId = UUID0;
paths = (
{
closed = 1;
nodes = (
"50 142 OFFCURVE",
"30 106 OFFCURVE",
"20 62 CURVE",
"102 12 OFFCURVE",
"220 -20 OFFCURVE",
"322 -20 CURVE SMOOTH",
"650 -20 OFFCURVE",
"696 202 OFFCURVE",
"696 480 CURVE SMOOTH",
"696 1366 LINE",
"678 1370 OFFCURVE",
"652 1372 OFFCURVE",
"626 1372 CURVE SMOOTH",
"598 1372 OFFCURVE",
"572 1370 OFFCURVE",
"552 1366 CURVE",
"552 450 LINE SMOOTH",
"552 200 OFFCURVE",
"492 104 OFFCURVE",
"316 104 CURVE SMOOTH",
"236 104 OFFCURVE",
"142 134 OFFCURVE",
"80 172 CURVE"
);
}
);
width = 868;
},
{
anchors = (
{
name = top;
position = "{652, 1464}";
}
);
layerId = UUID1;
paths = (
{
closed = 1;
nodes = (
"74 248 OFFCURVE",
"32 152 OFFCURVE",
"20 68 CURVE",
"116 8 OFFCURVE",
"242 -20 OFFCURVE",
"348 -20 CURVE SMOOTH",
"728 -20 OFFCURVE",
"820 210 OFFCURVE",
"820 528 CURVE SMOOTH",
"820 1366 LINE",
"764 1376 OFFCURVE",
"696 1378 OFFCURVE",
"652 1378 CURVE SMOOTH",
"612 1378 OFFCURVE",
"538 1376 OFFCURVE",
"484 1366 CURVE",
"484 498 LINE SMOOTH",
"484 348 OFFCURVE",
"452 256 OFFCURVE",
"310 256 CURVE SMOOTH",
"248 256 OFFCURVE",
"190 282 OFFCURVE",
"134 316 CURVE"
);
}
);
width = 948;
}
);
leftKerningGroup = J;
rightKerningGroup = U;
unicode = 004A;
},
{
glyphname = K;
lastChange = "2021-07-09 03:44:18 +0000";
layers = (
{
anchors = (
{
name = bottom;
position = "{606, 0}";
},
{
name = top;
position = "{600, 1464}";
}
);
layerId = UUID0;
paths = (
{
closed = 1;
nodes = (
"200 0 LINE",
"218 -4 OFFCURVE",
"244 -6 OFFCURVE",
"270 -6 CURVE SMOOTH",
"298 -6 OFFCURVE",
"324 -4 OFFCURVE",
"344 0 CURVE",
"344 1366 LINE",
"324 1370 OFFCURVE",
"298 1372 OFFCURVE",
"270 1372 CURVE SMOOTH",
"244 1372 OFFCURVE",
"218 1370 OFFCURVE",
"200 1366 CURVE"
);
},
{
closed = 1;
nodes = (
"1088 62 OFFCURVE",
"1062 94 OFFCURVE",
"1036 158 CURVE SMOOTH",
"910 474 LINE SMOOTH",
"837 658 OFFCURVE",
"768 738 OFFCURVE",
"576 738 CURVE SMOOTH",
"268 738 LINE",
"268 634 LINE",
"402 640 OFFCURVE",
"480 640 OFFCURVE",
"510 640 CURVE SMOOTH",
"644 640 OFFCURVE",
"714 584 OFFCURVE",
"780 416 CURVE SMOOTH",
"910 86 LINE SMOOTH",
"934 24 OFFCURVE",
"952 -10 OFFCURVE",
"1016 -10 CURVE SMOOTH",
"1048 -10 OFFCURVE",
"1096 8 OFFCURVE",
"1116 40 CURVE"
);
},
{
closed = 1;
nodes = (
"562 816 LINE SMOOTH",
"542 784 OFFCURVE",
"528 768 OFFCURVE",
"494 768 CURVE SMOOTH",
"433 768 OFFCURVE",
"333 766 OFFCURVE",
"268 762 CURVE",
"268 676 LINE",
"500 676 LINE SMOOTH",
"594 676 OFFCURVE",
"664 726 OFFCURVE",
"712 802 CURVE SMOOTH",
"1054 1350 LINE",
"1042 1366 LINE",
"1014 1368 OFFCURVE",
"992 1370 OFFCURVE",
"966 1370 CURVE SMOOTH",
"908 1370 OFFCURVE",
"890 1344 OFFCURVE",
"862 1298 CURVE SMOOTH"
);
}
);
width = 1162;
},
{
anchors = (
{
name = bottom;
position = "{662, 0}";
},
{
name = top;
position = "{654, 1464}";
}
);
layerId = UUID1;
paths = (
{
closed = 1;
nodes = (
"148 0 LINE",
"202 -10 OFFCURVE",
"276 -12 OFFCURVE",
"316 -12 CURVE SMOOTH",
"360 -12 OFFCURVE",
"428 -10 OFFCURVE",
"484 0 CURVE",
"484 1366 LINE",
"428 1376 OFFCURVE",
"360 1378 OFFCURVE",
"316 1378 CURVE SMOOTH",
"276 1378 OFFCURVE",
"202 1376 OFFCURVE",
"148 1366 CURVE"
);
},
{
closed = 1;
nodes = (
"1190 126 OFFCURVE",
"1172 155 OFFCURVE",
"1132 276 CURVE SMOOTH",
"1054 518 LINE SMOOTH",
"1013 646 OFFCURVE",
"948 754 OFFCURVE",
"720 754 CURVE SMOOTH",
"314 754 LINE",
"314 550 LINE",
"412 560 OFFCURVE",
"502 568 OFFCURVE",
"564 568 CURVE SMOOTH",
"656 568 OFFCURVE",
"706 520 OFFCURVE",
"744 398 CURVE SMOOTH",
"814 172 LINE SMOOTH",
"854 44 OFFCURVE",
"896 -18 OFFCURVE",
"1016 -18 CURVE SMOOTH",
"1106 -18 OFFCURVE",
"1194 18 OFFCURVE",
"1238 82 CURVE"
);
},
{
closed = 1;
nodes = (
"618 916 LINE SMOOTH",
"590 860 OFFCURVE",
"578 846 OFFCURVE",
"526 846 CURVE SMOOTH",
"455 845 OFFCURVE",
"385 843 OFFCURVE",
"314 842 CURVE",
"314 654 LINE",
"558 654 LINE SMOOTH",
"764 654 OFFCURVE",
"876 744 OFFCURVE",
"954 894 CURVE SMOOTH",
"1188 1346 LINE",
"1170 1368 LINE",
"1104 1374 OFFCURVE",
"1022 1378 OFFCURVE",
"968 1378 CURVE SMOOTH",
"872 1378 OFFCURVE",
"838 1342 OFFCURVE",
"798 1264 CURVE SMOOTH"
);
}
);
width = 1248;
}
);
rightKerningGroup = K;
unicode = 004B;
},
{
glyphname = L;
lastChange = "2021-07-09 03:44:18 +0000";
layers = (
{
anchors = (
{
name = bottom;
position = "{578, 0}";
},
{
name = periodcentered;
position = "{1009, 786}";
},
{
name = top;
position = "{270, 1464}";
},
{
name = topright;
position = "{458, 870}";
}
);
layerId = UUID0;
paths = (
{
closed = 1;
nodes = (
"344 1278 LINE SMOOTH",
"344 1340 OFFCURVE",
"334 1372 OFFCURVE",
"270 1372 CURVE SMOOTH",
"212 1372 LINE",
"200 1360 LINE",
"200 98 LINE SMOOTH",
"200 32 OFFCURVE",
"238 0 OFFCURVE",
"284 0 CURVE SMOOTH",
"344 0 LINE"
);
},
{
closed = 1;
nodes = (
"516 128 LINE SMOOTH",
"426 128 OFFCURVE",
"304 122 OFFCURVE",
"214 108 CURVE",
"284 0 LINE",
"850 0 LINE SMOOTH",
"917 0 OFFCURVE",
"946 23 OFFCURVE",
"946 128 CURVE"
);
}
);
width = 1010;
},
{
anchors = (
{
name = bottom;
position = "{570, 0}";
},
{
name = periodcentered;
position = "{1048, 786}";
},
{
name = top;
position = "{312, 1454}";
},
{
name = topright;
position = "{517, 898}";
}
);
layerId = UUID1;
paths = (
{
closed = 1;
nodes = (
"482 1168 LINE SMOOTH",
"482 1318 OFFCURVE",
"410 1380 OFFCURVE",
"282 1380 CURVE SMOOTH",
"160 1380 LINE",
"146 1366 LINE",
"146 188 LINE SMOOTH",
"146 68 OFFCURVE",
"220 -6 OFFCURVE",
"340 -6 CURVE SMOOTH",
"482 -6 LINE"
);
},
{
closed = 1;
nodes = (
"670 282 LINE SMOOTH",
"524 282 OFFCURVE",
"342 268 OFFCURVE",
"160 236 CURVE",
"340 -6 LINE",
"782 -6 LINE SMOOTH",
"948 -6 OFFCURVE",
"1010 71 OFFCURVE",
"1010 282 CURVE"
);
}
);
width = 1048;
}
);
rightKerningGroup = L;
unicode = 004C;
},
{
glyphname = M;
lastChange = "2021-07-09 03:44:18 +0000";
layers = (
{
anchors = (
{
name = bottom;
position = "{791, 0}";
},
{
name = top;
position = "{790, 1464}";
}
);
layerId = UUID0;
paths = (
{
closed = 1;
nodes = (
"172 2 LINE",
"190 -4 OFFCURVE",
"218 -8 OFFCURVE",
"242 -8 CURVE SMOOTH",
"266 -8 OFFCURVE",
"290 -6 OFFCURVE",
"312 -2 CURVE",
"370 842 LINE SMOOTH",
"376 930 OFFCURVE",
"380 1102 OFFCURVE",
"386 1214 CURVE",
"396 1214 LINE",
"720 214 LINE",
"740 210 OFFCURVE",
"764 208 OFFCURVE",
"790 208 CURVE SMOOTH",
"814 208 OFFCURVE",
"840 210 OFFCURVE",
"862 214 CURVE",
"1186 1214 LINE",
"1196 1214 LINE",
"1200 1102 OFFCURVE",
"1206 930 OFFCURVE",
"1212 842 CURVE SMOOTH",
"1270 -2 LINE",
"1292 -6 OFFCURVE",
"1312 -8 OFFCURVE",
"1336 -8 CURVE SMOOTH",
"1360 -8 OFFCURVE",
"1390 -4 OFFCURVE",
"1410 2 CURVE",
"1304 1366 LINE",
"1264 1372 OFFCURVE",
"1224 1372 OFFCURVE",
"1206 1372 CURVE SMOOTH",
"1186 1372 OFFCURVE",
"1154 1372 OFFCURVE",
"1114 1366 CURVE",
"878 652 LINE SMOOTH",
"854 582 OFFCURVE",
"800 390 OFFCURVE",
"796 364 CURVE",
"786 364 LINE",
"782 390 OFFCURVE",
"728 582 OFFCURVE",
"704 652 CURVE SMOOTH",
"468 1366 LINE",
"434 1372 OFFCURVE",
"396 1372 OFFCURVE",
"376 1372 CURVE SMOOTH",
"358 1372 OFFCURVE",
"314 1372 OFFCURVE",
"278 1366 CURVE"
);
}
);
width = 1582;
},
{
anchors = (
{
name = bottom;
position = "{837, 0}";
},
{
name = top;
position = "{838, 1464}";
}
);
layerId = UUID1;
paths = (
{
closed = 1;
nodes = (
"104 4 LINE",
"152 -8 OFFCURVE",
"220 -12 OFFCURVE",
"274 -12 CURVE SMOOTH",
"324 -12 OFFCURVE",
"372 -10 OFFCURVE",
"420 -2 CURVE",
"448 530 LINE SMOOTH",
"456 676 OFFCURVE",
"464 866 OFFCURVE",
"464 998 CURVE",
"478 998 LINE",
"664 200 LINE",
"714 192 OFFCURVE",
"794 188 OFFCURVE",
"836 188 CURVE SMOOTH",
"882 188 OFFCURVE",
"960 192 OFFCURVE",
"1010 200 CURVE",
"1196 998 LINE",
"1210 998 LINE",
"1210 866 OFFCURVE",
"1218 676 OFFCURVE",
"1226 530 CURVE SMOOTH",
"1254 -2 LINE",
"1302 -10 OFFCURVE",
"1350 -12 OFFCURVE",
"1400 -12 CURVE SMOOTH",
"1454 -12 OFFCURVE",
"1522 -8 OFFCURVE",
"1570 4 CURVE",
"1464 1364 LINE",
"1394 1376 OFFCURVE",
"1300 1380 OFFCURVE",
"1238 1380 CURVE SMOOTH",
"1176 1380 OFFCURVE",
"1096 1376 OFFCURVE",
"1026 1364 CURVE",
"918 894 LINE SMOOTH",
"908 848 OFFCURVE",
"862 632 OFFCURVE",
"844 524 CURVE",
"830 524 LINE",
"812 632 OFFCURVE",
"766 848 OFFCURVE",
"756 894 CURVE SMOOTH",
"648 1364 LINE",
"578 1376 OFFCURVE",
"498 1380 OFFCURVE",
"436 1380 CURVE SMOOTH",
"374 1380 OFFCURVE",
"280 1376 OFFCURVE",
"210 1364 CURVE"
);
}
);
width = 1674;
}
);
leftKerningGroup = M;
rightKerningGroup = M;
unicode = 004D;
},
{
glyphname = N;
lastChange = "2021-07-09 03:44:18 +0000";
layers = (
{
anchors = (
{
name = bottom;
position = "{670, 0}";
},
{
name = top;
position = "{674, 1464}";
}
);
layerId = UUID0;
paths = (
{
closed = 1;
nodes = (
"200 0 LINE",
"224 -4 OFFCURVE",
"246 -6 OFFCURVE",
"266 -6 CURVE SMOOTH",
"286 -6 OFFCURVE",
"308 -4 OFFCURVE",
"334 0 CURVE",
"334 770 LINE SMOOTH",
"334 908 OFFCURVE",
"326 1072 OFFCURVE",
"322 1192 CURVE",
"336 1192 LINE",
"376 1366 LINE",
"352 1370 OFFCURVE",
"316 1372 OFFCURVE",
"286 1372 CURVE SMOOTH",
"260 1372 OFFCURVE",
"224 1370 OFFCURVE",
"200 1366 CURVE"
);
},
{
closed = 1;
nodes = (
"962 0 LINE",
"1081 99 LINE",
"1012 168 LINE",
"968 256 OFFCURVE",
"924 352 OFFCURVE",
"872 448 CURVE SMOOTH",
"376 1366 LINE",
"259 1280 LINE",
"328 1192 LINE",
"372 1102 OFFCURVE",
"414 1014 OFFCURVE",
"466 918 CURVE SMOOTH"
);
},
{
closed = 1;
nodes = (
"1128 1372 LINE",
"1080 1372 LINE SMOOTH",
"1016 1372 OFFCURVE",
"1006 1340 OFFCURVE",
"1006 1278 CURVE SMOOTH",
"1006 616 LINE SMOOTH",
"1006 478 OFFCURVE",
"1012 312 OFFCURVE",
"1018 168 CURVE",
"1004 168 LINE",
"962 0 LINE",
"986 -4 OFFCURVE",
"1014 -6 OFFCURVE",
"1052 -6 CURVE SMOOTH",
"1090 -6 OFFCURVE",
"1116 -4 OFFCURVE",
"1140 0 CURVE",
"1140 1362 LINE"
);
}
);
width = 1340;
},
{
anchors = (
{
name = bottom;
position = "{698, 0}";
},
{
name = top;
position = "{706, 1464}";
}
);
layerId = UUID1;
paths = (
{
closed = 1;
nodes = (
"148 0 LINE",
"200 -10 OFFCURVE",
"268 -12 OFFCURVE",
"308 -12 CURVE SMOOTH",
"350 -12 OFFCURVE",
"406 -10 OFFCURVE",
"460 0 CURVE",
"460 366 LINE SMOOTH",
"460 534 OFFCURVE",
"450 804 OFFCURVE",
"434 978 CURVE",
"456 986 LINE",
"540 1366 LINE",
"466 1376 OFFCURVE",
"388 1378 OFFCURVE",
"346 1378 CURVE SMOOTH",
"304 1378 OFFCURVE",
"200 1372 OFFCURVE",
"148 1360 CURVE"
);
},
{
closed = 1;
nodes = (
"852 0 LINE",
"1126 179 LINE",
"956 364 LINE",
"928 436 OFFCURVE",
"882 550 OFFCURVE",
"832 670 CURVE SMOOTH",
"540 1366 LINE",
"287 1160 LINE",
"442 982 LINE",
"468 906 OFFCURVE",
"508 802 OFFCURVE",
"552 698 CURVE SMOOTH"
);
},
{
closed = 1;
nodes = (
"1234 1380 LINE",
"1126 1380 LINE SMOOTH",
"998 1380 OFFCURVE",
"938 1328 OFFCURVE",
"938 1178 CURVE SMOOTH",
"938 970 LINE SMOOTH",
"938 832 OFFCURVE",
"946 558 OFFCURVE",
"964 368 CURVE",
"940 360 LINE",
"852 0 LINE",
"926 -10 OFFCURVE",
"1004 -12 OFFCURVE",
"1046 -12 CURVE SMOOTH",
"1088 -12 OFFCURVE",
"1194 -6 OFFCURVE",
"1248 6 CURVE",
"1248 1366 LINE"
);
}
);
width = 1396;
}
);
rightMetricsKey = "=|";
unicode = 004E;
},
{
glyphname = O;
lastChange = "2021-07-09 03:44:18 +0000";
layers = (
{
anchors = (
{
name = bottom;
position = "{652, 0}";
},
{
name = ogonek;
position = "{836, 8}";
},
{
name = top;
position = "{652, 1464}";
},
{
name = topright;
position = "{996, 1346}";
}
);
layerId = UUID0;
paths = (
{
closed = 1;
nodes = (
"268 946 OFFCURVE",
"342 1268 OFFCURVE",
"652 1268 CURVE SMOOTH",
"962 1268 OFFCURVE",
"1034 946 OFFCURVE",
"1034 684 CURVE SMOOTH",
"1034 422 OFFCURVE",
"962 98 OFFCURVE",
"652 98 CURVE SMOOTH",
"342 98 OFFCURVE",
"268 422 OFFCURVE",
"268 684 CURVE SMOOTH"
);
},
{
closed = 1;
nodes = (
"116 297 OFFCURVE",
"285 -24 OFFCURVE",
"652 -24 CURVE SMOOTH",
"1017 -24 OFFCURVE",
"1188 294 OFFCURVE",
"1188 684 CURVE SMOOTH",
"1188 1070 OFFCURVE",
"1018 1390 OFFCURVE",
"652 1390 CURVE SMOOTH",
"288 1390 OFFCURVE",
"116 1072 OFFCURVE",
"116 684 CURVE SMOOTH"
);
}
);
width = 1304;
},
{
anchors = (
{
name = bottom;
position = "{668, 0}";
},
{
name = ogonek;
position = "{877, 0}";
},
{
name = top;
position = "{668, 1464}";
},
{
name = topright;
position = "{1112, 1336}";
}
);
layerId = UUID1;
paths = (
{
closed = 1;
nodes = (
"418 890 OFFCURVE",
"444 1140 OFFCURVE",
"668 1140 CURVE SMOOTH",
"892 1140 OFFCURVE",
"918 890 OFFCURVE",
"918 684 CURVE SMOOTH",
"918 478 OFFCURVE",
"892 226 OFFCURVE",
"668 226 CURVE SMOOTH",
"444 226 OFFCURVE",
"418 478 OFFCURVE",
"418 684 CURVE SMOOTH"
);
},
{
closed = 1;
nodes = (
"68 255 OFFCURVE",
"258 -30 OFFCURVE",
"668 -30 CURVE SMOOTH",
"1075 -30 OFFCURVE",
"1268 251 OFFCURVE",
"1268 684 CURVE SMOOTH",
"1268 1112 OFFCURVE",
"1078 1396 OFFCURVE",
"668 1396 CURVE SMOOTH",
"261 1396 OFFCURVE",
"68 1116 OFFCURVE",
"68 684 CURVE SMOOTH"
);
}
);
width = 1336;
}
);
leftKerningGroup = C;
rightKerningGroup = O;
unicode = 004F;
},
{
glyphname = P;
lastChange = "2021-07-09 03:44:18 +0000";
layers = (
{
anchors = (
{
name = top;
position = "{576, 1464}";
}
);
layerId = UUID0;
paths = (
{
closed = 1;
nodes = (
"1028 1228 OFFCURVE",
"844 1372 OFFCURVE",
"590 1372 CURVE SMOOTH",
"464 1372 OFFCURVE",
"350 1368 OFFCURVE",
"212 1366 CURVE",
"200 1354 LINE",
"200 0 LINE",
"218 -4 OFFCURVE",
"244 -6 OFFCURVE",
"270 -6 CURVE SMOOTH",
"298 -6 OFFCURVE",
"324 -4 OFFCURVE",
"344 0 CURVE",
"344 1252 LINE",
"418 1250 OFFCURVE",
"528 1250 OFFCURVE",
"596 1250 CURVE SMOOTH",
"820 1250 OFFCURVE",
"874 1086 OFFCURVE",
"874 946 CURVE SMOOTH",
"874 810 OFFCURVE",
"820 640 OFFCURVE",
"596 640 CURVE SMOOTH",
"528 640 OFFCURVE",
"358 640 OFFCURVE",
"284 638 CURVE",
"284 518 LINE",
"590 518 LINE SMOOTH",
"848 518 OFFCURVE",
"1028 666 OFFCURVE",
"1028 946 CURVE SMOOTH"
);
}
);
width = 1108;
},
{
anchors = (
{
name = top;
position = "{602, 1464}";
}
);
layerId = UUID1;
paths = (
{
closed = 1;
nodes = (
"1128 1226 OFFCURVE",
"920 1378 OFFCURVE",
"634 1378 CURVE SMOOTH",
"480 1378 OFFCURVE",
"336 1374 OFFCURVE",
"162 1370 CURVE",
"148 1356 LINE",
"148 0 LINE",
"202 -10 OFFCURVE",
"276 -12 OFFCURVE",
"316 -12 CURVE SMOOTH",
"360 -12 OFFCURVE",
"428 -10 OFFCURVE",
"484 0 CURVE",
"484 1124 LINE",
"536 1122 OFFCURVE",
"566 1122 OFFCURVE",
"604 1122 CURVE SMOOTH",
"758 1122 OFFCURVE",
"786 988 OFFCURVE",
"786 898 CURVE SMOOTH",
"786 806 OFFCURVE",
"758 674 OFFCURVE",
"604 674 CURVE SMOOTH",
"566 674 OFFCURVE",
"394 668 OFFCURVE",
"342 664 CURVE",
"342 420 LINE",
"634 420 LINE SMOOTH",
"920 420 OFFCURVE",
"1128 582 OFFCURVE",
"1128 898 CURVE SMOOTH"
);
}
);
width = 1184;
}
);
unicode = 0050;
},
{
glyphname = Q;
lastChange = "2021-07-09 03:44:18 +0000";
layers = (
{
layerId = UUID0;
paths = (
{
closed = 1;
nodes = (
"268 950 OFFCURVE",
"330 1268 OFFCURVE",
"640 1268 CURVE SMOOTH",
"950 1268 OFFCURVE",
"1010 950 OFFCURVE",
"1010 684 CURVE SMOOTH",
"1010 418 OFFCURVE",
"950 104 OFFCURVE",
"640 104 CURVE SMOOTH",
"330 104 OFFCURVE",
"268 418 OFFCURVE",
"268 684 CURVE SMOOTH"
);
},
{
closed = 1;
nodes = (
"116 282 OFFCURVE",
"265 -24 OFFCURVE",
"652 -24 CURVE SMOOTH",
"716 -24 OFFCURVE",
"732 -8 OFFCURVE",
"766 8 CURVE SMOOTH",
"1037 16 OFFCURVE",
"1164 373 OFFCURVE",
"1164 684 CURVE SMOOTH",
"1164 1077 OFFCURVE",
"1014 1390 OFFCURVE",
"640 1390 CURVE SMOOTH",
"268 1390 OFFCURVE",
"116 1080 OFFCURVE",
"116 684 CURVE SMOOTH"
);
},
{
closed = 1;
nodes = (
"928 -196 LINE SMOOTH",
"964 -220 OFFCURVE",
"998 -234 OFFCURVE",
"1044 -234 CURVE SMOOTH",
"1090 -234 OFFCURVE",
"1144 -206 OFFCURVE",
"1150 -126 CURVE",
"1088 -124 OFFCURVE",
"1036 -104 OFFCURVE",
"896 -4 CURVE SMOOTH",
"782 78 LINE",
"612 26 LINE"
);
}
);
width = 1280;
},
{
layerId = UUID1;
paths = (
{
closed = 1;
nodes = (
"412 892 OFFCURVE",
"446 1140 OFFCURVE",
"672 1140 CURVE SMOOTH",
"898 1140 OFFCURVE",
"930 892 OFFCURVE",
"930 684 CURVE SMOOTH",
"930 478 OFFCURVE",
"898 226 OFFCURVE",
"672 226 CURVE SMOOTH",
"446 226 OFFCURVE",
"412 478 OFFCURVE",
"412 684 CURVE SMOOTH"
);
},
{
closed = 1;
nodes = (
"68 265 OFFCURVE",
"260 -30 OFFCURVE",
"670 -30 CURVE SMOOTH",
"738 -30 OFFCURVE",
"798 4 OFFCURVE",
"848 44 CURVE SMOOTH",
"1151 44 OFFCURVE",
"1276 347 OFFCURVE",
"1276 682 CURVE SMOOTH",
"1276 1104 OFFCURVE",
"1085 1396 OFFCURVE",
"672 1396 CURVE SMOOTH",
"261 1396 OFFCURVE",
"68 1107 OFFCURVE",
"68 684 CURVE SMOOTH"
);
},
{
closed = 1;
nodes = (
"866 -210 LINE SMOOTH",
"922 -260 OFFCURVE",
"990 -294 OFFCURVE",
"1088 -294 CURVE SMOOTH",
"1200 -294 OFFCURVE",
"1296 -202 OFFCURVE",
"1298 -56 CURVE",
"1214 -56 OFFCURVE",
"1148 -36 OFFCURVE",
"1046 36 CURVE SMOOTH",
"852 174 LINE",
"552 72 LINE"
);
}
);
width = 1344;
}
);
leftKerningGroup = C;
rightKerningGroup = O;
unicode = 0051;
},
{
glyphname = Q.ss02;
lastChange = "2021-07-09 03:44:18 +0000";
layers = (
{
layerId = UUID0;
paths = (
{
closed = 1;
nodes = (
"274 -44 LINE",
"428 -44 OFFCURVE",
"528 -94 OFFCURVE",
"674 -164 CURVE SMOOTH",
"828 -238 OFFCURVE",
"918 -272 OFFCURVE",
"1018 -272 CURVE SMOOTH",
"1102 -272 OFFCURVE",
"1154 -236 OFFCURVE",
"1154 -158 CURVE SMOOTH",
"1154 -142 OFFCURVE",
"1152 -126 OFFCURVE",
"1150 -118 CURVE",
"1118 -128 OFFCURVE",
"1088 -130 OFFCURVE",
"1056 -130 CURVE SMOOTH",
"920 -130 OFFCURVE",
"782 -70 OFFCURVE",
"628 -14 CURVE",
"1082 30 OFFCURVE",
"1150 466 OFFCURVE",
"1150 686 CURVE SMOOTH",
"1150 896 OFFCURVE",
"1094 1130 OFFCURVE",
"946 1268 CURVE SMOOTH",
"866 1344 OFFCURVE",
"766 1390 OFFCURVE",
"606 1390 CURVE SMOOTH",
"294 1390 OFFCURVE",
"90 1146 OFFCURVE",
"90 764 CURVE SMOOTH",
"90 450 OFFCURVE",
"242 230 OFFCURVE",
"464 230 CURVE SMOOTH",
"554 230 OFFCURVE",
"590 276 OFFCURVE",
"590 328 CURVE SMOOTH",
"590 344 OFFCURVE",
"588 360 OFFCURVE",
"584 372 CURVE",
"370 330 OFFCURVE",
"242 480 OFFCURVE",
"242 774 CURVE SMOOTH",
"242 1038 OFFCURVE",
"340 1268 OFFCURVE",
"608 1268 CURVE SMOOTH",
"926 1268 OFFCURVE",
"994 950 OFFCURVE",
"994 686 CURVE SMOOTH",
"994 284 OFFCURVE",
"830 100 OFFCURVE",
"498 88 CURVE SMOOTH",
"412 84 OFFCURVE",
"388 94 OFFCURVE",
"272 86 CURVE",
"262 60 OFFCURVE",
"256 42 OFFCURVE",
"256 18 CURVE SMOOTH",
"256 2 OFFCURVE",
"258 -16 OFFCURVE",
"262 -32 CURVE"
);
}
);
width = 1270;
},
{
layerId = UUID1;
paths = (
{
closed = 1;
nodes = (
"236 -126 LINE",
"432 -126 OFFCURVE",
"526 -174 OFFCURVE",
"658 -250 CURVE SMOOTH",
"800 -332 OFFCURVE",
"908 -388 OFFCURVE",
"1034 -388 CURVE SMOOTH",
"1182 -388 OFFCURVE",
"1276 -300 OFFCURVE",
"1276 -166 CURVE SMOOTH",
"1276 -124 OFFCURVE",
"1270 -86 OFFCURVE",
"1264 -72 CURVE",
"1208 -88 OFFCURVE",
"1150 -94 OFFCURVE",
"1098 -94 CURVE SMOOTH",
"972 -94 OFFCURVE",
"856 -52 OFFCURVE",
"736 -20 CURVE",
"1178 50 OFFCURVE",
"1264 432 OFFCURVE",
"1264 678 CURVE SMOOTH",
"1264 892 OFFCURVE",
"1208 1130 OFFCURVE",
"1042 1272 CURVE SMOOTH",
"952 1348 OFFCURVE",
"834 1396 OFFCURVE",
"652 1396 CURVE SMOOTH",
"292 1396 OFFCURVE",
"64 1138 OFFCURVE",
"64 788 CURVE SMOOTH",
"64 444 OFFCURVE",
"254 270 OFFCURVE",
"458 270 CURVE SMOOTH",
"598 270 OFFCURVE",
"666 344 OFFCURVE",
"666 458 CURVE SMOOTH",
"666 488 OFFCURVE",
"660 522 OFFCURVE",
"654 542 CURVE",
"504 528 OFFCURVE",
"398 612 OFFCURVE",
"398 824 CURVE SMOOTH",
"398 986 OFFCURVE",
"462 1138 OFFCURVE",
"654 1138 CURVE SMOOTH",
"874 1138 OFFCURVE",
"920 890 OFFCURVE",
"920 678 CURVE SMOOTH",
"920 338 OFFCURVE",
"758 182 OFFCURVE",
"448 166 CURVE SMOOTH",
"372 162 OFFCURVE",
"314 166 OFFCURVE",
"234 158 CURVE",
"218 110 OFFCURVE",
"208 50 OFFCURVE",
"208 -6 CURVE SMOOTH",
"208 -40 OFFCURVE",
"212 -78 OFFCURVE",
"220 -108 CURVE"
);
}
);
width = 1350;
}
);
leftKerningGroup = C;
rightKerningGroup = O;
},
{
glyphname = R;
lastChange = "2021-07-09 03:44:18 +0000";
layers = (
{
anchors = (
{
name = bottom;
position = "{606, 0}";
},
{
name = top;
position = "{590, 1464}";
}
);
layerId = UUID0;
paths = (
{
closed = 1;
nodes = (
"1044 1220 OFFCURVE",
"890 1372 OFFCURVE",
"612 1372 CURVE SMOOTH",
"486 1372 OFFCURVE",
"350 1368 OFFCURVE",
"212 1366 CURVE",
"200 1354 LINE",
"200 0 LINE",
"218 -4 OFFCURVE",
"244 -6 OFFCURVE",
"270 -6 CURVE SMOOTH",
"298 -6 OFFCURVE",
"324 -4 OFFCURVE",
"344 0 CURVE",
"344 1252 LINE",
"418 1250 OFFCURVE",
"544 1250 OFFCURVE",
"612 1250 CURVE SMOOTH",
"836 1250 OFFCURVE",
"892 1110 OFFCURVE",
"892 978 CURVE SMOOTH",
"892 850 OFFCURVE",
"836 706 OFFCURVE",
"612 706 CURVE SMOOTH",
"512 706 OFFCURVE",
"378 704 OFFCURVE",
"284 700 CURVE",
"284 580 LINE",
"558 580 LINE SMOOTH",
"694 580 OFFCURVE",
"742 500 OFFCURVE",
"782 394 CURVE SMOOTH",
"900 84 LINE SMOOTH",
"924 22 OFFCURVE",
"946 -12 OFFCURVE",
"1004 -12 CURVE SMOOTH",
"1036 -12 OFFCURVE",
"1084 2 OFFCURVE",
"1104 36 CURVE",
"1072 61 OFFCURVE",
"1054 89 OFFCURVE",
"1020 178 CURVE SMOOTH",
"914 454 LINE SMOOTH",
"886 526 OFFCURVE",
"840 594 OFFCURVE",
"780 614 CURVE",
"944 662 OFFCURVE",
"1044 798 OFFCURVE",
"1044 978 CURVE SMOOTH"
);
}
);
width = 1182;
},
{
anchors = (
{
name = bottom;
position = "{654, 0}";
},
{
name = top;
position = "{605, 1464}";
}
);
layerId = UUID1;
paths = (
{
closed = 1;
nodes = (
"1140 1248 OFFCURVE",
"926 1378 OFFCURVE",
"648 1378 CURVE SMOOTH",
"494 1378 OFFCURVE",
"336 1374 OFFCURVE",
"162 1370 CURVE",
"148 1356 LINE",
"148 0 LINE",
"202 -10 OFFCURVE",
"274 -12 OFFCURVE",
"314 -12 CURVE SMOOTH",
"358 -12 OFFCURVE",
"424 -10 OFFCURVE",
"480 0 CURVE",
"480 1128 LINE",
"536 1126 OFFCURVE",
"580 1126 OFFCURVE",
"618 1126 CURVE SMOOTH",
"764 1126 OFFCURVE",
"798 1042 OFFCURVE",
"798 940 CURVE SMOOTH",
"798 842 OFFCURVE",
"764 754 OFFCURVE",
"618 754 CURVE SMOOTH",
"580 754 OFFCURVE",
"420 748 OFFCURVE",
"344 744 CURVE",
"344 494 LINE",
"552 494 LINE SMOOTH",
"656 494 OFFCURVE",
"694 440 OFFCURVE",
"716 374 CURVE SMOOTH",
"784 174 LINE SMOOTH",
"828 46 OFFCURVE",
"868 -18 OFFCURVE",
"988 -18 CURVE SMOOTH",
"1078 -18 OFFCURVE",
"1168 24 OFFCURVE",
"1210 80 CURVE",
"1166 114 OFFCURVE",
"1131 167 OFFCURVE",
"1110 228 CURVE SMOOTH",
"1054 388 LINE SMOOTH",
"1023 477 OFFCURVE",
"974 546 OFFCURVE",
"898 574 CURVE",
"1008 618 OFFCURVE",
"1140 746 OFFCURVE",
"1140 940 CURVE SMOOTH"
);
}
);
width = 1234;
}
);
rightKerningGroup = R;
unicode = 0052;
},
{
glyphname = S;
lastChange = "2021-07-09 03:44:18 +0000";
layers = (
{
anchors = (
{
name = bottom;
position = "{556, 0}";
},
{
name = top;
position = "{565, 1464}";
}
);
layerId = UUID0;
paths = (
{
closed = 1;
nodes = (
"204 36 OFFCURVE",
"374 -24 OFFCURVE",
"542 -24 CURVE SMOOTH",
"860 -24 OFFCURVE",
"1010 138 OFFCURVE",
"1010 360 CURVE SMOOTH",
"1010 544 OFFCURVE",
"868 655 OFFCURVE",
"712 720 CURVE SMOOTH",
"478 818 LINE SMOOTH",
"372 862 OFFCURVE",
"280 922 OFFCURVE",
"280 1034 CURVE SMOOTH",
"280 1172 OFFCURVE",
"400 1266 OFFCURVE",
"570 1266 CURVE SMOOTH",
"670 1266 OFFCURVE",
"794 1228 OFFCURVE",
"900 1174 CURVE",
"934 1202 OFFCURVE",
"958 1252 OFFCURVE",
"958 1294 CURVE",
"854 1344 OFFCURVE",
"716 1390 OFFCURVE",
"564 1390 CURVE SMOOTH",
"298 1390 OFFCURVE",
"134 1220 OFFCURVE",
"134 1022 CURVE SMOOTH",
"134 864 OFFCURVE",
"232 760 OFFCURVE",
"402 688 CURVE SMOOTH",
"644 586 LINE SMOOTH",
"764 535 OFFCURVE",
"862 454 OFFCURVE",
"862 328 CURVE SMOOTH",
"862 188 OFFCURVE",
"738 104 OFFCURVE",
"548 104 CURVE SMOOTH",
"414 104 OFFCURVE",
"266 160 OFFCURVE",
"148 242 CURVE",
"116 218 OFFCURVE",
"84 170 OFFCURVE",
"80 126 CURVE"
);
}
);
width = 1110;
},
{
anchors = (
{
name = bottom;
position = "{550, 0}";
},
{
name = top;
position = "{565, 1464}";
}
);
layerId = UUID1;
paths = (
{
closed = 1;
nodes = (
"176 22 OFFCURVE",
"374 -30 OFFCURVE",
"536 -30 CURVE SMOOTH",
"888 -30 OFFCURVE",
"1066 158 OFFCURVE",
"1066 402 CURVE SMOOTH",
"1066 574 OFFCURVE",
"961 719 OFFCURVE",
"764 800 CURVE SMOOTH",
"517 902 LINE SMOOTH",
"431 938 OFFCURVE",
"407 974 OFFCURVE",
"407 1020 CURVE SMOOTH",
"407 1066 OFFCURVE",
"445 1128 OFFCURVE",
"555 1128 CURVE SMOOTH",
"663 1128 OFFCURVE",
"817 1078 OFFCURVE",
"919 1030 CURVE",
"983 1090 OFFCURVE",
"1025 1184 OFFCURVE",
"1031 1280 CURVE",
"927 1334 OFFCURVE",
"747 1396 OFFCURVE",
"555 1396 CURVE SMOOTH",
"283 1396 OFFCURVE",
"63 1228 OFFCURVE",
"63 974 CURVE SMOOTH",
"63 780 OFFCURVE",
"186 671 OFFCURVE",
"351 602 CURVE SMOOTH",
"592 502 LINE SMOOTH",
"703 456 OFFCURVE",
"710 398 OFFCURVE",
"710 362 CURVE SMOOTH",
"710 304 OFFCURVE",
"670 238 OFFCURVE",
"560 238 CURVE SMOOTH",
"416 238 OFFCURVE",
"266 302 OFFCURVE",
"154 368 CURVE",
"90 312 OFFCURVE",
"34 212 OFFCURVE",
"26 118 CURVE"
);
}
);
width = 1114;
}
);
leftKerningGroup = S;
rightKerningGroup = S;
unicode = 0053;
},
{
glyphname = T;
lastChange = "2021-07-09 03:44:18 +0000";
layers = (
{
anchors = (
{
name = bottom;
position = "{483, 0}";
},
{
name = top;
position = "{481, 1464}";
}
);
layerId = UUID0;
paths = (
{
closed = 1;
nodes = (
"303 1242 LINE SMOOTH",
"329 1242 OFFCURVE",
"385 1244 OFFCURVE",
"411 1244 CURVE SMOOTH",
"555 1244 LINE SMOOTH",
"581 1244 OFFCURVE",
"639 1242 OFFCURVE",
"663 1242 CURVE SMOOTH",
"841 1242 LINE SMOOTH",
"901 1242 OFFCURVE",
"929 1260 OFFCURVE",
"929 1306 CURVE SMOOTH",
"929 1326 OFFCURVE",
"925 1348 OFFCURVE",
"919 1366 CURVE",
"45 1366 LINE",
"41 1344 OFFCURVE",
"39 1324 OFFCURVE",
"39 1304 CURVE SMOOTH",
"39 1284 OFFCURVE",
"41 1262 OFFCURVE",
"45 1242 CURVE"
);
},
{
closed = 1;
nodes = (
"411 0 LINE",
"431 -4 OFFCURVE",
"459 -6 OFFCURVE",
"483 -6 CURVE SMOOTH",
"507 -6 OFFCURVE",
"535 -4 OFFCURVE",
"555 0 CURVE",
"555 1096 LINE SMOOTH",
"555 1150 OFFCURVE",
"555 1188 OFFCURVE",
"555 1244 CURVE SMOOTH",
"555 1304 LINE",
"411 1304 LINE",
"411 1244 LINE SMOOTH",
"411 1188 OFFCURVE",
"411 1150 OFFCURVE",
"411 1096 CURVE SMOOTH"
);
}
);
width = 962;
},
{
anchors = (
{
name = bottom;
position = "{514, 0}";
},
{
name = top;
position = "{514, 1464}";
}
);
layerId = UUID1;
paths = (
{
closed = 1;
nodes = (
"218 1088 LINE SMOOTH",
"248 1088 OFFCURVE",
"316 1090 OFFCURVE",
"346 1090 CURVE SMOOTH",
"682 1090 LINE SMOOTH",
"712 1090 OFFCURVE",
"780 1088 OFFCURVE",
"810 1088 CURVE SMOOTH",
"858 1088 LINE SMOOTH",
"978 1088 OFFCURVE",
"1032 1128 OFFCURVE",
"1032 1238 CURVE SMOOTH",
"1032 1280 OFFCURVE",
"1026 1332 OFFCURVE",
"1016 1366 CURVE",
"16 1366 LINE",
"6 1316 OFFCURVE",
"4 1264 OFFCURVE",
"4 1226 CURVE SMOOTH",
"4 1188 OFFCURVE",
"6 1138 OFFCURVE",
"16 1088 CURVE"
);
},
{
closed = 1;
nodes = (
"346 0 LINE",
"404 -10 OFFCURVE",
"468 -12 OFFCURVE",
"514 -12 CURVE SMOOTH",
"560 -12 OFFCURVE",
"624 -10 OFFCURVE",
"682 0 CURVE",
"682 942 LINE SMOOTH",
"682 996 OFFCURVE",
"680 1034 OFFCURVE",
"680 1090 CURVE SMOOTH",
"680 1228 LINE",
"348 1228 LINE",
"348 1090 LINE SMOOTH",
"348 1034 OFFCURVE",
"346 996 OFFCURVE",
"346 942 CURVE SMOOTH"
);
}
);
width = 1024;
}
);
leftKerningGroup = T;
rightKerningGroup = T;
unicode = 0054;
},
{
glyphname = U;
lastChange = "2021-07-09 03:44:18 +0000";
layers = (
{
anchors = (
{
name = bottom;
position = "{666, 0}";
},
{
name = ogonek;
position = "{860, 8}";
},
{
name = top;
position = "{666, 1464}";
},
{
name = topright;
position = "{1148, 1366}";
}
);
layerId = UUID0;
paths = (
{
closed = 1;
nodes = (
"1148 1366 LINE",
"1128 1370 OFFCURVE",
"1102 1372 OFFCURVE",
"1074 1372 CURVE SMOOTH",
"1048 1372 OFFCURVE",
"1022 1370 OFFCURVE",
"1004 1366 CURVE",
"1004 466 LINE SMOOTH",
"1004 224 OFFCURVE",
"878 96 OFFCURVE",
"666 96 CURVE SMOOTH",
"454 96 OFFCURVE",
"328 224 OFFCURVE",
"328 466 CURVE SMOOTH",
"328 1278 LINE SMOOTH",
"328 1340 OFFCURVE",
"318 1372 OFFCURVE",
"254 1372 CURVE SMOOTH",
"196 1372 LINE",
"184 1360 LINE",
"184 464 LINE SMOOTH",
"184 138 OFFCURVE",
"386 -24 OFFCURVE",
"664 -24 CURVE SMOOTH",
"946 -24 OFFCURVE",
"1148 138 OFFCURVE",
"1148 464 CURVE SMOOTH"
);
}
);
width = 1332;
},
{
anchors = (
{
name = bottom;
position = "{674, 0}";
},
{
name = ogonek;
position = "{912, 8}";
},
{
name = top;
position = "{668, 1464}";
},
{
name = topright;
position = "{1220, 1366}";
}
);
layerId = UUID1;
paths = (
{
closed = 1;
nodes = (
"1220 1366 LINE",
"1166 1376 OFFCURVE",
"1088 1378 OFFCURVE",
"1048 1378 CURVE SMOOTH",
"1004 1378 OFFCURVE",
"940 1376 OFFCURVE",
"884 1366 CURVE",
"884 504 LINE SMOOTH",
"884 326 OFFCURVE",
"830 236 OFFCURVE",
"674 236 CURVE SMOOTH",
"518 236 OFFCURVE",
"464 326 OFFCURVE",
"464 504 CURVE SMOOTH",
"464 1168 LINE SMOOTH",
"464 1318 OFFCURVE",
"392 1380 OFFCURVE",
"264 1380 CURVE SMOOTH",
"142 1380 LINE",
"128 1366 LINE",
"128 508 LINE SMOOTH",
"128 168 OFFCURVE",
"322 -30 OFFCURVE",
"674 -30 CURVE SMOOTH",
"1026 -30 OFFCURVE",
"1220 168 OFFCURVE",
"1220 508 CURVE SMOOTH"
);
}
);
width = 1348;
}
);
leftKerningGroup = U;
rightKerningGroup = U;
unicode = 0055;
},
{
glyphname = V;
lastChange = "2021-07-09 03:44:18 +0000";
layers = (
{
anchors = (
{
name = bottom;
position = "{558, 0}";
},
{
name = top;
position = "{568, 1464}";
}
);
layerId = UUID0;
paths = (
{
closed = 1;
nodes = (
"578 142 LINE",
"570 142 OFFCURVE",
"566 144 OFFCURVE",
"562 158 CURVE SMOOTH",
"534 256 OFFCURVE",
"494 404 OFFCURVE",
"468 490 CURVE SMOOTH",
"226 1308 LINE SMOOTH",
"210 1364 OFFCURVE",
"182 1378 OFFCURVE",
"146 1378 CURVE SMOOTH",
"116 1378 OFFCURVE",
"84 1368 OFFCURVE",
"56 1354 CURVE",
"446 68 LINE SMOOTH",
"463 10 OFFCURVE",
"490 -8 OFFCURVE",
"548 -8 CURVE SMOOTH",
"586 -8 OFFCURVE",
"616 -6 OFFCURVE",
"654 -2 CURVE",
"1064 1352 LINE",
"1058 1364 LINE",
"1042 1368 OFFCURVE",
"1018 1372 OFFCURVE",
"992 1372 CURVE SMOOTH",
"966 1372 OFFCURVE",
"946 1370 OFFCURVE",
"930 1366 CURVE"
);
}
);
width = 1108;
},
{
anchors = (
{
name = bottom;
position = "{608, 0}";
},
{
name = top;
position = "{614, 1464}";
}
);
layerId = UUID1;
paths = (
{
closed = 1;
nodes = (
"638 278 LINE",
"626 278 OFFCURVE",
"620 282 OFFCURVE",
"616 304 CURVE SMOOTH",
"598 422 OFFCURVE",
"574 550 OFFCURVE",
"542 670 CURVE SMOOTH",
"396 1218 LINE SMOOTH",
"366 1332 OFFCURVE",
"316 1384 OFFCURVE",
"216 1384 CURVE SMOOTH",
"142 1384 OFFCURVE",
"74 1362 OFFCURVE",
"14 1336 CURVE",
"342 138 LINE SMOOTH",
"375 20 OFFCURVE",
"442 -12 OFFCURVE",
"568 -12 CURVE SMOOTH",
"654 -12 OFFCURVE",
"758 -8 OFFCURVE",
"836 0 CURVE",
"1208 1338 LINE",
"1194 1356 LINE",
"1148 1372 OFFCURVE",
"1080 1378 OFFCURVE",
"1040 1378 CURVE SMOOTH",
"996 1378 OFFCURVE",
"944 1378 OFFCURVE",
"894 1366 CURVE"
);
}
);
width = 1222;
}
);
unicode = 0056;
},
{
glyphname = W;
lastChange = "2021-07-09 03:44:18 +0000";
layers = (
{
anchors = (
{
name = bottom;
position = "{824, 0}";
},
{
name = top;
position = "{824, 1464}";
}
);
layerId = UUID0;
paths = (
{
closed = 1;
nodes = (
"340 72 LINE SMOOTH",
"354 4 OFFCURVE",
"398 -8 OFFCURVE",
"442 -8 CURVE SMOOTH",
"476 -8 OFFCURVE",
"534 -6 OFFCURVE",
"570 0 CURVE",
"714 672 LINE SMOOTH",
"740 790 OFFCURVE",
"778 984 OFFCURVE",
"816 1184 CURVE",
"828 1184 LINE",
"864 984 OFFCURVE",
"902 786 OFFCURVE",
"924 672 CURVE SMOOTH",
"1038 70 LINE SMOOTH",
"1050 4 OFFCURVE",
"1084 -8 OFFCURVE",
"1128 -8 CURVE SMOOTH",
"1164 -8 OFFCURVE",
"1228 -6 OFFCURVE",
"1266 2 CURVE",
"1566 1354 LINE",
"1558 1364 LINE",
"1536 1370 OFFCURVE",
"1510 1372 OFFCURVE",
"1488 1372 CURVE SMOOTH",
"1466 1372 OFFCURVE",
"1440 1370 OFFCURVE",
"1422 1366 CURVE",
"1242 520 LINE SMOOTH",
"1224 434 OFFCURVE",
"1186 248 OFFCURVE",
"1164 118 CURVE",
"1154 118 OFFCURVE",
"1152 120 OFFCURVE",
"1148 138 CURVE SMOOTH",
"918 1336 LINE",
"898 1340 OFFCURVE",
"850 1342 OFFCURVE",
"824 1342 CURVE SMOOTH",
"800 1342 OFFCURVE",
"756 1340 OFFCURVE",
"728 1336 CURVE",
"476 118 LINE",
"466 118 OFFCURVE",
"464 118 OFFCURVE",
"460 138 CURVE SMOOTH",
"442 234 OFFCURVE",
"406 434 OFFCURVE",
"390 520 CURVE SMOOTH",
"238 1302 LINE SMOOTH",
"228 1356 OFFCURVE",
"208 1378 OFFCURVE",
"164 1378 CURVE SMOOTH",
"138 1378 OFFCURVE",
"114 1376 OFFCURVE",
"80 1360 CURVE"
);
}
);
width = 1632;
},
{
anchors = (
{
name = bottom;
position = "{912, 0}";
},
{
name = top;
position = "{912, 1464}";
}
);
layerId = UUID1;
paths = (
{
closed = 1;
nodes = (
"260 138 LINE SMOOTH",
"286 4 OFFCURVE",
"364 -12 OFFCURVE",
"472 -12 CURVE SMOOTH",
"564 -12 OFFCURVE",
"672 -6 OFFCURVE",
"752 2 CURVE",
"838 556 LINE SMOOTH",
"864 718 OFFCURVE",
"888 896 OFFCURVE",
"900 1016 CURVE",
"916 1016 LINE",
"924 896 OFFCURVE",
"946 716 OFFCURVE",
"970 556 CURVE SMOOTH",
"1034 138 LINE SMOOTH",
"1054 4 OFFCURVE",
"1138 -12 OFFCURVE",
"1238 -12 CURVE SMOOTH",
"1326 -12 OFFCURVE",
"1446 -6 OFFCURVE",
"1522 2 CURVE",
"1784 1336 LINE",
"1768 1356 LINE",
"1724 1370 OFFCURVE",
"1662 1378 OFFCURVE",
"1610 1378 CURVE SMOOTH",
"1564 1378 OFFCURVE",
"1510 1376 OFFCURVE",
"1460 1366 CURVE",
"1352 710 LINE SMOOTH",
"1328 570 OFFCURVE",
"1304 388 OFFCURVE",
"1294 280 CURVE",
"1282 280 OFFCURVE",
"1276 280 OFFCURVE",
"1272 308 CURVE SMOOTH",
"1126 1340 LINE",
"1062 1352 OFFCURVE",
"980 1356 OFFCURVE",
"912 1356 CURVE SMOOTH",
"846 1356 OFFCURVE",
"764 1352 OFFCURVE",
"698 1340 CURVE",
"540 280 LINE",
"526 280 OFFCURVE",
"522 282 OFFCURVE",
"520 308 CURVE SMOOTH",
"512 404 OFFCURVE",
"488 572 OFFCURVE",
"466 706 CURVE SMOOTH",
"388 1200 LINE SMOOTH",
"366 1344 OFFCURVE",
"320 1384 OFFCURVE",
"202 1384 CURVE SMOOTH",
"142 1384 OFFCURVE",
"74 1366 OFFCURVE",
"26 1346 CURVE"
);
}
);
width = 1822;
}
);
leftKerningGroup = W;
rightKerningGroup = W;
unicode = 0057;
},
{
glyphname = X;
lastChange = "2021-07-09 03:44:18 +0000";
layers = (
{
anchors = (
{
name = top;
position = "{576, 1464}";
}
);
layerId = UUID0;
paths = (
{
closed = 1;
nodes = (
"902 48 LINE",
"930 4 OFFCURVE",
"962 -12 OFFCURVE",
"992 -12 CURVE SMOOTH",
"1022 -12 OFFCURVE",
"1058 -2 OFFCURVE",
"1090 22 CURVE",
"294 1318 LINE SMOOTH",
"266 1362 OFFCURVE",
"234 1378 OFFCURVE",
"204 1378 CURVE SMOOTH",
"174 1378 OFFCURVE",
"138 1368 OFFCURVE",
"106 1344 CURVE"
);
},
{
closed = 1;
nodes = (
"566 812 LINE",
"506 750 LINE",
"48 18 LINE",
"54 6 LINE",
"68 -2 OFFCURVE",
"98 -8 OFFCURVE",
"128 -8 CURVE SMOOTH",
"148 -8 OFFCURVE",
"182 -4 OFFCURVE",
"192 0 CURVE",
"580 636 LINE",
"640 696 LINE",
"1046 1348 LINE",
"1040 1360 LINE",
"1026 1368 OFFCURVE",
"996 1374 OFFCURVE",
"966 1374 CURVE SMOOTH",
"946 1374 OFFCURVE",
"916 1370 OFFCURVE",
"906 1366 CURVE"
);
}
);
width = 1138;
},
{
anchors = (
{
name = top;
position = "{615, 1464}";
}
);
layerId = UUID1;
paths = (
{
closed = 1;
nodes = (
"792 112 LINE",
"856 12 OFFCURVE",
"912 -20 OFFCURVE",
"1008 -20 CURVE SMOOTH",
"1078 -20 OFFCURVE",
"1160 8 OFFCURVE",
"1226 52 CURVE",
"474 1256 LINE SMOOTH",
"412 1354 OFFCURVE",
"358 1386 OFFCURVE",
"262 1386 CURVE SMOOTH",
"192 1386 OFFCURVE",
"110 1358 OFFCURVE",
"44 1314 CURVE"
);
},
{
closed = 1;
nodes = (
"618 950 LINE",
"482 798 LINE",
"14 34 LINE",
"22 16 LINE",
"70 0 OFFCURVE",
"138 -12 OFFCURVE",
"202 -12 CURVE SMOOTH",
"260 -12 OFFCURVE",
"306 -8 OFFCURVE",
"342 0 CURVE",
"622 474 LINE",
"758 628 LINE",
"1186 1334 LINE",
"1178 1350 LINE",
"1134 1366 OFFCURVE",
"1066 1378 OFFCURVE",
"1002 1378 CURVE SMOOTH",
"944 1378 OFFCURVE",
"898 1374 OFFCURVE",
"862 1366 CURVE"
);
}
);
width = 1240;
}
);
unicode = 0058;
},
{
glyphname = Y;
lastChange = "2021-07-09 03:44:18 +0000";
layers = (
{
anchors = (
{
name = bottom;
position = "{478, 0}";
},
{
name = top;
position = "{486, 1464}";
}
);
layerId = UUID0;
paths = (
{
closed = 1;
nodes = (
"408 0 LINE",
"426 -4 OFFCURVE",
"452 -6 OFFCURVE",
"478 -6 CURVE SMOOTH",
"506 -6 OFFCURVE",
"532 -4 OFFCURVE",
"552 0 CURVE",
"552 538 LINE",
"408 538 LINE"
);
},
{
closed = 1;
nodes = (
"576 832 LINE SMOOTH",
"562 796 OFFCURVE",
"514 672 OFFCURVE",
"494 606 CURVE",
"484 606 LINE",
"464 670 OFFCURVE",
"430 770 OFFCURVE",
"404 832 CURVE SMOOTH",
"206 1310 LINE SMOOTH",
"188 1356 OFFCURVE",
"166 1380 OFFCURVE",
"126 1380 CURVE SMOOTH",
"102 1380 OFFCURVE",
"74 1374 OFFCURVE",
"32 1350 CURVE",
"428 404 LINE",
"534 404 LINE",
"928 1352 LINE",
"922 1364 LINE",
"900 1370 OFFCURVE",
"878 1374 OFFCURVE",
"852 1374 CURVE SMOOTH",
"832 1374 OFFCURVE",
"808 1372 OFFCURVE",
"788 1366 CURVE"
);
}
);
width = 956;
},
{
anchors = (
{
name = bottom;
position = "{550, 0}";
},
{
name = top;
position = "{554, 1464}";
}
);
layerId = UUID1;
paths = (
{
closed = 1;
nodes = (
"380 0 LINE",
"434 -10 OFFCURVE",
"510 -12 OFFCURVE",
"550 -12 CURVE SMOOTH",
"594 -12 OFFCURVE",
"660 -10 OFFCURVE",
"716 0 CURVE",
"716 618 LINE",
"380 618 LINE"
);
},
{
closed = 1;
nodes = (
"662 1044 LINE SMOOTH",
"624 948 OFFCURVE",
"588 844 OFFCURVE",
"562 740 CURVE",
"550 740 LINE",
"522 852 OFFCURVE",
"492 946 OFFCURVE",
"458 1032 CURVE SMOOTH",
"372 1250 LINE SMOOTH",
"334 1344 OFFCURVE",
"290 1382 OFFCURVE",
"196 1382 CURVE SMOOTH",
"124 1382 OFFCURVE",
"48 1358 OFFCURVE",
"-8 1326 CURVE",
"400 380 LINE",
"700 380 LINE",
"1104 1336 LINE",
"1090 1354 LINE",
"1046 1370 OFFCURVE",
"982 1378 OFFCURVE",
"926 1378 CURVE SMOOTH",
"882 1378 OFFCURVE",
"836 1376 OFFCURVE",
"790 1366 CURVE"
);
}
);
width = 1096;
}
);
leftKerningGroup = Y;
rightKerningGroup = Y;
unicode = 0059;
},
{
glyphname = Z;
lastChange = "2021-07-09 03:44:18 +0000";
layers = (
{
anchors = (
{
name = bottom;
position = "{556, 0}";
},
{
name = top;
position = "{562, 1464}";
}
);
layerId = UUID0;
paths = (
{
closed = 1;
nodes = (
"130 172 LINE SMOOTH",
"114 146 OFFCURVE",
"108 120 OFFCURVE",
"108 98 CURVE SMOOTH",
"108 80 OFFCURVE",
"110 62 OFFCURVE",
"130 0 CURVE",
"886 0 LINE SMOOTH",
"968 0 OFFCURVE",
"994 34 OFFCURVE",
"994 86 CURVE SMOOTH",
"994 112 OFFCURVE",
"988 138 OFFCURVE",
"980 162 CURVE",
"928 138 OFFCURVE",
"848 130 OFFCURVE",
"738 130 CURVE SMOOTH",
"468 130 LINE SMOOTH",
"420 130 OFFCURVE",
"348 128 OFFCURVE",
"264 120 CURVE",
"258 126 LINE",
"310 202 OFFCURVE",
"370 286 OFFCURVE",
"416 358 CURVE SMOOTH",
"954 1198 LINE SMOOTH",
"970 1224 OFFCURVE",
"978 1246 OFFCURVE",
"978 1266 CURVE SMOOTH",
"978 1284 OFFCURVE",
"974 1306 OFFCURVE",
"956 1366 CURVE",
"170 1366 LINE",
"162 1340 OFFCURVE",
"158 1314 OFFCURVE",
"158 1288 CURVE SMOOTH",
"158 1272 OFFCURVE",
"160 1254 OFFCURVE",
"164 1238 CURVE",
"508 1238 LINE SMOOTH",
"556 1238 OFFCURVE",
"776 1242 OFFCURVE",
"822 1252 CURVE",
"828 1246 LINE",
"768 1160 OFFCURVE",
"718 1092 OFFCURVE",
"674 1024 CURVE SMOOTH"
);
}
);
width = 1102;
},
{
anchors = (
{
name = bottom;
position = "{572, 0}";
},
{
name = top;
position = "{578, 1464}";
}
);
layerId = UUID1;
paths = (
{
closed = 1;
nodes = (
"112 322 LINE SMOOTH",
"85 286 OFFCURVE",
"72 240 OFFCURVE",
"72 200 CURVE SMOOTH",
"72 172 OFFCURVE",
"76 148 OFFCURVE",
"108 0 CURVE",
"874 0 LINE SMOOTH",
"1000 0 OFFCURVE",
"1092 56 OFFCURVE",
"1092 176 CURVE SMOOTH",
"1092 228 OFFCURVE",
"1082 286 OFFCURVE",
"1070 326 CURVE",
"1016 300 OFFCURVE",
"942 278 OFFCURVE",
"846 278 CURVE SMOOTH",
"748 278 LINE SMOOTH",
"660 278 OFFCURVE",
"526 270 OFFCURVE",
"440 264 CURVE",
"434 270 LINE",
"486 322 OFFCURVE",
"552 402 OFFCURVE",
"590 454 CURVE SMOOTH",
"1028 1046 LINE SMOOTH",
"1056 1086 OFFCURVE",
"1064 1124 OFFCURVE",
"1064 1162 CURVE SMOOTH",
"1064 1186 OFFCURVE",
"1062 1208 OFFCURVE",
"1018 1366 CURVE",
"124 1366 LINE",
"110 1310 OFFCURVE",
"102 1264 OFFCURVE",
"102 1206 CURVE SMOOTH",
"102 1170 OFFCURVE",
"104 1134 OFFCURVE",
"114 1094 CURVE",
"396 1094 LINE SMOOTH",
"480 1094 OFFCURVE",
"606 1100 OFFCURVE",
"704 1112 CURVE",
"710 1106 LINE",
"660 1054 OFFCURVE",
"586 964 OFFCURVE",
"548 912 CURVE SMOOTH"
);
}
);
width = 1164;
}
);
leftKerningGroup = Z;
rightKerningGroup = Z;
unicode = 005A;
},
{
glyphname = a;
lastChange = "2021-07-09 03:44:18 +0000";
layers = (
{
anchors = (
{
name = bottom;
position = "{492, 0}";
},
{
name = ogonek;
position = "{826, -14}";
},
{
name = top;
position = "{482, 1084}";
}
);
layerId = UUID0;
paths = (
{
closed = 1;
nodes = (
"104 124 OFFCURVE",
"198 -24 OFFCURVE",
"392 -24 CURVE SMOOTH",
"564 -24 OFFCURVE",
"696 110 OFFCURVE",
"764 190 CURVE",
"740 322 LINE",
"654 170 OFFCURVE",
"516 96 OFFCURVE",
"408 96 CURVE SMOOTH",
"302 96 OFFCURVE",
"246 176 OFFCURVE",
"246 276 CURVE SMOOTH",
"246 406 OFFCURVE",
"336 480 OFFCURVE",
"478 480 CURVE SMOOTH",
"570 480 OFFCURVE",
"670 474 OFFCURVE",
"750 456 CURVE",
"750 556 LINE",
"664 578 OFFCURVE",
"562 586 OFFCURVE",
"478 586 CURVE SMOOTH",
"254 586 OFFCURVE",
"104 486 OFFCURVE",
"104 266 CURVE SMOOTH"
);
},
{
closed = 1;
nodes = (
"842 106 OFFCURVE",
"836 170 OFFCURVE",
"836 256 CURVE SMOOTH",
"836 668 LINE SMOOTH",
"836 882 OFFCURVE",
"738 1000 OFFCURVE",
"528 1000 CURVE SMOOTH",
"388 1000 OFFCURVE",
"238 950 OFFCURVE",
"140 906 CURVE",
"140 868 OFFCURVE",
"164 818 OFFCURVE",
"190 796 CURVE",
"296 844 OFFCURVE",
"408 880 OFFCURVE",
"518 880 CURVE SMOOTH",
"630 880 OFFCURVE",
"702 824 OFFCURVE",
"702 672 CURVE SMOOTH",
"702 206 LINE",
"702 102 OFFCURVE",
"732 24 OFFCURVE",
"826 -14 CURVE",
"856 0 OFFCURVE",
"882 32 OFFCURVE",
"892 58 CURVE"
);
}
);
width = 1006;
},
{
anchors = (
{
name = bottom;
position = "{512, 0}";
},
{
name = ogonek;
position = "{876, -16}";
},
{
name = top;
position = "{502, 1084}";
}
);
layerId = UUID1;
paths = (
{
closed = 1;
nodes = (
"56 130 OFFCURVE",
"154 -30 OFFCURVE",
"362 -30 CURVE SMOOTH",
"542 -30 OFFCURVE",
"644 68 OFFCURVE",
"724 162 CURVE",
"678 366 LINE",
"624 270 OFFCURVE",
"538 210 OFFCURVE",
"460 210 CURVE SMOOTH",
"408 210 OFFCURVE",
"374 246 OFFCURVE",
"374 296 CURVE SMOOTH",
"374 366 OFFCURVE",
"406 416 OFFCURVE",
"490 416 CURVE SMOOTH",
"540 416 OFFCURVE",
"632 416 OFFCURVE",
"688 404 CURVE",
"688 610 LINE",
"616 624 OFFCURVE",
"512 624 OFFCURVE",
"454 624 CURVE SMOOTH",
"250 624 OFFCURVE",
"56 516 OFFCURVE",
"56 274 CURVE SMOOTH"
);
},
{
closed = 1;
nodes = (
"936 178 OFFCURVE",
"918 220 OFFCURVE",
"918 276 CURVE SMOOTH",
"918 682 LINE SMOOTH",
"918 938 OFFCURVE",
"730 1024 OFFCURVE",
"558 1024 CURVE SMOOTH",
"430 1024 OFFCURVE",
"232 992 OFFCURVE",
"94 936 CURVE",
"101 856 OFFCURVE",
"126 764 OFFCURVE",
"172 710 CURVE",
"276 740 OFFCURVE",
"380 772 OFFCURVE",
"464 772 CURVE SMOOTH",
"552 772 OFFCURVE",
"590 730 OFFCURVE",
"590 652 CURVE SMOOTH",
"590 228 LINE",
"610 122 OFFCURVE",
"692 -16 OFFCURVE",
"876 -16 CURVE",
"916 16 OFFCURVE",
"962 94 OFFCURVE",
"974 152 CURVE"
);
}
);
width = 1028;
}
);
leftKerningGroup = a;
rightKerningGroup = a;
unicode = 0061;
},
{
glyphname = b;
lastChange = "2021-07-09 03:44:18 +0000";
layers = (
{
anchors = (
{
name = bottom;
position = "{522, 0}";
},
{
name = top;
position = "{551, 1520}";
}
);
layerId = UUID0;
paths = (
{
closed = 1;
nodes = (
"316 1374 LINE SMOOTH",
"316 1436 OFFCURVE",
"306 1470 OFFCURVE",
"242 1470 CURVE SMOOTH",
"192 1470 LINE",
"180 1458 LINE",
"180 50 LINE",
"316 50 LINE"
);
},
{
closed = 1;
nodes = (
"942 792 OFFCURVE",
"826 996 OFFCURVE",
"602 996 CURVE SMOOTH",
"432 996 OFFCURVE",
"306 876 OFFCURVE",
"258 800 CURVE",
"280 674 LINE",
"338 782 OFFCURVE",
"460 874 OFFCURVE",
"584 874 CURVE SMOOTH",
"698 874 OFFCURVE",
"802 766 OFFCURVE",
"802 502 CURVE SMOOTH",
"802 222 OFFCURVE",
"672 94 OFFCURVE",
"524 94 CURVE SMOOTH",
"416 94 OFFCURVE",
"340 114 OFFCURVE",
"252 164 CURVE",
"180 50 LINE",
"294 8 OFFCURVE",
"408 -14 OFFCURVE",
"526 -14 CURVE SMOOTH",
"732 -14 OFFCURVE",
"942 136 OFFCURVE",
"942 502 CURVE SMOOTH"
);
}
);
width = 1046;
},
{
anchors = (
{
name = bottom;
position = "{522, 0}";
},
{
name = top;
position = "{565, 1520}";
}
);
layerId = UUID1;
paths = (
{
closed = 1;
nodes = (
"434 1276 LINE SMOOTH",
"434 1422 OFFCURVE",
"380 1472 OFFCURVE",
"252 1472 CURVE SMOOTH",
"128 1472 LINE",
"114 1458 LINE",
"114 50 LINE",
"434 50 LINE"
);
},
{
closed = 1;
nodes = (
"1016 806 OFFCURVE",
"898 1020 OFFCURVE",
"660 1020 CURVE SMOOTH",
"522 1020 OFFCURVE",
"426 964 OFFCURVE",
"342 884 CURVE",
"388 638 LINE",
"436 728 OFFCURVE",
"508 760 OFFCURVE",
"560 758 CURVE SMOOTH",
"644 756 OFFCURVE",
"680 682 OFFCURVE",
"680 508 CURVE SMOOTH",
"680 330 OFFCURVE",
"636 216 OFFCURVE",
"516 216 CURVE SMOOTH",
"426 216 OFFCURVE",
"342 242 OFFCURVE",
"268 290 CURVE",
"114 50 LINE",
"220 8 OFFCURVE",
"362 -18 OFFCURVE",
"510 -18 CURVE SMOOTH",
"824 -18 OFFCURVE",
"1018 192 OFFCURVE",
"1016 514 CURVE SMOOTH"
);
}
);
width = 1072;
}
);
leftKerningGroup = h;
unicode = 0062;
},
{
glyphname = c;
lastChange = "2021-07-09 03:44:18 +0000";
layers = (
{
anchors = (
{
name = bottom;
position = "{494, 0}";
},
{
name = top;
position = "{502, 1084}";
}
);
layerId = UUID0;
paths = (
{
closed = 1;
nodes = (
"738 634 OFFCURVE",
"756 632 OFFCURVE",
"776 632 CURVE SMOOTH",
"840 632 OFFCURVE",
"850 674 OFFCURVE",
"850 722 CURVE SMOOTH",
"850 822 OFFCURVE",
"762 1004 OFFCURVE",
"506 1004 CURVE SMOOTH",
"300 1004 OFFCURVE",
"106 842 OFFCURVE",
"106 482 CURVE SMOOTH",
"106 234 OFFCURVE",
"208 -24 OFFCURVE",
"494 -24 CURVE SMOOTH",
"634 -24 OFFCURVE",
"746 34 OFFCURVE",
"838 120 CURVE",
"830 154 OFFCURVE",
"798 192 OFFCURVE",
"770 210 CURVE",
"696 154 OFFCURVE",
"612 98 OFFCURVE",
"512 98 CURVE SMOOTH",
"350 98 OFFCURVE",
"252 224 OFFCURVE",
"252 482 CURVE SMOOTH",
"252 750 OFFCURVE",
"354 892 OFFCURVE",
"502 892 CURVE SMOOTH",
"674 892 OFFCURVE",
"724 752 OFFCURVE",
"716 638 CURVE"
);
}
);
width = 938;
},
{
anchors = (
{
name = bottom;
position = "{502, 0}";
},
{
name = top;
position = "{504, 1084}";
}
);
layerId = UUID1;
paths = (
{
closed = 1;
nodes = (
"650 540 OFFCURVE",
"686 536 OFFCURVE",
"742 536 CURVE SMOOTH",
"832 536 OFFCURVE",
"902 584 OFFCURVE",
"902 694 CURVE SMOOTH",
"902 900 OFFCURVE",
"730 1030 OFFCURVE",
"508 1030 CURVE SMOOTH",
"288 1030 OFFCURVE",
"56 888 OFFCURVE",
"56 498 CURVE SMOOTH",
"56 172 OFFCURVE",
"214 -30 OFFCURVE",
"502 -30 CURVE SMOOTH",
"650 -30 OFFCURVE",
"806 30 OFFCURVE",
"894 124 CURVE",
"880 188 OFFCURVE",
"824 276 OFFCURVE",
"772 306 CURVE",
"710 262 OFFCURVE",
"632 224 OFFCURVE",
"556 224 CURVE SMOOTH",
"446 224 OFFCURVE",
"390 290 OFFCURVE",
"390 498 CURVE SMOOTH",
"390 702 OFFCURVE",
"414 788 OFFCURVE",
"502 788 CURVE SMOOTH",
"600 788 OFFCURVE",
"610 706 OFFCURVE",
"610 548 CURVE"
);
}
);
width = 950;
}
);
leftKerningGroup = c;
rightKerningGroup = c;
unicode = 0063;
},
{
glyphname = d;
lastChange = "2021-07-09 03:44:18 +0000";
layers = (
{
anchors = (
{
name = bottom;
position = "{536, 0}";
},
{
name = top;
position = "{485, 1520}";
},
{
name = topright;
position = "{866, 980}";
}
);
guideLines = (
{
angle = 90;
position = "{521, -1}";
}
);
layerId = UUID0;
paths = (
{
closed = 1;
nodes = (
"866 1374 LINE SMOOTH",
"866 1436 OFFCURVE",
"856 1470 OFFCURVE",
"792 1470 CURVE SMOOTH",
"742 1470 LINE",
"730 1458 LINE",
"730 226 LINE SMOOTH",
"730 122 OFFCURVE",
"754 26 OFFCURVE",
"856 -14 CURVE",
"886 0 OFFCURVE",
"912 32 OFFCURVE",
"922 58 CURVE",
"872 106 OFFCURVE",
"866 190 OFFCURVE",
"866 276 CURVE SMOOTH"
);
},
{
closed = 1;
nodes = (
"104 180 OFFCURVE",
"220 -24 OFFCURVE",
"438 -24 CURVE SMOOTH",
"620 -24 OFFCURVE",
"754 104 OFFCURVE",
"804 222 CURVE",
"780 360 LINE",
"730 200 OFFCURVE",
"588 98 OFFCURVE",
"464 98 CURVE SMOOTH",
"350 98 OFFCURVE",
"244 206 OFFCURVE",
"244 478 CURVE SMOOTH",
"244 760 OFFCURVE",
"366 874 OFFCURVE",
"488 874 CURVE SMOOTH",
"610 874 OFFCURVE",
"716 796 OFFCURVE",
"792 738 CURVE",
"798 864 LINE",
"702 940 OFFCURVE",
"596 996 OFFCURVE",
"476 996 CURVE SMOOTH",
"304 996 OFFCURVE",
"104 844 OFFCURVE",
"104 478 CURVE SMOOTH"
);
}
);
width = 1048;
},
{
anchors = (
{
name = bottom;
position = "{568, 0}";
},
{
name = top;
position = "{511, 1520}";
},
{
name = topright;
position = "{962, 1000}";
}
);
guideLines = (
{
angle = 90;
position = "{549, -1}";
}
);
layerId = UUID1;
paths = (
{
closed = 1;
nodes = (
"962 1276 LINE SMOOTH",
"962 1422 OFFCURVE",
"912 1472 OFFCURVE",
"784 1472 CURVE SMOOTH",
"656 1472 LINE",
"642 1458 LINE",
"642 290 LINE SMOOTH",
"642 118 OFFCURVE",
"738 -16 OFFCURVE",
"920 -16 CURVE",
"960 16 OFFCURVE",
"1006 94 OFFCURVE",
"1018 152 CURVE",
"986 174 OFFCURVE",
"962 228 OFFCURVE",
"962 290 CURVE SMOOTH"
);
},
{
closed = 1;
nodes = (
"60 184 OFFCURVE",
"176 -30 OFFCURVE",
"422 -30 CURVE SMOOTH",
"620 -30 OFFCURVE",
"782 138 OFFCURVE",
"798 304 CURVE",
"724 484 LINE",
"670 268 OFFCURVE",
"566 232 OFFCURVE",
"508 232 CURVE SMOOTH",
"442 232 OFFCURVE",
"396 308 OFFCURVE",
"396 486 CURVE SMOOTH",
"396 662 OFFCURVE",
"428 778 OFFCURVE",
"522 778 CURVE SMOOTH",
"582 778 OFFCURVE",
"664 728 OFFCURVE",
"742 664 CURVE",
"796 894 LINE",
"708 946 OFFCURVE",
"604 1020 OFFCURVE",
"464 1020 CURVE SMOOTH",
"240 1020 OFFCURVE",
"60 830 OFFCURVE",
"60 488 CURVE SMOOTH"
);
}
);
width = 1080;
}
);
leftKerningGroup = d;
unicode = 0064;
},
{
glyphname = e;
lastChange = "2021-07-09 03:44:18 +0000";
layers = (
{
anchors = (
{
name = bottom;
position = "{516, 0}";
},
{
name = ogonek;
position = "{667, 0}";
},
{
name = top;
position = "{510, 1084}";
}
);
layerId = UUID0;
paths = (
{
closed = 1;
nodes = (
"880 448 LINE",
"886 496 OFFCURVE",
"888 528 OFFCURVE",
"888 576 CURVE SMOOTH",
"888 812 OFFCURVE",
"760 1004 OFFCURVE",
"504 1004 CURVE SMOOTH",
"252 1004 OFFCURVE",
"106 788 OFFCURVE",
"106 492 CURVE SMOOTH",
"106 218 OFFCURVE",
"202 -24 OFFCURVE",
"498 -24 CURVE SMOOTH",
"634 -24 OFFCURVE",
"768 24 OFFCURVE",
"860 88 CURVE",
"856 118 OFFCURVE",
"834 162 OFFCURVE",
"808 186 CURVE",
"720 136 OFFCURVE",
"624 100 OFFCURVE",
"516 100 CURVE SMOOTH",
"318 100 OFFCURVE",
"254 258 OFFCURVE",
"254 480 CURVE SMOOTH",
"254 524 LINE SMOOTH",
"254 746 OFFCURVE",
"342 896 OFFCURVE",
"504 896 CURVE SMOOTH",
"678 896 OFFCURVE",
"746 754 OFFCURVE",
"746 584 CURVE SMOOTH",
"746 556 LINE",
"190 556 LINE",
"190 448 LINE"
);
}
);
width = 1006;
},
{
anchors = (
{
name = bottom;
position = "{519, 0}";
},
{
name = ogonek;
position = "{721, 0}";
},
{
name = top;
position = "{510, 1084}";
}
);
layerId = UUID1;
paths = (
{
closed = 1;
nodes = (
"900 394 LINE",
"920 462 OFFCURVE",
"928 514 OFFCURVE",
"928 606 CURVE SMOOTH",
"928 848 OFFCURVE",
"772 1030 OFFCURVE",
"508 1030 CURVE SMOOTH",
"184 1030 OFFCURVE",
"56 794 OFFCURVE",
"56 492 CURVE SMOOTH",
"56 228 OFFCURVE",
"150 -30 OFFCURVE",
"506 -30 CURVE SMOOTH",
"648 -30 OFFCURVE",
"800 10 OFFCURVE",
"902 84 CURVE",
"892 148 OFFCURVE",
"864 228 OFFCURVE",
"816 276 CURVE",
"736 244 OFFCURVE",
"648 218 OFFCURVE",
"560 218 CURVE SMOOTH",
"402 218 OFFCURVE",
"384 336 OFFCURVE",
"384 466 CURVE SMOOTH",
"384 564 LINE SMOOTH",
"384 726 OFFCURVE",
"414 798 OFFCURVE",
"506 798 CURVE SMOOTH",
"594 798 OFFCURVE",
"628 726 OFFCURVE",
"628 640 CURVE SMOOTH",
"628 618 LINE",
"266 618 LINE",
"266 394 LINE"
);
}
);
width = 992;
}
);
leftKerningGroup = c;
rightKerningGroup = e;
unicode = 0065;
},
{
glyphname = f;
lastChange = "2021-07-09 03:44:18 +0000";
layers = (
{
anchors = (
{
name = top;
position = "{441, 1530}";
}
);
layerId = UUID0;
paths = (
{
closed = 1;
nodes = (
"46 982 LINE",
"42 962 OFFCURVE",
"40 948 OFFCURVE",
"40 928 CURVE SMOOTH",
"40 908 OFFCURVE",
"42 892 OFFCURVE",
"46 874 CURVE",
"284 878 LINE",
"640 874 LINE",
"644 892 OFFCURVE",
"646 908 OFFCURVE",
"646 928 CURVE SMOOTH",
"646 948 OFFCURVE",
"644 962 OFFCURVE",
"640 982 CURVE",
"282 978 LINE"
);
},
{
closed = 1;
nodes = (
"218 0 LINE",
"238 -4 OFFCURVE",
"264 -6 OFFCURVE",
"286 -6 CURVE SMOOTH",
"308 -6 OFFCURVE",
"334 -4 OFFCURVE",
"354 0 CURVE",
"354 914 LINE",
"340 1014 OFFCURVE",
"328 1102 OFFCURVE",
"328 1184 CURVE SMOOTH",
"328 1304 OFFCURVE",
"388 1372 OFFCURVE",
"486 1372 CURVE SMOOTH",
"544 1372 OFFCURVE",
"610 1358 OFFCURVE",
"670 1340 CURVE",
"692 1364 OFFCURVE",
"704 1402 OFFCURVE",
"704 1436 CURVE",
"648 1458 OFFCURVE",
"550 1478 OFFCURVE",
"482 1478 CURVE SMOOTH",
"294 1478 OFFCURVE",
"198 1352 OFFCURVE",
"198 1190 CURVE SMOOTH",
"198 1114 OFFCURVE",
"210 1018 OFFCURVE",
"218 918 CURVE"
);
}
);
width = 636;
},
{
anchors = (
{
name = top;
position = "{470, 1520}";
}
);
layerId = UUID1;
paths = (
{
closed = 1;
nodes = (
"0 1002 LINE",
"-8 966 OFFCURVE",
"-12 924 OFFCURVE",
"-12 888 CURVE SMOOTH",
"-12 852 OFFCURVE",
"-8 806 OFFCURVE",
"0 770 CURVE",
"328 776 LINE",
"728 770 LINE",
"736 806 OFFCURVE",
"740 852 OFFCURVE",
"740 888 CURVE SMOOTH",
"740 924 OFFCURVE",
"736 966 OFFCURVE",
"728 1002 CURVE",
"332 998 LINE"
);
},
{
closed = 1;
nodes = (
"172 0 LINE",
"222 -8 OFFCURVE",
"278 -12 OFFCURVE",
"330 -12 CURVE SMOOTH",
"384 -12 OFFCURVE",
"442 -8 OFFCURVE",
"492 0 CURVE",
"492 862 LINE",
"482 934 OFFCURVE",
"460 1028 OFFCURVE",
"460 1102 CURVE SMOOTH",
"460 1190 OFFCURVE",
"508 1234 OFFCURVE",
"592 1234 CURVE SMOOTH",
"646 1234 OFFCURVE",
"706 1218 OFFCURVE",
"744 1208 CURVE",
"786 1252 OFFCURVE",
"816 1350 OFFCURVE",
"814 1424 CURVE",
"744 1450 OFFCURVE",
"630 1480 OFFCURVE",
"500 1480 CURVE SMOOTH",
"290 1480 OFFCURVE",
"146 1328 OFFCURVE",
"146 1126 CURVE SMOOTH",
"146 1034 OFFCURVE",
"164 950 OFFCURVE",
"172 864 CURVE"
);
}
);
width = 722;
}
);
leftKerningGroup = f;
unicode = 0066;
},
{
glyphname = g;
lastChange = "2021-07-09 03:44:18 +0000";
layers = (
{
anchors = (
{
name = bottom;
position = "{510, -418}";
},
{
name = top;
position = "{524, 1084}";
}
);
layerId = UUID0;
paths = (
{
closed = 1;
nodes = (
"914 948 OFFCURVE",
"888 980 OFFCURVE",
"858 994 CURVE",
"756 954 OFFCURVE",
"736 858 OFFCURVE",
"736 754 CURVE",
"736 0 LINE SMOOTH",
"736 -172 OFFCURVE",
"702 -326 OFFCURVE",
"462 -326 CURVE SMOOTH",
"390 -326 OFFCURVE",
"270 -302 OFFCURVE",
"188 -262 CURVE",
"166 -288 OFFCURVE",
"150 -334 OFFCURVE",
"148 -372 CURVE",
"232 -408 OFFCURVE",
"354 -440 OFFCURVE",
"476 -440 CURVE SMOOTH",
"620 -440 OFFCURVE",
"724 -382 OFFCURVE",
"778 -316 CURVE SMOOTH",
"842 -238 OFFCURVE",
"868 -128 OFFCURVE",
"868 70 CURVE SMOOTH",
"868 704 LINE SMOOTH",
"868 790 OFFCURVE",
"874 874 OFFCURVE",
"924 922 CURVE"
);
},
{
closed = 1;
nodes = (
"104 184 OFFCURVE",
"220 -16 OFFCURVE",
"444 -16 CURVE SMOOTH",
"614 -16 OFFCURVE",
"740 108 OFFCURVE",
"788 184 CURVE",
"766 306 LINE",
"708 198 OFFCURVE",
"586 106 OFFCURVE",
"462 106 CURVE SMOOTH",
"344 106 OFFCURVE",
"244 216 OFFCURVE",
"244 488 CURVE SMOOTH",
"244 768 OFFCURVE",
"362 882 OFFCURVE",
"492 882 CURVE SMOOTH",
"610 882 OFFCURVE",
"730 806 OFFCURVE",
"796 720 CURVE",
"810 846 LINE",
"732 928 OFFCURVE",
"636 1004 OFFCURVE",
"474 1004 CURVE SMOOTH",
"304 1004 OFFCURVE",
"104 850 OFFCURVE",
"104 488 CURVE SMOOTH"
);
}
);
width = 1046;
},
{
anchors = (
{
name = bottom;
position = "{528, -418}";
},
{
name = top;
position = "{553, 1084}";
}
);
layerId = UUID1;
paths = (
{
closed = 1;
nodes = (
"1012 906 OFFCURVE",
"962 984 OFFCURVE",
"922 1016 CURVE",
"740 1016 OFFCURVE",
"644 882 OFFCURVE",
"644 710 CURVE",
"644 -8 LINE SMOOTH",
"644 -126 OFFCURVE",
"586 -200 OFFCURVE",
"448 -200 CURVE SMOOTH",
"358 -200 OFFCURVE",
"264 -178 OFFCURVE",
"178 -140 CURVE",
"132 -194 OFFCURVE",
"98 -300 OFFCURVE",
"98 -376 CURVE",
"204 -416 OFFCURVE",
"352 -442 OFFCURVE",
"478 -442 CURVE SMOOTH",
"640 -442 OFFCURVE",
"778 -398 OFFCURVE",
"860 -294 CURVE SMOOTH",
"922 -214 OFFCURVE",
"964 -96 OFFCURVE",
"964 192 CURVE SMOOTH",
"964 710 LINE SMOOTH",
"964 772 OFFCURVE",
"988 826 OFFCURVE",
"1020 848 CURVE"
);
},
{
closed = 1;
nodes = (
"60 194 OFFCURVE",
"176 -20 OFFCURVE",
"422 -20 CURVE SMOOTH",
"560 -20 OFFCURVE",
"690 60 OFFCURVE",
"758 176 CURVE",
"712 402 LINE",
"660 294 OFFCURVE",
"582 242 OFFCURVE",
"506 242 CURVE SMOOTH",
"442 242 OFFCURVE",
"396 318 OFFCURVE",
"396 496 CURVE SMOOTH",
"396 674 OFFCURVE",
"428 788 OFFCURVE",
"522 788 CURVE SMOOTH",
"590 788 OFFCURVE",
"684 710 OFFCURVE",
"762 560 CURVE",
"816 826 LINE",
"768 914 OFFCURVE",
"662 1030 OFFCURVE",
"464 1030 CURVE SMOOTH",
"242 1030 OFFCURVE",
"60 840 OFFCURVE",
"60 498 CURVE SMOOTH"
);
}
);
width = 1074;
}
);
leftKerningGroup = d;
unicode = 0067;
},
{
glyphname = h;
lastChange = "2021-07-09 03:44:18 +0000";
layers = (
{
anchors = (
{
name = bottom;
position = "{552, 0}";
},
{
name = top;
position = "{550, 1520}";
}
);
layerId = UUID0;
paths = (
{
closed = 1;
nodes = (
"316 1374 LINE SMOOTH",
"316 1436 OFFCURVE",
"306 1470 OFFCURVE",
"242 1470 CURVE SMOOTH",
"192 1470 LINE",
"180 1458 LINE",
"180 0 LINE",
"198 -4 OFFCURVE",
"220 -6 OFFCURVE",
"248 -6 CURVE SMOOTH",
"274 -6 OFFCURVE",
"298 -4 OFFCURVE",
"316 0 CURVE"
);
},
{
closed = 1;
nodes = (
"920 686 LINE SMOOTH",
"920 854 OFFCURVE",
"854 996 OFFCURVE",
"664 996 CURVE SMOOTH",
"518 996 OFFCURVE",
"364 918 OFFCURVE",
"278 808 CURVE",
"278 658 LINE",
"344 774 OFFCURVE",
"506 870 OFFCURVE",
"632 870 CURVE SMOOTH",
"750 870 OFFCURVE",
"782 802 OFFCURVE",
"782 640 CURVE SMOOTH",
"782 80 LINE SMOOTH",
"782 18 OFFCURVE",
"802 -12 OFFCURVE",
"854 -12 CURVE SMOOTH",
"886 -12 OFFCURVE",
"922 0 OFFCURVE",
"942 18 CURVE",
"924 62 OFFCURVE",
"920 122 OFFCURVE",
"920 186 CURVE SMOOTH"
);
}
);
width = 1088;
},
{
anchors = (
{
name = bottom;
position = "{564, 0}";
},
{
name = top;
position = "{545, 1520}";
}
);
layerId = UUID1;
paths = (
{
closed = 1;
nodes = (
"434 1276 LINE SMOOTH",
"434 1422 OFFCURVE",
"384 1472 OFFCURVE",
"256 1472 CURVE SMOOTH",
"128 1472 LINE",
"114 1458 LINE",
"114 0 LINE",
"164 -8 OFFCURVE",
"220 -12 OFFCURVE",
"272 -12 CURVE SMOOTH",
"330 -12 OFFCURVE",
"388 -8 OFFCURVE",
"434 0 CURVE"
);
},
{
closed = 1;
nodes = (
"976 658 LINE SMOOTH",
"976 870 OFFCURVE",
"876 1018 OFFCURVE",
"694 1018 CURVE SMOOTH",
"552 1018 OFFCURVE",
"450 930 OFFCURVE",
"356 840 CURVE",
"356 556 LINE",
"416 682 OFFCURVE",
"512 724 OFFCURVE",
"568 724 CURVE SMOOTH",
"630 724 OFFCURVE",
"648 684 OFFCURVE",
"648 600 CURVE SMOOTH",
"648 186 LINE SMOOTH",
"648 56 OFFCURVE",
"692 -16 OFFCURVE",
"824 -16 CURVE SMOOTH",
"906 -16 OFFCURVE",
"980 14 OFFCURVE",
"1028 54 CURVE",
"990 106 OFFCURVE",
"976 176 OFFCURVE",
"976 256 CURVE SMOOTH"
);
}
);
width = 1086;
}
);
leftKerningGroup = h;
rightKerningGroup = h;
unicode = 0068;
},
{
glyphname = k;
lastChange = "2021-07-09 03:44:18 +0000";
layers = (
{
anchors = (
{
name = bottom;
position = "{530, 0}";
},
{
name = top;
position = "{530, 1084}";
}
);
layerId = UUID0;
paths = (
{
closed = 1;
nodes = (
"316 1374 LINE SMOOTH",
"316 1436 OFFCURVE",
"306 1470 OFFCURVE",
"242 1470 CURVE SMOOTH",
"192 1470 LINE",
"180 1458 LINE",
"180 0 LINE",
"198 -4 OFFCURVE",
"220 -6 OFFCURVE",
"248 -6 CURVE SMOOTH",
"274 -6 OFFCURVE",
"298 -4 OFFCURVE",
"316 0 CURVE"
);
},
{
closed = 1;
nodes = (
"754 356 LINE SMOOTH",
"692 492 OFFCURVE",
"628 546 OFFCURVE",
"484 546 CURVE SMOOTH",
"246 546 LINE",
"246 438 LINE",
"312 444 LINE SMOOTH",
"360 448 OFFCURVE",
"400 450 OFFCURVE",
"426 450 CURVE SMOOTH",
"542 450 OFFCURVE",
"580 416 OFFCURVE",
"632 300 CURVE SMOOTH",
"726 90 LINE SMOOTH",
"754 28 OFFCURVE",
"774 -12 OFFCURVE",
"838 -12 CURVE SMOOTH",
"874 -12 OFFCURVE",
"914 8 OFFCURVE",
"930 30 CURVE",
"896 54 OFFCURVE",
"864 110 OFFCURVE",
"834 178 CURVE SMOOTH"
);
},
{
closed = 1;
nodes = (
"860 968 LINE",
"848 984 LINE",
"822 986 OFFCURVE",
"806 986 OFFCURVE",
"780 986 CURVE SMOOTH",
"720 986 OFFCURVE",
"700 960 OFFCURVE",
"670 916 CURVE SMOOTH",
"450 592 LINE SMOOTH",
"438 576 OFFCURVE",
"424 566 OFFCURVE",
"406 566 CURVE SMOOTH",
"256 558 LINE",
"256 494 LINE",
"418 494 LINE SMOOTH",
"494 494 OFFCURVE",
"550 518 OFFCURVE",
"600 592 CURVE SMOOTH"
);
}
);
width = 976;
},
{
anchors = (
{
name = bottom;
position = "{568, 0}";
},
{
name = top;
position = "{568, 1084}";
}
);
layerId = UUID1;
paths = (
{
closed = 1;
nodes = (
"434 1276 LINE SMOOTH",
"434 1422 OFFCURVE",
"384 1472 OFFCURVE",
"256 1472 CURVE SMOOTH",
"128 1472 LINE",
"114 1458 LINE",
"114 0 LINE",
"162 -8 OFFCURVE",
"218 -12 OFFCURVE",
"272 -12 CURVE SMOOTH",
"328 -12 OFFCURVE",
"388 -8 OFFCURVE",
"434 0 CURVE"
);
},
{
closed = 1;
nodes = (
"898 402 LINE SMOOTH",
"852 540 OFFCURVE",
"734 598 OFFCURVE",
"588 598 CURVE SMOOTH",
"268 598 LINE",
"268 374 LINE",
"350 384 LINE SMOOTH",
"394 390 OFFCURVE",
"432 396 OFFCURVE",
"492 396 CURVE SMOOTH",
"542 396 OFFCURVE",
"574 378 OFFCURVE",
"600 296 CURVE SMOOTH",
"656 126 LINE SMOOTH",
"690 22 OFFCURVE",
"728 -16 OFFCURVE",
"820 -16 CURVE SMOOTH",
"904 -16 OFFCURVE",
"988 28 OFFCURVE",
"1040 86 CURVE",
"998 116 OFFCURVE",
"977 152 OFFCURVE",
"944 258 CURVE SMOOTH"
);
},
{
closed = 1;
nodes = (
"988 988 LINE",
"976 1004 LINE",
"916 1006 OFFCURVE",
"862 1008 OFFCURVE",
"792 1008 CURVE SMOOTH",
"706 1008 OFFCURVE",
"650 968 OFFCURVE",
"612 890 CURVE SMOOTH",
"518 700 LINE SMOOTH",
"502 670 OFFCURVE",
"490 664 OFFCURVE",
"460 664 CURVE SMOOTH",
"308 662 LINE",
"308 512 LINE",
"482 512 LINE SMOOTH",
"664 512 OFFCURVE",
"782 574 OFFCURVE",
"844 696 CURVE SMOOTH"
);
}
);
width = 1052;
}
);
leftKerningGroup = h;
rightKerningGroup = k;
unicode = 006B;
},
{
glyphname = l;
lastChange = "2021-07-09 03:44:18 +0000";
layers = (
{
anchors = (
{
name = bottom;
position = "{328, 0}";
},
{
name = periodcentered;
position = "{562, 786}";
},
{
name = top;
position = "{238, 1564}";
},
{
name = topright;
position = "{312, 980}";
}
);
layerId = UUID0;
paths = (
{
closed = 1;
nodes = (
"386 108 LINE",
"338 108 OFFCURVE",
"312 136 OFFCURVE",
"312 192 CURVE SMOOTH",
"312 1374 LINE SMOOTH",
"312 1436 OFFCURVE",
"302 1470 OFFCURVE",
"238 1470 CURVE SMOOTH",
"188 1470 LINE",
"176 1458 LINE",
"176 152 LINE SMOOTH",
"176 48 OFFCURVE",
"244 -8 OFFCURVE",
"340 -8 CURVE SMOOTH",
"380 -8 OFFCURVE",
"444 -2 OFFCURVE",
"482 4 CURVE",
"484 12 OFFCURVE",
"484 22 OFFCURVE",
"484 32 CURVE SMOOTH",
"484 60 OFFCURVE",
"480 88 OFFCURVE",
"472 108 CURVE"
);
}
);
width = 562;
},
{
anchors = (
{
name = bottom;
position = "{360, 0}";
},
{
name = periodcentered;
position = "{632, 786}";
},
{
name = top;
position = "{264, 1542}";
},
{
name = topright;
position = "{432, 1000}";
}
);
layerId = UUID1;
paths = (
{
closed = 1;
nodes = (
"520 238 LINE",
"456 238 OFFCURVE",
"432 272 OFFCURVE",
"432 334 CURVE SMOOTH",
"432 1276 LINE SMOOTH",
"432 1422 OFFCURVE",
"382 1472 OFFCURVE",
"254 1472 CURVE SMOOTH",
"126 1472 LINE",
"112 1458 LINE",
"112 278 LINE SMOOTH",
"112 80 OFFCURVE",
"180 -10 OFFCURVE",
"368 -10 CURVE SMOOTH",
"448 -10 OFFCURVE",
"528 0 OFFCURVE",
"590 10 CURVE",
"596 32 OFFCURVE",
"598 60 OFFCURVE",
"598 84 CURVE SMOOTH",
"598 136 OFFCURVE",
"588 192 OFFCURVE",
"572 238 CURVE"
);
}
);
width = 632;
}
);
leftKerningGroup = l;
rightKerningGroup = l;
unicode = 006C;
},
{
glyphname = m;
lastChange = "2021-07-09 03:44:18 +0000";
layers = (
{
anchors = (
{
name = bottom;
position = "{796, 0}";
},
{
name = top;
position = "{790, 1084}";
}
);
layerId = UUID0;
paths = (
{
closed = 1;
nodes = (
"192 986 LINE",
"180 972 LINE",
"180 0 LINE",
"198 -4 OFFCURVE",
"222 -6 OFFCURVE",
"250 -6 CURVE SMOOTH",
"276 -6 OFFCURVE",
"300 -4 OFFCURVE",
"318 0 CURVE",
"318 890 LINE SMOOTH",
"318 952 OFFCURVE",
"308 986 OFFCURVE",
"244 986 CURVE SMOOTH"
);
},
{
closed = 1;
nodes = (
"726 0 LINE",
"744 -4 OFFCURVE",
"768 -6 OFFCURVE",
"796 -6 CURVE SMOOTH",
"822 -6 OFFCURVE",
"846 -4 OFFCURVE",
"864 0 CURVE",
"864 690 LINE SMOOTH",
"864 858 OFFCURVE",
"788 998 OFFCURVE",
"614 998 CURVE SMOOTH",
"486 998 OFFCURVE",
"350 918 OFFCURVE",
"268 784 CURVE",
"268 626 LINE",
"334 776 OFFCURVE",
"480 872 OFFCURVE",
"588 872 CURVE SMOOTH",
"690 872 OFFCURVE",
"726 804 OFFCURVE",
"726 642 CURVE SMOOTH"
);
},
{
closed = 1;
nodes = (
"1274 80 LINE SMOOTH",
"1274 18 OFFCURVE",
"1294 -12 OFFCURVE",
"1346 -12 CURVE SMOOTH",
"1378 -12 OFFCURVE",
"1414 0 OFFCURVE",
"1434 18 CURVE",
"1416 62 OFFCURVE",
"1412 122 OFFCURVE",
"1412 186 CURVE SMOOTH",
"1412 690 LINE SMOOTH",
"1412 858 OFFCURVE",
"1336 998 OFFCURVE",
"1162 998 CURVE SMOOTH",
"1034 998 OFFCURVE",
"914 926 OFFCURVE",
"810 818 CURVE",
"810 626 LINE",
"888 786 OFFCURVE",
"1030 872 OFFCURVE",
"1136 872 CURVE SMOOTH",
"1238 872 OFFCURVE",
"1274 806 OFFCURVE",
"1274 644 CURVE"
);
}
);
width = 1580;
},
{
anchors = (
{
name = bottom;
position = "{812, 0}";
},
{
name = top;
position = "{794, 1084}";
}
);
layerId = UUID1;
paths = (
{
closed = 1;
nodes = (
"128 1014 LINE",
"114 1000 LINE",
"114 0 LINE",
"162 -8 OFFCURVE",
"224 -12 OFFCURVE",
"278 -12 CURVE SMOOTH",
"334 -12 OFFCURVE",
"396 -8 OFFCURVE",
"442 0 CURVE",
"442 776 LINE SMOOTH",
"442 922 OFFCURVE",
"374 1014 OFFCURVE",
"250 1014 CURVE SMOOTH"
);
},
{
closed = 1;
nodes = (
"648 0 LINE",
"696 -8 OFFCURVE",
"758 -12 OFFCURVE",
"812 -12 CURVE SMOOTH",
"868 -12 OFFCURVE",
"930 -8 OFFCURVE",
"976 0 CURVE",
"976 702 LINE SMOOTH",
"976 886 OFFCURVE",
"874 1018 OFFCURVE",
"700 1018 CURVE SMOOTH",
"554 1018 OFFCURVE",
"432 902 OFFCURVE",
"336 798 CURVE",
"336 518 LINE",
"368 606 OFFCURVE",
"478 722 OFFCURVE",
"562 724 CURVE SMOOTH",
"600 724 OFFCURVE",
"648 700 OFFCURVE",
"648 598 CURVE"
);
},
{
closed = 1;
nodes = (
"1182 186 LINE SMOOTH",
"1182 56 OFFCURVE",
"1226 -16 OFFCURVE",
"1358 -16 CURVE SMOOTH",
"1440 -16 OFFCURVE",
"1514 14 OFFCURVE",
"1562 54 CURVE",
"1524 106 OFFCURVE",
"1510 176 OFFCURVE",
"1510 256 CURVE SMOOTH",
"1510 698 LINE SMOOTH",
"1510 882 OFFCURVE",
"1418 1018 OFFCURVE",
"1242 1018 CURVE SMOOTH",
"1100 1018 OFFCURVE",
"950 912 OFFCURVE",
"862 804 CURVE",
"862 506 LINE",
"906 604 OFFCURVE",
"1016 724 OFFCURVE",
"1092 724 CURVE SMOOTH",
"1130 724 OFFCURVE",
"1182 702 OFFCURVE",
"1182 600 CURVE"
);
}
);
width = 1620;
}
);
leftKerningGroup = m;
rightKerningGroup = h;
unicode = 006D;
},
{
glyphname = n;
lastChange = "2021-07-09 03:44:18 +0000";
layers = (
{
anchors = (
{
name = bottom;
position = "{552, 0}";
},
{
name = top;
position = "{554, 1084}";
}
);
layerId = UUID0;
paths = (
{
closed = 1;
nodes = (
"192 986 LINE",
"180 974 LINE",
"180 0 LINE",
"198 -4 OFFCURVE",
"222 -6 OFFCURVE",
"250 -6 CURVE SMOOTH",
"276 -6 OFFCURVE",
"300 -4 OFFCURVE",
"318 0 CURVE",
"318 890 LINE SMOOTH",
"318 952 OFFCURVE",
"308 986 OFFCURVE",
"244 986 CURVE SMOOTH"
);
},
{
closed = 1;
nodes = (
"922 688 LINE SMOOTH",
"922 856 OFFCURVE",
"856 998 OFFCURVE",
"666 998 CURVE SMOOTH",
"520 998 OFFCURVE",
"366 920 OFFCURVE",
"280 810 CURVE",
"280 660 LINE",
"346 776 OFFCURVE",
"508 872 OFFCURVE",
"634 872 CURVE SMOOTH",
"752 872 OFFCURVE",
"784 804 OFFCURVE",
"784 642 CURVE SMOOTH",
"784 80 LINE SMOOTH",
"784 18 OFFCURVE",
"804 -12 OFFCURVE",
"856 -12 CURVE SMOOTH",
"888 -12 OFFCURVE",
"924 0 OFFCURVE",
"944 18 CURVE",
"926 62 OFFCURVE",
"922 122 OFFCURVE",
"922 186 CURVE SMOOTH"
);
}
);
width = 1090;
},
{
anchors = (
{
name = bottom;
position = "{564, 0}";
},
{
name = top;
position = "{562, 1084}";
}
);
layerId = UUID1;
paths = (
{
closed = 1;
nodes = (
"128 1014 LINE",
"114 1000 LINE",
"114 0 LINE",
"162 -8 OFFCURVE",
"224 -12 OFFCURVE",
"278 -12 CURVE SMOOTH",
"334 -12 OFFCURVE",
"396 -8 OFFCURVE",
"442 0 CURVE",
"442 776 LINE SMOOTH",
"442 922 OFFCURVE",
"376 1014 OFFCURVE",
"252 1014 CURVE SMOOTH"
);
},
{
closed = 1;
nodes = (
"984 658 LINE",
"984 870 OFFCURVE",
"884 1018 OFFCURVE",
"702 1018 CURVE SMOOTH",
"560 1018 OFFCURVE",
"458 930 OFFCURVE",
"364 840 CURVE",
"364 556 LINE",
"424 682 OFFCURVE",
"520 724 OFFCURVE",
"576 724 CURVE SMOOTH",
"638 724 OFFCURVE",
"656 684 OFFCURVE",
"656 600 CURVE SMOOTH",
"656 186 LINE SMOOTH",
"656 56 OFFCURVE",
"700 -16 OFFCURVE",
"832 -16 CURVE SMOOTH",
"914 -16 OFFCURVE",
"988 14 OFFCURVE",
"1036 54 CURVE",
"998 106 OFFCURVE",
"984 176 OFFCURVE",
"984 256 CURVE SMOOTH"
);
}
);
width = 1094;
}
);
leftKerningGroup = m;
rightKerningGroup = h;
unicode = 006E;
},
{
glyphname = o;
lastChange = "2021-07-09 03:44:18 +0000";
layers = (
{
anchors = (
{
name = bottom;
position = "{518, 0}";
},
{
name = ogonek;
position = "{662, 0}";
},
{
name = top;
position = "{518, 1084}";
},
{
name = topright;
position = "{773, 960}";
}
);
layerId = UUID0;
paths = (
{
closed = 1;
nodes = (
"932 784 OFFCURVE",
"793 1004 OFFCURVE",
"518 1004 CURVE SMOOTH",
"247 1004 OFFCURVE",
"106 785 OFFCURVE",
"106 490 CURVE SMOOTH",
"106 197 OFFCURVE",
"244 -24 OFFCURVE",
"518 -24 CURVE SMOOTH",
"791 -24 OFFCURVE",
"932 193 OFFCURVE",
"932 490 CURVE SMOOTH"
);
},
{
closed = 1;
nodes = (
"250 688 OFFCURVE",
"316 896 OFFCURVE",
"520 896 CURVE SMOOTH",
"722 896 OFFCURVE",
"788 688 OFFCURVE",
"788 490 CURVE SMOOTH",
"788 290 OFFCURVE",
"722 86 OFFCURVE",
"520 86 CURVE SMOOTH",
"316 86 OFFCURVE",
"250 290 OFFCURVE",
"250 490 CURVE SMOOTH"
);
}
);
width = 1038;
},
{
anchors = (
{
name = bottom;
position = "{522, 0}";
},
{
name = ogonek;
position = "{704, 0}";
},
{
name = top;
position = "{522, 1084}";
},
{
name = topright;
position = "{870, 970}";
}
);
layerId = UUID1;
paths = (
{
closed = 1;
nodes = (
"988 821 OFFCURVE",
"829 1030 OFFCURVE",
"522 1030 CURVE SMOOTH",
"218 1030 OFFCURVE",
"56 823 OFFCURVE",
"56 500 CURVE SMOOTH",
"56 179 OFFCURVE",
"215 -30 OFFCURVE",
"522 -30 CURVE SMOOTH",
"826 -30 OFFCURVE",
"988 177 OFFCURVE",
"988 500 CURVE SMOOTH"
);
},
{
closed = 1;
nodes = (
"392 662 OFFCURVE",
"406 786 OFFCURVE",
"522 786 CURVE SMOOTH",
"638 786 OFFCURVE",
"652 662 OFFCURVE",
"652 500 CURVE SMOOTH",
"652 338 OFFCURVE",
"638 214 OFFCURVE",
"522 214 CURVE SMOOTH",
"406 214 OFFCURVE",
"392 338 OFFCURVE",
"392 500 CURVE SMOOTH"
);
}
);
width = 1044;
}
);
leftKerningGroup = c;
rightKerningGroup = o;
unicode = 006F;
},
{
glyphname = p;
lastChange = "2021-07-09 03:44:18 +0000";
layers = (
{
anchors = (
{
name = top;
position = "{524, 1084}";
}
);
layerId = UUID0;
paths = (
{
closed = 1;
nodes = (
"192 986 LINE",
"180 974 LINE",
"180 -418 LINE",
"192 -430 LINE",
"242 -430 LINE SMOOTH",
"306 -430 OFFCURVE",
"316 -396 OFFCURVE",
"316 -334 CURVE SMOOTH",
"316 890 LINE SMOOTH",
"316 952 OFFCURVE",
"306 986 OFFCURVE",
"242 986 CURVE SMOOTH"
);
},
{
closed = 1;
nodes = (
"946 800 OFFCURVE",
"830 1004 OFFCURVE",
"612 1004 CURVE SMOOTH",
"430 1004 OFFCURVE",
"296 876 OFFCURVE",
"246 758 CURVE",
"270 620 LINE",
"320 780 OFFCURVE",
"462 882 OFFCURVE",
"586 882 CURVE SMOOTH",
"700 882 OFFCURVE",
"806 774 OFFCURVE",
"806 502 CURVE SMOOTH",
"806 220 OFFCURVE",
"684 106 OFFCURVE",
"562 106 CURVE SMOOTH",
"440 106 OFFCURVE",
"334 184 OFFCURVE",
"258 242 CURVE",
"252 116 LINE",
"348 40 OFFCURVE",
"454 -16 OFFCURVE",
"574 -16 CURVE SMOOTH",
"746 -16 OFFCURVE",
"946 136 OFFCURVE",
"946 502 CURVE SMOOTH"
);
}
);
width = 1050;
},
{
anchors = (
{
name = top;
position = "{524, 1084}";
}
);
layerId = UUID1;
paths = (
{
closed = 1;
nodes = (
"128 1014 LINE",
"114 1000 LINE",
"114 -418 LINE",
"128 -432 LINE",
"256 -432 LINE SMOOTH",
"384 -432 OFFCURVE",
"436 -382 OFFCURVE",
"436 -236 CURVE SMOOTH",
"436 736 LINE SMOOTH",
"436 908 OFFCURVE",
"346 1014 OFFCURVE",
"214 1014 CURVE SMOOTH"
);
},
{
closed = 1;
nodes = (
"1018 816 OFFCURVE",
"902 1030 OFFCURVE",
"656 1030 CURVE SMOOTH",
"458 1030 OFFCURVE",
"296 862 OFFCURVE",
"280 696 CURVE",
"354 516 LINE",
"408 732 OFFCURVE",
"512 768 OFFCURVE",
"570 768 CURVE SMOOTH",
"636 768 OFFCURVE",
"682 692 OFFCURVE",
"682 514 CURVE SMOOTH",
"682 338 OFFCURVE",
"650 222 OFFCURVE",
"556 222 CURVE SMOOTH",
"496 222 OFFCURVE",
"414 272 OFFCURVE",
"336 336 CURVE",
"282 106 LINE",
"370 54 OFFCURVE",
"474 -20 OFFCURVE",
"614 -20 CURVE SMOOTH",
"838 -20 OFFCURVE",
"1018 170 OFFCURVE",
"1018 512 CURVE SMOOTH"
);
}
);
width = 1078;
}
);
leftKerningGroup = m;
rightKerningGroup = p;
unicode = 0070;
},
{
glyphname = q;
lastChange = "2021-07-09 03:44:18 +0000";
layers = (
{
layerId = UUID0;
paths = (
{
closed = 1;
nodes = (
"104 184 OFFCURVE",
"220 -16 OFFCURVE",
"444 -16 CURVE SMOOTH",
"614 -16 OFFCURVE",
"740 104 OFFCURVE",
"788 180 CURVE",
"766 306 LINE",
"708 198 OFFCURVE",
"586 106 OFFCURVE",
"462 106 CURVE SMOOTH",
"348 106 OFFCURVE",
"244 216 OFFCURVE",
"244 488 CURVE SMOOTH",
"244 768 OFFCURVE",
"366 882 OFFCURVE",
"492 882 CURVE SMOOTH",
"610 882 OFFCURVE",
"730 806 OFFCURVE",
"796 720 CURVE",
"810 850 LINE",
"732 932 OFFCURVE",
"636 1004 OFFCURVE",
"474 1004 CURVE SMOOTH",
"304 1004 OFFCURVE",
"104 850 OFFCURVE",
"104 488 CURVE SMOOTH"
);
},
{
closed = 1;
nodes = (
"732 -334 LINE SMOOTH",
"732 -396 OFFCURVE",
"742 -430 OFFCURVE",
"806 -430 CURVE SMOOTH",
"856 -430 LINE",
"868 -418 LINE",
"868 704 LINE SMOOTH",
"868 790 OFFCURVE",
"874 874 OFFCURVE",
"924 922 CURVE",
"914 948 OFFCURVE",
"888 980 OFFCURVE",
"858 994 CURVE",
"756 954 OFFCURVE",
"732 858 OFFCURVE",
"732 754 CURVE SMOOTH"
);
}
);
width = 1046;
},
{
layerId = UUID1;
paths = (
{
closed = 1;
nodes = (
"60 194 OFFCURVE",
"176 -20 OFFCURVE",
"422 -20 CURVE SMOOTH",
"560 -20 OFFCURVE",
"690 60 OFFCURVE",
"758 176 CURVE",
"712 402 LINE",
"660 294 OFFCURVE",
"582 242 OFFCURVE",
"506 242 CURVE SMOOTH",
"442 242 OFFCURVE",
"396 318 OFFCURVE",
"396 496 CURVE SMOOTH",
"396 674 OFFCURVE",
"428 788 OFFCURVE",
"522 788 CURVE SMOOTH",
"590 788 OFFCURVE",
"684 710 OFFCURVE",
"762 560 CURVE",
"816 826 LINE",
"768 914 OFFCURVE",
"662 1030 OFFCURVE",
"464 1030 CURVE SMOOTH",
"242 1030 OFFCURVE",
"60 840 OFFCURVE",
"60 498 CURVE SMOOTH"
);
},
{
closed = 1;
nodes = (
"642 -236 LINE SMOOTH",
"642 -382 OFFCURVE",
"692 -432 OFFCURVE",
"820 -432 CURVE SMOOTH",
"948 -432 LINE",
"962 -418 LINE",
"962 710 LINE SMOOTH",
"962 772 OFFCURVE",
"986 826 OFFCURVE",
"1018 848 CURVE",
"1006 906 OFFCURVE",
"960 984 OFFCURVE",
"920 1016 CURVE",
"738 1016 OFFCURVE",
"642 882 OFFCURVE",
"642 710 CURVE SMOOTH"
);
}
);
width = 1080;
}
);
leftKerningGroup = d;
unicode = 0071;
},
{
glyphname = r;
lastChange = "2021-07-09 03:44:18 +0000";
layers = (
{
anchors = (
{
name = bottom;
position = "{268, 0}";
},
{
name = top;
position = "{394, 1084}";
}
);
layerId = UUID0;
paths = (
{
closed = 1;
nodes = (
"646 992 OFFCURVE",
"614 994 OFFCURVE",
"594 994 CURVE SMOOTH",
"370 994 OFFCURVE",
"280 778 OFFCURVE",
"280 610 CURVE",
"306 578 LINE",
"330 676 OFFCURVE",
"402 856 OFFCURVE",
"584 856 CURVE",
"606 856 OFFCURVE",
"630 856 OFFCURVE",
"652 854 CURVE",
"676 890 OFFCURVE",
"684 942 OFFCURVE",
"684 986 CURVE"
);
},
{
closed = 1;
nodes = (
"162 880 OFFCURVE",
"198 810 OFFCURVE",
"198 712 CURVE SMOOTH",
"198 0 LINE",
"216 -4 OFFCURVE",
"240 -6 OFFCURVE",
"268 -6 CURVE SMOOTH",
"294 -6 OFFCURVE",
"318 -4 OFFCURVE",
"336 0 CURVE",
"336 726 LINE",
"332 858 OFFCURVE",
"288 956 OFFCURVE",
"188 994 CURVE",
"160 978 OFFCURVE",
"134 942 OFFCURVE",
"126 916 CURVE"
);
}
);
width = 700;
},
{
anchors = (
{
name = bottom;
position = "{294, 0}";
},
{
name = top;
position = "{420, 1084}";
}
);
layerId = UUID1;
paths = (
{
closed = 1;
nodes = (
"762 1006 OFFCURVE",
"730 1014 OFFCURVE",
"666 1014 CURVE SMOOTH",
"430 1014 OFFCURVE",
"376 770 OFFCURVE",
"360 546 CURVE",
"396 498 LINE",
"456 642 OFFCURVE",
"514 712 OFFCURVE",
"614 712 CURVE",
"650 708 OFFCURVE",
"684 704 OFFCURVE",
"720 690 CURVE",
"774 782 OFFCURVE",
"802 920 OFFCURVE",
"802 996 CURVE"
);
},
{
closed = 1;
nodes = (
"86 826 OFFCURVE",
"130 760 OFFCURVE",
"130 640 CURVE SMOOTH",
"130 0 LINE",
"178 -8 OFFCURVE",
"240 -12 OFFCURVE",
"294 -12 CURVE SMOOTH",
"350 -12 OFFCURVE",
"412 -8 OFFCURVE",
"458 0 CURVE",
"458 664 LINE",
"438 870 OFFCURVE",
"344 1004 OFFCURVE",
"152 1016 CURVE",
"112 984 OFFCURVE",
"66 906 OFFCURVE",
"54 848 CURVE"
);
}
);
width = 802;
}
);
leftKerningGroup = r;
rightKerningGroup = r;
unicode = 0072;
},
{
glyphname = s;
lastChange = "2021-07-09 03:44:18 +0000";
layers = (
{
anchors = (
{
name = bottom;
position = "{426, 0}";
},
{
name = top;
position = "{431, 1084}";
}
);
layerId = UUID0;
paths = (
{
closed = 1;
nodes = (
"158 24 OFFCURVE",
"272 -24 OFFCURVE",
"412 -24 CURVE SMOOTH",
"624 -24 OFFCURVE",
"778 80 OFFCURVE",
"778 256 CURVE SMOOTH",
"778 400 OFFCURVE",
"680 489 OFFCURVE",
"532 544 CURVE SMOOTH",
"409 590 LINE SMOOTH",
"307 628 OFFCURVE",
"255 670 OFFCURVE",
"255 740 CURVE SMOOTH",
"255 832 OFFCURVE",
"331 890 OFFCURVE",
"439 890 CURVE SMOOTH",
"541 890 OFFCURVE",
"637 858 OFFCURVE",
"699 830 CURVE",
"727 858 OFFCURVE",
"743 902 OFFCURVE",
"743 940 CURVE",
"663 976 OFFCURVE",
"541 1004 OFFCURVE",
"443 1004 CURVE SMOOTH",
"263 1004 OFFCURVE",
"111 902 OFFCURVE",
"111 732 CURVE SMOOTH",
"111 586 OFFCURVE",
"231 506 OFFCURVE",
"367 456 CURVE SMOOTH",
"486 412 LINE SMOOTH",
"580 377 OFFCURVE",
"634 314 OFFCURVE",
"634 246 CURVE SMOOTH",
"632 152 OFFCURVE",
"546 86 OFFCURVE",
"416 86 CURVE SMOOTH",
"314 86 OFFCURVE",
"214 132 OFFCURVE",
"132 178 CURVE",
"104 156 OFFCURVE",
"78 110 OFFCURVE",
"76 76 CURVE"
);
}
);
width = 868;
},
{
anchors = (
{
name = bottom;
position = "{447, 0}";
},
{
name = top;
position = "{446, 1084}";
}
);
layerId = UUID1;
paths = (
{
closed = 1;
nodes = (
"131 14 OFFCURVE",
"267 -30 OFFCURVE",
"410 -30 CURVE SMOOTH",
"686 -30 OFFCURVE",
"848 98 OFFCURVE",
"848 300 CURVE SMOOTH",
"848 472 OFFCURVE",
"732 570 OFFCURVE",
"580 624 CURVE SMOOTH",
"456 668 LINE SMOOTH",
"406 686 OFFCURVE",
"386 706 OFFCURVE",
"386 738 CURVE SMOOTH",
"386 768 OFFCURVE",
"410 794 OFFCURVE",
"460 794 CURVE SMOOTH",
"554 794 OFFCURVE",
"656 756 OFFCURVE",
"740 718 CURVE",
"792 756 OFFCURVE",
"834 868 OFFCURVE",
"830 944 CURVE",
"742 988 OFFCURVE",
"584 1030 OFFCURVE",
"456 1030 CURVE SMOOTH",
"216 1030 OFFCURVE",
"64 900 OFFCURVE",
"64 694 CURVE SMOOTH",
"64 532 OFFCURVE",
"172 444 OFFCURVE",
"314 392 CURVE SMOOTH",
"424 352 LINE SMOOTH",
"486 330 OFFCURVE",
"510 304 OFFCURVE",
"510 268 CURVE SMOOTH",
"510 232 OFFCURVE",
"474 206 OFFCURVE",
"402 206 CURVE SMOOTH",
"309 206 OFFCURVE",
"214 242 OFFCURVE",
"126 288 CURVE",
"78 238 OFFCURVE",
"38 138 OFFCURVE",
"36 68 CURVE"
);
}
);
width = 888;
}
);
leftKerningGroup = s;
rightKerningGroup = s;
unicode = 0073;
},
{
glyphname = t;
lastChange = "2021-07-09 03:44:18 +0000";
layers = (
{
anchors = (
{
name = bottom;
position = "{387, 0}";
},
{
name = top;
position = "{313, 1360}";
},
{
name = topright;
position = "{350, 980}";
}
);
layerId = UUID0;
paths = (
{
closed = 1;
nodes = (
"214 152 LINE SMOOTH",
"214 48 OFFCURVE",
"284 -8 OFFCURVE",
"392 -8 CURVE SMOOTH",
"470 -8 OFFCURVE",
"530 -4 OFFCURVE",
"592 4 CURVE",
"594 12 OFFCURVE",
"594 22 OFFCURVE",
"594 32 CURVE SMOOTH",
"594 60 OFFCURVE",
"590 88 OFFCURVE",
"582 108 CURVE",
"428 108 LINE SMOOTH",
"370 108 OFFCURVE",
"350 142 OFFCURVE",
"350 190 CURVE SMOOTH",
"350 1278 LINE",
"338 1290 LINE",
"288 1290 LINE SMOOTH",
"224 1290 OFFCURVE",
"214 1256 OFFCURVE",
"214 1194 CURVE SMOOTH"
);
},
{
closed = 1;
nodes = (
"304 978 LINE",
"74 982 LINE",
"70 962 OFFCURVE",
"68 948 OFFCURVE",
"68 928 CURVE SMOOTH",
"68 908 OFFCURVE",
"70 892 OFFCURVE",
"74 874 CURVE",
"306 878 LINE",
"604 874 LINE",
"608 892 OFFCURVE",
"610 908 OFFCURVE",
"610 928 CURVE SMOOTH",
"610 948 OFFCURVE",
"608 962 OFFCURVE",
"604 982 CURVE"
);
}
);
width = 670;
},
{
anchors = (
{
name = bottom;
position = "{421, 0}";
},
{
name = top;
position = "{345, 1370}";
},
{
name = topright;
position = "{476, 1000}";
}
);
layerId = UUID1;
paths = (
{
closed = 1;
nodes = (
"156 278 LINE SMOOTH",
"156 80 OFFCURVE",
"240 -10 OFFCURVE",
"428 -10 CURVE SMOOTH",
"508 -10 OFFCURVE",
"618 0 OFFCURVE",
"692 10 CURVE",
"698 32 OFFCURVE",
"700 60 OFFCURVE",
"700 84 CURVE SMOOTH",
"700 134 OFFCURVE",
"690 192 OFFCURVE",
"674 238 CURVE",
"566 238 LINE SMOOTH",
"502 238 OFFCURVE",
"476 272 OFFCURVE",
"476 334 CURVE SMOOTH",
"476 1286 LINE",
"462 1300 LINE",
"334 1300 LINE SMOOTH",
"206 1300 OFFCURVE",
"156 1250 OFFCURVE",
"156 1104 CURVE SMOOTH"
);
},
{
closed = 1;
nodes = (
"342 996 LINE",
"-2 1002 LINE",
"-12 962 OFFCURVE",
"-16 924 OFFCURVE",
"-16 888 CURVE SMOOTH",
"-16 848 OFFCURVE",
"-12 808 OFFCURVE",
"-2 770 CURVE",
"332 776 LINE",
"712 770 LINE",
"722 808 OFFCURVE",
"726 848 OFFCURVE",
"726 888 CURVE SMOOTH",
"726 924 OFFCURVE",
"722 962 OFFCURVE",
"712 1002 CURVE"
);
}
);
width = 756;
}
);
leftKerningGroup = t;
rightKerningGroup = t;
unicode = 0074;
},
{
glyphname = u;
lastChange = "2021-07-09 03:44:18 +0000";
layers = (
{
anchors = (
{
name = bottom;
position = "{536, 0}";
},
{
name = ogonek;
position = "{900, -14}";
},
{
name = top;
position = "{538, 1084}";
},
{
name = topright;
position = "{910, 980}";
}
);
layerId = UUID0;
paths = (
{
closed = 1;
nodes = (
"910 980 LINE",
"892 984 OFFCURVE",
"868 986 OFFCURVE",
"840 986 CURVE SMOOTH",
"814 986 OFFCURVE",
"790 984 OFFCURVE",
"772 980 CURVE",
"772 226 LINE SMOOTH",
"772 122 OFFCURVE",
"798 26 OFFCURVE",
"900 -14 CURVE",
"930 0 OFFCURVE",
"956 32 OFFCURVE",
"966 58 CURVE",
"916 106 OFFCURVE",
"910 190 OFFCURVE",
"910 276 CURVE SMOOTH"
);
},
{
closed = 1;
nodes = (
"168 292 LINE SMOOTH",
"168 124 OFFCURVE",
"234 -18 OFFCURVE",
"424 -18 CURVE SMOOTH",
"570 -18 OFFCURVE",
"724 60 OFFCURVE",
"810 170 CURVE",
"810 320 LINE",
"744 204 OFFCURVE",
"582 108 OFFCURVE",
"456 108 CURVE SMOOTH",
"338 108 OFFCURVE",
"306 176 OFFCURVE",
"306 338 CURVE SMOOTH",
"306 900 LINE SMOOTH",
"306 962 OFFCURVE",
"286 992 OFFCURVE",
"234 992 CURVE SMOOTH",
"202 992 OFFCURVE",
"166 980 OFFCURVE",
"146 962 CURVE",
"164 918 OFFCURVE",
"168 858 OFFCURVE",
"168 794 CURVE SMOOTH"
);
}
);
width = 1092;
},
{
anchors = (
{
name = bottom;
position = "{540, 0}";
},
{
name = ogonek;
position = "{938, -16}";
},
{
name = top;
position = "{530, 1084}";
},
{
name = topright;
position = "{980, 1000}";
}
);
layerId = UUID1;
paths = (
{
closed = 1;
nodes = (
"980 1000 LINE",
"932 1008 OFFCURVE",
"870 1012 OFFCURVE",
"816 1012 CURVE SMOOTH",
"760 1012 OFFCURVE",
"698 1008 OFFCURVE",
"652 1000 CURVE",
"652 294 LINE SMOOTH",
"652 122 OFFCURVE",
"754 -16 OFFCURVE",
"938 -16 CURVE",
"978 16 OFFCURVE",
"1024 90 OFFCURVE",
"1036 148 CURVE",
"1004 170 OFFCURVE",
"980 224 OFFCURVE",
"980 286 CURVE SMOOTH"
);
},
{
closed = 1;
nodes = (
"110 342 LINE SMOOTH",
"110 130 OFFCURVE",
"210 -18 OFFCURVE",
"392 -18 CURVE SMOOTH",
"534 -18 OFFCURVE",
"636 70 OFFCURVE",
"730 160 CURVE",
"730 444 LINE",
"670 318 OFFCURVE",
"574 276 OFFCURVE",
"518 276 CURVE SMOOTH",
"456 276 OFFCURVE",
"438 316 OFFCURVE",
"438 400 CURVE SMOOTH",
"438 814 LINE SMOOTH",
"438 944 OFFCURVE",
"394 1016 OFFCURVE",
"262 1016 CURVE SMOOTH",
"180 1016 OFFCURVE",
"106 986 OFFCURVE",
"58 946 CURVE",
"96 894 OFFCURVE",
"110 824 OFFCURVE",
"110 744 CURVE SMOOTH"
);
}
);
width = 1098;
}
);
leftKerningGroup = u;
rightKerningGroup = u;
unicode = 0075;
},
{
glyphname = v;
lastChange = "2021-07-09 03:44:18 +0000";
layers = (
{
anchors = (
{
name = bottom;
position = "{444, 0}";
},
{
name = top;
position = "{440, 1084}";
}
);
layerId = UUID0;
paths = (
{
closed = 1;
nodes = (
"456 122 LINE",
"444 122 OFFCURVE",
"442 124 OFFCURVE",
"438 138 CURVE SMOOTH",
"422 200 OFFCURVE",
"378 346 OFFCURVE",
"340 460 CURVE SMOOTH",
"178 942 LINE SMOOTH",
"166 980 OFFCURVE",
"142 994 OFFCURVE",
"110 994 CURVE SMOOTH",
"86 994 OFFCURVE",
"64 990 OFFCURVE",
"24 970 CURVE",
"326 84 LINE SMOOTH",
"354 0 OFFCURVE",
"374 -10 OFFCURVE",
"432 -10 CURVE SMOOTH",
"462 -10 OFFCURVE",
"498 -8 OFFCURVE",
"528 0 CURVE",
"604 212 OFFCURVE",
"756 654 OFFCURVE",
"858 972 CURVE",
"854 978 LINE",
"832 984 OFFCURVE",
"812 988 OFFCURVE",
"786 988 CURVE SMOOTH",
"770 988 OFFCURVE",
"752 988 OFFCURVE",
"730 982 CURVE"
);
}
);
width = 880;
},
{
anchors = (
{
name = bottom;
position = "{488, 0}";
},
{
name = top;
position = "{482, 1084}";
}
);
layerId = UUID1;
paths = (
{
closed = 1;
nodes = (
"502 248 LINE",
"490 248 OFFCURVE",
"484 248 OFFCURVE",
"482 264 CURVE SMOOTH",
"472 324 OFFCURVE",
"460 426 OFFCURVE",
"442 500 CURVE SMOOTH",
"358 864 LINE SMOOTH",
"332 978 OFFCURVE",
"272 1018 OFFCURVE",
"168 1018 CURVE SMOOTH",
"114 1018 OFFCURVE",
"44 998 OFFCURVE",
"-12 974 CURVE",
"222 142 LINE SMOOTH",
"258 16 OFFCURVE",
"324 -12 OFFCURVE",
"448 -12 CURVE SMOOTH",
"532 -12 OFFCURVE",
"622 -8 OFFCURVE",
"694 0 CURVE",
"766 232 OFFCURVE",
"888 682 OFFCURVE",
"966 970 CURVE",
"956 984 LINE",
"906 1004 OFFCURVE",
"842 1010 OFFCURVE",
"786 1010 CURVE SMOOTH",
"746 1010 OFFCURVE",
"706 1006 OFFCURVE",
"668 998 CURVE"
);
}
);
width = 966;
}
);
leftKerningGroup = v;
rightKerningGroup = v;
unicode = 0076;
},
{
glyphname = w;
lastChange = "2021-07-09 03:44:18 +0000";
layers = (
{
anchors = (
{
name = bottom;
position = "{708, 0}";
},
{
name = top;
position = "{708, 1084}";
}
);
layerId = UUID0;
paths = (
{
closed = 1;
nodes = (
"284 84 LINE SMOOTH",
"304 2 OFFCURVE",
"344 -8 OFFCURVE",
"384 -8 CURVE SMOOTH",
"420 -8 OFFCURVE",
"472 -6 OFFCURVE",
"504 0 CURVE",
"602 402 LINE SMOOTH",
"628 512 OFFCURVE",
"670 696 OFFCURVE",
"702 842 CURVE",
"710 842 LINE",
"744 696 OFFCURVE",
"780 512 OFFCURVE",
"804 402 CURVE SMOOTH",
"876 84 LINE SMOOTH",
"894 2 OFFCURVE",
"934 -8 OFFCURVE",
"986 -8 CURVE SMOOTH",
"1020 -8 OFFCURVE",
"1068 -6 OFFCURVE",
"1094 -2 CURVE",
"1344 972 LINE",
"1340 978 LINE",
"1324 984 OFFCURVE",
"1302 988 OFFCURVE",
"1276 988 CURVE SMOOTH",
"1250 988 OFFCURVE",
"1224 986 OFFCURVE",
"1208 982 CURVE",
"1086 466 LINE SMOOTH",
"1058 350 OFFCURVE",
"1032 236 OFFCURVE",
"1002 104 CURVE",
"992 104 OFFCURVE",
"990 106 OFFCURVE",
"986 122 CURVE SMOOTH",
"792 980 LINE",
"774 984 OFFCURVE",
"732 986 OFFCURVE",
"708 986 CURVE SMOOTH",
"686 986 OFFCURVE",
"642 984 OFFCURVE",
"622 980 CURVE",
"416 104 LINE",
"408 104 OFFCURVE",
"404 106 OFFCURVE",
"400 122 CURVE SMOOTH",
"382 202 OFFCURVE",
"354 344 OFFCURVE",
"326 466 CURVE SMOOTH",
"218 940 LINE SMOOTH",
"208 986 OFFCURVE",
"180 994 OFFCURVE",
"154 994 CURVE SMOOTH",
"132 994 OFFCURVE",
"106 990 OFFCURVE",
"68 972 CURVE"
);
}
);
width = 1402;
},
{
anchors = (
{
name = bottom;
position = "{758, 0}";
},
{
name = top;
position = "{758, 1084}";
}
);
layerId = UUID1;
paths = (
{
closed = 1;
nodes = (
"196 138 LINE SMOOTH",
"224 16 OFFCURVE",
"282 -12 OFFCURVE",
"406 -12 CURVE SMOOTH",
"484 -12 OFFCURVE",
"584 -8 OFFCURVE",
"652 0 CURVE",
"704 344 LINE SMOOTH",
"718 442 OFFCURVE",
"738 576 OFFCURVE",
"752 712 CURVE",
"764 712 LINE",
"778 574 OFFCURVE",
"798 438 OFFCURVE",
"812 340 CURVE SMOOTH",
"842 134 LINE SMOOTH",
"860 8 OFFCURVE",
"920 -12 OFFCURVE",
"1046 -12 CURVE SMOOTH",
"1122 -12 OFFCURVE",
"1220 -10 OFFCURVE",
"1286 0 CURVE",
"1518 964 LINE",
"1508 984 LINE",
"1462 1008 OFFCURVE",
"1378 1012 OFFCURVE",
"1334 1012 CURVE SMOOTH",
"1296 1012 OFFCURVE",
"1246 1008 OFFCURVE",
"1210 998 CURVE",
"1124 568 LINE SMOOTH",
"1100 444 OFFCURVE",
"1084 330 OFFCURVE",
"1072 242 CURVE",
"1060 242 OFFCURVE",
"1058 246 OFFCURVE",
"1056 258 CURVE SMOOTH",
"950 988 LINE",
"900 1000 OFFCURVE",
"798 1004 OFFCURVE",
"756 1004 CURVE SMOOTH",
"716 1004 OFFCURVE",
"620 1000 OFFCURVE",
"568 988 CURVE",
"466 242 LINE",
"454 242 OFFCURVE",
"452 246 OFFCURVE",
"450 258 CURVE SMOOTH",
"444 326 OFFCURVE",
"426 438 OFFCURVE",
"400 568 CURVE SMOOTH",
"342 878 LINE SMOOTH",
"324 966 OFFCURVE",
"292 1018 OFFCURVE",
"186 1018 CURVE SMOOTH",
"128 1018 OFFCURVE",
"66 1004 OFFCURVE",
"4 980 CURVE"
);
}
);
width = 1522;
}
);
leftKerningGroup = w;
rightKerningGroup = w;
unicode = 0077;
},
{
glyphname = x;
lastChange = "2021-07-09 03:44:18 +0000";
layers = (
{
anchors = (
{
name = top;
position = "{439, 1084}";
}
);
layerId = UUID0;
paths = (
{
closed = 1;
nodes = (
"680 28 LINE",
"698 2 OFFCURVE",
"716 -14 OFFCURVE",
"750 -14 CURVE SMOOTH",
"782 -14 OFFCURVE",
"822 4 OFFCURVE",
"848 20 CURVE",
"240 954 LINE SMOOTH",
"222 980 OFFCURVE",
"204 996 OFFCURVE",
"170 996 CURVE SMOOTH",
"138 996 OFFCURVE",
"98 978 OFFCURVE",
"74 962 CURVE"
);
},
{
closed = 1;
nodes = (
"434 598 LINE",
"384 542 LINE",
"46 16 LINE",
"52 4 LINE",
"66 -4 OFFCURVE",
"92 -10 OFFCURVE",
"118 -10 CURVE SMOOTH",
"138 -10 OFFCURVE",
"172 -6 OFFCURVE",
"182 -2 CURVE",
"462 446 LINE",
"506 494 LINE",
"804 964 LINE",
"798 976 LINE",
"786 982 OFFCURVE",
"760 988 OFFCURVE",
"730 988 CURVE SMOOTH",
"710 988 OFFCURVE",
"680 984 OFFCURVE",
"670 980 CURVE"
);
}
);
width = 894;
},
{
anchors = (
{
name = top;
position = "{483, 1084}";
}
);
layerId = UUID1;
paths = (
{
closed = 1;
nodes = (
"582 80 LINE",
"624 14 OFFCURVE",
"672 -18 OFFCURVE",
"754 -18 CURVE SMOOTH",
"828 -18 OFFCURVE",
"912 10 OFFCURVE",
"976 54 CURVE",
"410 918 LINE SMOOTH",
"366 986 OFFCURVE",
"326 1020 OFFCURVE",
"244 1020 CURVE SMOOTH",
"176 1020 OFFCURVE",
"94 1000 OFFCURVE",
"22 948 CURVE"
);
},
{
closed = 1;
nodes = (
"444 666 LINE",
"362 594 LINE",
"0 32 LINE",
"10 12 LINE",
"60 -6 OFFCURVE",
"120 -12 OFFCURVE",
"184 -12 CURVE SMOOTH",
"232 -12 OFFCURVE",
"276 -10 OFFCURVE",
"310 0 CURVE",
"528 372 LINE",
"604 446 LINE",
"944 968 LINE",
"936 990 LINE",
"886 1004 OFFCURVE",
"834 1012 OFFCURVE",
"774 1012 CURVE SMOOTH",
"728 1012 OFFCURVE",
"682 1008 OFFCURVE",
"646 1000 CURVE"
);
}
);
width = 968;
}
);
unicode = 0078;
},
{
glyphname = y;
lastChange = "2021-07-09 03:44:18 +0000";
layers = (
{
anchors = (
{
name = bottom;
position = "{686, -130}";
},
{
name = top;
position = "{448, 1084}";
}
);
layerId = UUID0;
paths = (
{
closed = 1;
nodes = (
"866 972 LINE",
"862 978 LINE",
"844 984 OFFCURVE",
"820 988 OFFCURVE",
"794 988 CURVE SMOOTH",
"772 988 OFFCURVE",
"748 986 OFFCURVE",
"728 982 CURVE",
"480 92 LINE",
"470 92 OFFCURVE",
"464 94 OFFCURVE",
"460 106 CURVE SMOOTH",
"436 188 OFFCURVE",
"400 312 OFFCURVE",
"366 420 CURVE SMOOTH",
"204 928 LINE SMOOTH",
"188 980 OFFCURVE",
"162 994 OFFCURVE",
"130 994 CURVE SMOOTH",
"108 994 OFFCURVE",
"84 986 OFFCURVE",
"48 970 CURVE",
"330 88 LINE SMOOTH",
"354 16 OFFCURVE",
"384 -4 OFFCURVE",
"450 -8 CURVE",
"444 -28 LINE SMOOTH",
"388 -212 OFFCURVE",
"332 -330 OFFCURVE",
"176 -330 CURVE SMOOTH",
"132 -330 OFFCURVE",
"74 -320 OFFCURVE",
"48 -310 CURVE",
"30 -332 OFFCURVE",
"14 -376 OFFCURVE",
"16 -410 CURVE",
"50 -422 OFFCURVE",
"122 -436 OFFCURVE",
"174 -436 CURVE SMOOTH",
"410 -436 OFFCURVE",
"494 -290 OFFCURVE",
"590 34 CURVE SMOOTH"
);
}
);
width = 898;
},
{
anchors = (
{
name = bottom;
position = "{892, -16}";
},
{
name = top;
position = "{498, 1084}";
}
);
layerId = UUID1;
paths = (
{
closed = 1;
nodes = (
"994 966 LINE",
"982 988 LINE",
"922 1008 OFFCURVE",
"862 1012 OFFCURVE",
"806 1012 CURVE SMOOTH",
"766 1012 OFFCURVE",
"714 1008 OFFCURVE",
"678 998 CURVE",
"510 232 LINE",
"500 232 OFFCURVE",
"496 234 OFFCURVE",
"494 246 CURVE SMOOTH",
"486 310 OFFCURVE",
"470 440 OFFCURVE",
"454 504 CURVE SMOOTH",
"366 878 LINE SMOOTH",
"340 986 OFFCURVE",
"288 1018 OFFCURVE",
"208 1018 CURVE SMOOTH",
"154 1018 OFFCURVE",
"72 1004 OFFCURVE",
"6 974 CURVE",
"234 114 LINE SMOOTH",
"260 18 OFFCURVE",
"338 -14 OFFCURVE",
"450 -14 CURVE",
"442 -44 LINE SMOOTH",
"414 -138 OFFCURVE",
"348 -194 OFFCURVE",
"252 -194 CURVE SMOOTH",
"184 -194 OFFCURVE",
"112 -176 OFFCURVE",
"68 -162 CURVE",
"24 -212 OFFCURVE",
"-6 -322 OFFCURVE",
"2 -396 CURVE",
"58 -416 OFFCURVE",
"170 -438 OFFCURVE",
"252 -438 CURVE SMOOTH",
"570 -438 OFFCURVE",
"680 -242 OFFCURVE",
"750 26 CURVE SMOOTH"
);
}
);
width = 1002;
}
);
leftKerningGroup = y;
rightKerningGroup = y;
unicode = 0079;
},
{
glyphname = z;
lastChange = "2021-07-09 03:44:18 +0000";
layers = (
{
anchors = (
{
name = bottom;
position = "{448, 0}";
},
{
name = top;
position = "{448, 1084}";
}
);
guideLines = (
{
angle = 90;
position = "{448, 1081}";
}
);
layerId = UUID0;
paths = (
{
closed = 1;
nodes = (
"108 148 LINE SMOOTH",
"90 122 OFFCURVE",
"84 104 OFFCURVE",
"84 88 CURVE SMOOTH",
"84 66 OFFCURVE",
"90 50 OFFCURVE",
"108 0 CURVE",
"700 0 LINE SMOOTH",
"782 0 OFFCURVE",
"806 26 OFFCURVE",
"806 72 CURVE SMOOTH",
"806 94 OFFCURVE",
"802 120 OFFCURVE",
"794 140 CURVE",
"748 122 OFFCURVE",
"670 116 OFFCURVE",
"560 116 CURVE SMOOTH",
"448 116 LINE SMOOTH",
"400 116 OFFCURVE",
"316 114 OFFCURVE",
"246 110 CURVE",
"240 116 LINE",
"286 176 OFFCURVE",
"352 256 OFFCURVE",
"398 320 CURVE SMOOTH",
"774 834 LINE SMOOTH",
"790 856 OFFCURVE",
"798 874 OFFCURVE",
"798 890 CURVE SMOOTH",
"798 910 OFFCURVE",
"792 932 OFFCURVE",
"774 980 CURVE",
"124 980 LINE",
"118 956 OFFCURVE",
"116 926 OFFCURVE",
"116 914 CURVE SMOOTH",
"116 904 OFFCURVE",
"116 882 OFFCURVE",
"120 866 CURVE",
"366 866 LINE SMOOTH",
"454 866 OFFCURVE",
"596 870 OFFCURVE",
"642 876 CURVE",
"648 870 LINE",
"596 804 OFFCURVE",
"536 734 OFFCURVE",
"492 674 CURVE SMOOTH"
);
}
);
width = 888;
},
{
anchors = (
{
name = bottom;
position = "{450, 0}";
},
{
name = top;
position = "{450, 1084}";
}
);
layerId = UUID1;
paths = (
{
closed = 1;
nodes = (
"92 278 LINE SMOOTH",
"58 234 OFFCURVE",
"46 194 OFFCURVE",
"46 158 CURVE SMOOTH",
"46 120 OFFCURVE",
"56 76 OFFCURVE",
"82 0 CURVE",
"686 0 LINE SMOOTH",
"814 0 OFFCURVE",
"858 58 OFFCURVE",
"858 144 CURVE SMOOTH",
"858 188 OFFCURVE",
"848 222 OFFCURVE",
"824 278 CURVE",
"768 250 OFFCURVE",
"698 244 OFFCURVE",
"642 244 CURVE SMOOTH",
"576 244 LINE SMOOTH",
"526 244 OFFCURVE",
"478 240 OFFCURVE",
"422 232 CURVE",
"416 242 LINE",
"468 294 OFFCURVE",
"522 362 OFFCURVE",
"566 420 CURVE SMOOTH",
"800 726 LINE SMOOTH",
"821 753 OFFCURVE",
"830 792 OFFCURVE",
"830 822 CURVE SMOOTH",
"830 868 OFFCURVE",
"814 922 OFFCURVE",
"788 1000 CURVE",
"86 1000 LINE",
"76 956 OFFCURVE",
"68 908 OFFCURVE",
"68 858 CURVE SMOOTH",
"68 826 OFFCURVE",
"72 790 OFFCURVE",
"80 758 CURVE",
"226 758 LINE SMOOTH",
"298 758 OFFCURVE",
"396 766 OFFCURVE",
"472 774 CURVE",
"478 764 LINE",
"434 716 OFFCURVE",
"364 640 OFFCURVE",
"316 576 CURVE SMOOTH"
);
}
);
width = 900;
}
);
leftKerningGroup = z;
rightKerningGroup = z;
unicode = 007A;
},
{
glyphname = quotesingle;
lastChange = "2021-07-09 03:44:18 +0000";
layers = (
{
layerId = UUID0;
paths = (
{
closed = 1;
nodes = (
"95 1360 OFFCURVE",
"117 1182 OFFCURVE",
"147 986 CURVE",
"167 976 OFFCURVE",
"205 976 OFFCURVE",
"222 986 CURVE",
"252 1180 OFFCURVE",
"273 1360 OFFCURVE",
"273 1388 CURVE SMOOTH",
"273 1414 OFFCURVE",
"270 1440 OFFCURVE",
"263 1468 CURVE",
"248 1478 OFFCURVE",
"215 1488 OFFCURVE",
"184 1488 CURVE SMOOTH",
"149 1488 OFFCURVE",
"123 1478 OFFCURVE",
"105 1468 CURVE",
"98 1440 OFFCURVE",
"95 1414 OFFCURVE",
"95 1388 CURVE SMOOTH"
);
}
);
width = 382;
},
{
layerId = UUID1;
paths = (
{
closed = 1;
nodes = (
"83 1396 OFFCURVE",
"122 1176 OFFCURVE",
"158 980 CURVE",
"193 958 OFFCURVE",
"279 958 OFFCURVE",
"314 980 CURVE",
"350 1176 OFFCURVE",
"389 1396 OFFCURVE",
"389 1440 CURVE SMOOTH",
"389 1484 OFFCURVE",
"383 1526 OFFCURVE",
"375 1564 CURVE",
"334 1588 OFFCURVE",
"289 1600 OFFCURVE",
"236 1600 CURVE SMOOTH",
"183 1600 OFFCURVE",
"138 1588 OFFCURVE",
"97 1564 CURVE",
"89 1526 OFFCURVE",
"83 1484 OFFCURVE",
"83 1440 CURVE SMOOTH"
);
}
);
width = 492;
}
);
unicode = 0027;
},
{
glyphname = numbersign;
lastChange = "2021-07-09 03:44:18 +0000";
layers = (
{
layerId = UUID0;
paths = (
{
closed = 1;
nodes = (
"484 1262 LINE",
"501 1267 OFFCURVE",
"526 1270 OFFCURVE",
"550 1270 CURVE SMOOTH",
"575 1270 OFFCURVE",
"599 1267 OFFCURVE",
"616 1262 CURVE",
"340 28 LINE",
"325 21 OFFCURVE",
"300 18 OFFCURVE",
"274 18 CURVE SMOOTH",
"249 18 OFFCURVE",
"223 21 OFFCURVE",
"208 28 CURVE"
);
},
{
closed = 1;
nodes = (
"876 1262 LINE",
"893 1267 OFFCURVE",
"918 1270 OFFCURVE",
"942 1270 CURVE SMOOTH",
"967 1270 OFFCURVE",
"991 1267 OFFCURVE",
"1008 1262 CURVE",
"732 28 LINE",
"717 21 OFFCURVE",
"692 18 OFFCURVE",
"666 18 CURVE SMOOTH",
"641 18 OFFCURVE",
"615 21 OFFCURVE",
"600 28 CURVE"
);
},
{
closed = 1;
nodes = (
"62 338 LINE",
"56 354 OFFCURVE",
"53 377 OFFCURVE",
"53 400 CURVE SMOOTH",
"53 423 OFFCURVE",
"56 446 OFFCURVE",
"62 462 CURVE",
"1052 462 LINE",
"1058 446 OFFCURVE",
"1061 423 OFFCURVE",
"1061 400 CURVE SMOOTH",
"1061 377 OFFCURVE",
"1058 354 OFFCURVE",
"1052 338 CURVE"
);
},
{
closed = 1;
nodes = (
"150 828 LINE",
"144 844 OFFCURVE",
"141 867 OFFCURVE",
"141 890 CURVE SMOOTH",
"141 913 OFFCURVE",
"144 936 OFFCURVE",
"150 952 CURVE",
"1140 952 LINE",
"1146 936 OFFCURVE",
"1149 913 OFFCURVE",
"1149 890 CURVE SMOOTH",
"1149 867 OFFCURVE",
"1146 844 OFFCURVE",
"1140 828 CURVE"
);
}
);
width = 1198;
},
{
layerId = UUID1;
paths = (
{
closed = 1;
nodes = (
"476 1306 LINE",
"511 1322 OFFCURVE",
"566 1330 OFFCURVE",
"620 1330 CURVE SMOOTH",
"675 1330 OFFCURVE",
"728 1322 OFFCURVE",
"760 1306 CURVE",
"472 24 LINE",
"437 8 OFFCURVE",
"382 0 OFFCURVE",
"328 0 CURVE SMOOTH",
"274 0 OFFCURVE",
"220 8 OFFCURVE",
"188 24 CURVE"
);
},
{
closed = 1;
nodes = (
"996 1306 LINE",
"1031 1322 OFFCURVE",
"1086 1330 OFFCURVE",
"1140 1330 CURVE SMOOTH",
"1195 1330 OFFCURVE",
"1248 1322 OFFCURVE",
"1280 1306 CURVE",
"992 24 LINE",
"957 8 OFFCURVE",
"902 0 OFFCURVE",
"848 0 CURVE SMOOTH",
"794 0 OFFCURVE",
"740 8 OFFCURVE",
"708 24 CURVE"
);
},
{
closed = 1;
nodes = (
"54 258 LINE",
"41 295 OFFCURVE",
"35 341 OFFCURVE",
"35 386 CURVE SMOOTH",
"35 432 OFFCURVE",
"41 477 OFFCURVE",
"54 514 CURVE",
"1302 514 LINE",
"1315 477 OFFCURVE",
"1322 432 OFFCURVE",
"1322 386 CURVE SMOOTH",
"1322 341 OFFCURVE",
"1315 295 OFFCURVE",
"1302 258 CURVE"
);
},
{
closed = 1;
nodes = (
"162 816 LINE",
"149 853 OFFCURVE",
"143 899 OFFCURVE",
"143 944 CURVE SMOOTH",
"143 990 OFFCURVE",
"149 1035 OFFCURVE",
"162 1072 CURVE",
"1410 1072 LINE",
"1423 1035 OFFCURVE",
"1430 990 OFFCURVE",
"1430 944 CURVE SMOOTH",
"1430 899 OFFCURVE",
"1423 853 OFFCURVE",
"1410 816 CURVE"
);
}
);
width = 1456;
}
);
unicode = 0023;
},
{
glyphname = ampersand;
lastChange = "2021-07-09 03:44:18 +0000";
layers = (
{
layerId = UUID0;
paths = (
{
closed = 1;
nodes = (
"600 790 LINE SMOOTH",
"406 790 OFFCURVE",
"322 894 OFFCURVE",
"322 1032 CURVE SMOOTH",
"322 1170 OFFCURVE",
"416 1268 OFFCURVE",
"574 1268 CURVE SMOOTH",
"688 1268 OFFCURVE",
"780 1244 OFFCURVE",
"868 1218 CURVE SMOOTH",
"894 1246 OFFCURVE",
"908 1296 OFFCURVE",
"908 1336 CURVE",
"828 1366 OFFCURVE",
"700 1390 OFFCURVE",
"578 1390 CURVE SMOOTH",
"314 1390 OFFCURVE",
"170 1226 OFFCURVE",
"170 1038 CURVE SMOOTH",
"170 866 OFFCURVE",
"306 724 OFFCURVE",
"460 718 CURVE",
"460 746 LINE",
"290 742 OFFCURVE",
"114 576 OFFCURVE",
"114 360 CURVE SMOOTH",
"114 136 OFFCURVE",
"244 -24 OFFCURVE",
"492 -24 CURVE SMOOTH",
"606 -24 OFFCURVE",
"724 16 OFFCURVE",
"818 78 CURVE",
"830 0 LINE",
"848 -4 OFFCURVE",
"870 -6 OFFCURVE",
"898 -6 CURVE SMOOTH",
"926 -6 OFFCURVE",
"948 -4 OFFCURVE",
"966 0 CURVE",
"958 87 OFFCURVE",
"954 197 OFFCURVE",
"954 292 CURVE SMOOTH",
"954 540 LINE SMOOTH",
"954 586 OFFCURVE",
"952 676 OFFCURVE",
"950 728 CURVE",
"818 728 LINE",
"816 676 OFFCURVE",
"814 588 OFFCURVE",
"814 538 CURVE SMOOTH",
"814 202 LINE",
"748 146 OFFCURVE",
"632 98 OFFCURVE",
"514 98 CURVE SMOOTH",
"358 98 OFFCURVE",
"266 200 OFFCURVE",
"266 360 CURVE SMOOTH",
"266 492 OFFCURVE",
"346 666 OFFCURVE",
"582 666 CURVE SMOOTH",
"1026 666 LINE SMOOTH",
"1094 666 OFFCURVE",
"1152 678 OFFCURVE",
"1152 746 CURVE SMOOTH",
"1152 768 OFFCURVE",
"1146 798 OFFCURVE",
"1132 816 CURVE",
"1094 798 OFFCURVE",
"1024 790 OFFCURVE",
"956 790 CURVE SMOOTH"
);
}
);
width = 1202;
},
{
layerId = UUID1;
paths = (
{
closed = 1;
nodes = (
"670 854 LINE SMOOTH",
"540 854 OFFCURVE",
"478 898 OFFCURVE",
"478 1002 CURVE SMOOTH",
"478 1080 OFFCURVE",
"528 1140 OFFCURVE",
"634 1140 CURVE SMOOTH",
"732 1140 OFFCURVE",
"832 1114 OFFCURVE",
"922 1084 CURVE SMOOTH",
"978 1144 OFFCURVE",
"1010 1246 OFFCURVE",
"1006 1328 CURVE",
"894 1366 OFFCURVE",
"734 1396 OFFCURVE",
"574 1396 CURVE SMOOTH",
"308 1396 OFFCURVE",
"136 1250 OFFCURVE",
"136 1030 CURVE SMOOTH",
"136 852 OFFCURVE",
"258 716 OFFCURVE",
"424 712 CURVE",
"424 744 LINE",
"254 744 OFFCURVE",
"76 592 OFFCURVE",
"76 358 CURVE SMOOTH",
"76 150 OFFCURVE",
"212 -30 OFFCURVE",
"468 -30 CURVE SMOOTH",
"592 -30 OFFCURVE",
"704 16 OFFCURVE",
"778 84 CURVE",
"800 -4 LINE",
"836 -14 OFFCURVE",
"894 -20 OFFCURVE",
"948 -20 CURVE SMOOTH",
"1006 -20 OFFCURVE",
"1060 -14 OFFCURVE",
"1098 0 CURVE",
"1090 96 OFFCURVE",
"1084 234 OFFCURVE",
"1084 322 CURVE SMOOTH",
"1084 456 LINE SMOOTH",
"1084 528 OFFCURVE",
"1082 636 OFFCURVE",
"1074 732 CURVE",
"772 732 LINE",
"764 636 OFFCURVE",
"762 528 OFFCURVE",
"762 456 CURVE SMOOTH",
"762 296 LINE",
"722 262 OFFCURVE",
"656 222 OFFCURVE",
"564 222 CURVE SMOOTH",
"486 222 OFFCURVE",
"418 270 OFFCURVE",
"418 390 CURVE SMOOTH",
"418 520 OFFCURVE",
"500 578 OFFCURVE",
"646 578 CURVE SMOOTH",
"1124 578 LINE SMOOTH",
"1248 578 OFFCURVE",
"1318 632 OFFCURVE",
"1318 742 CURVE SMOOTH",
"1318 802 OFFCURVE",
"1302 862 OFFCURVE",
"1276 894 CURVE",
"1216 868 OFFCURVE",
"1138 854 OFFCURVE",
"1060 854 CURVE SMOOTH"
);
}
);
width = 1322;
}
);
unicode = 0026;
},
{
glyphname = asterisk;
lastChange = "2021-07-09 03:44:18 +0000";
layers = (
{
layerId = UUID0;
paths = (
{
closed = 1;
nodes = (
"424 1362 LINE SMOOTH",
"422 1270 OFFCURVE",
"444 1168 OFFCURVE",
"460 1092 CURVE",
"472 1076 OFFCURVE",
"484 1070 OFFCURVE",
"494 1070 CURVE SMOOTH",
"504 1070 OFFCURVE",
"516 1078 OFFCURVE",
"528 1092 CURVE",
"542 1168 OFFCURVE",
"566 1270 OFFCURVE",
"564 1362 CURVE SMOOTH",
"562 1462 LINE",
"526 1478 OFFCURVE",
"460 1478 OFFCURVE",
"426 1462 CURVE"
);
},
{
closed = 1;
nodes = (
"194 1094 LINE SMOOTH",
"282 1062 OFFCURVE",
"386 1054 OFFCURVE",
"462 1046 CURVE",
"482 1050 OFFCURVE",
"490 1060 OFFCURVE",
"494 1070 CURVE SMOOTH",
"498 1080 OFFCURVE",
"494 1094 OFFCURVE",
"484 1110 CURVE",
"416 1144 OFFCURVE",
"326 1200 OFFCURVE",
"238 1228 CURVE SMOOTH",
"144 1256 LINE",
"116 1226 OFFCURVE",
"96 1164 OFFCURVE",
"100 1128 CURVE"
);
},
{
closed = 1;
nodes = (
"378 792 LINE SMOOTH",
"436 866 OFFCURVE",
"476 962 OFFCURVE",
"508 1034 CURVE",
"510 1052 OFFCURVE",
"502 1064 OFFCURVE",
"494 1070 CURVE SMOOTH",
"486 1076 OFFCURVE",
"472 1078 OFFCURVE",
"452 1072 CURVE",
"398 1020 OFFCURVE",
"318 950 OFFCURVE",
"264 874 CURVE SMOOTH",
"208 794 LINE",
"230 758 OFFCURVE",
"282 722 OFFCURVE",
"318 714 CURVE"
);
},
{
closed = 1;
nodes = (
"724 874 LINE SMOOTH",
"672 950 OFFCURVE",
"592 1020 OFFCURVE",
"534 1072 CURVE",
"516 1080 OFFCURVE",
"502 1076 OFFCURVE",
"494 1070 CURVE SMOOTH",
"486 1064 OFFCURVE",
"480 1052 OFFCURVE",
"480 1032 CURVE",
"514 962 OFFCURVE",
"552 866 OFFCURVE",
"610 792 CURVE SMOOTH",
"668 714 LINE",
"710 722 OFFCURVE",
"760 760 OFFCURVE",
"778 792 CURVE"
);
},
{
closed = 1;
nodes = (
"750 1228 LINE SMOOTH",
"662 1202 OFFCURVE",
"572 1148 OFFCURVE",
"504 1108 CURVE",
"492 1094 OFFCURVE",
"490 1080 OFFCURVE",
"494 1070 CURVE SMOOTH",
"498 1060 OFFCURVE",
"506 1052 OFFCURVE",
"528 1046 CURVE",
"602 1056 OFFCURVE",
"706 1064 OFFCURVE",
"794 1094 CURVE SMOOTH",
"888 1126 LINE",
"892 1168 OFFCURVE",
"870 1230 OFFCURVE",
"846 1254 CURVE"
);
}
);
width = 988;
},
{
layerId = UUID1;
paths = (
{
closed = 1;
nodes = (
"400 1328 LINE SMOOTH",
"406 1238 OFFCURVE",
"446 1140 OFFCURVE",
"474 1048 CURVE",
"486 1034 OFFCURVE",
"504 1026 OFFCURVE",
"522 1026 CURVE SMOOTH",
"540 1026 OFFCURVE",
"558 1034 OFFCURVE",
"570 1048 CURVE",
"598 1140 OFFCURVE",
"638 1238 OFFCURVE",
"644 1328 CURVE SMOOTH",
"652 1460 LINE",
"592 1484 OFFCURVE",
"450 1484 OFFCURVE",
"392 1460 CURVE"
);
},
{
closed = 1;
nodes = (
"198 1004 LINE SMOOTH",
"284 982 OFFCURVE",
"390 988 OFFCURVE",
"486 988 CURVE",
"504 994 OFFCURVE",
"516 1008 OFFCURVE",
"522 1026 CURVE SMOOTH",
"528 1044 OFFCURVE",
"526 1062 OFFCURVE",
"516 1078 CURVE",
"438 1134 OFFCURVE",
"356 1204 OFFCURVE",
"272 1236 CURVE SMOOTH",
"150 1284 LINE",
"108 1234 OFFCURVE",
"64 1100 OFFCURVE",
"70 1036 CURVE"
);
},
{
closed = 1;
nodes = (
"442 712 LINE SMOOTH",
"490 788 OFFCURVE",
"518 888 OFFCURVE",
"548 980 CURVE",
"546 998 OFFCURVE",
"538 1014 OFFCURVE",
"522 1026 CURVE SMOOTH",
"506 1038 OFFCURVE",
"488 1040 OFFCURVE",
"470 1036 CURVE",
"394 980 OFFCURVE",
"302 924 OFFCURVE",
"246 854 CURVE SMOOTH",
"162 752 LINE",
"196 696 OFFCURVE",
"310 614 OFFCURVE",
"372 600 CURVE"
);
},
{
closed = 1;
nodes = (
"796 852 LINE SMOOTH",
"738 922 OFFCURVE",
"652 980 OFFCURVE",
"574 1036 CURVE",
"556 1040 OFFCURVE",
"538 1038 OFFCURVE",
"522 1026 CURVE SMOOTH",
"506 1014 OFFCURVE",
"498 998 OFFCURVE",
"496 980 CURVE",
"526 890 OFFCURVE",
"552 786 OFFCURVE",
"600 710 CURVE SMOOTH",
"672 598 LINE",
"736 614 OFFCURVE",
"848 698 OFFCURVE",
"880 752 CURVE"
);
},
{
closed = 1;
nodes = (
"772 1232 LINE SMOOTH",
"688 1198 OFFCURVE",
"606 1136 OFFCURVE",
"528 1078 CURVE",
"520 1062 OFFCURVE",
"516 1044 OFFCURVE",
"522 1026 CURVE SMOOTH",
"528 1008 OFFCURVE",
"542 994 OFFCURVE",
"558 988 CURVE",
"652 988 OFFCURVE",
"760 980 OFFCURVE",
"846 1002 CURVE SMOOTH",
"976 1036 LINE",
"980 1102 OFFCURVE",
"934 1234 OFFCURVE",
"894 1282 CURVE"
);
}
);
width = 1046;
}
);
unicode = 002A;
},
{
glyphname = comma;
lastChange = "2021-07-09 03:44:18 +0000";
layers = (
{
layerId = UUID0;
paths = (
{
closed = 1;
nodes = (
"342 190 OFFCURVE",
"292 198 OFFCURVE",
"260 198 CURVE SMOOTH",
"226 198 OFFCURVE",
"174 186 OFFCURVE",
"158 178 CURVE",
"148 164 OFFCURVE",
"142 120 OFFCURVE",
"142 90 CURVE SMOOTH",
"142 60 OFFCURVE",
"150 22 OFFCURVE",
"158 8 CURVE",
"174 -4 OFFCURVE",
"212 -14 OFFCURVE",
"234 -18 CURVE",
"234 -102 OFFCURVE",
"172 -176 OFFCURVE",
"82 -220 CURVE",
"80 -248 OFFCURVE",
"96 -284 OFFCURVE",
"122 -298 CURVE",
"294 -234 OFFCURVE",
"378 -92 OFFCURVE",
"378 62 CURVE SMOOTH",
"378 104 OFFCURVE",
"370 154 OFFCURVE",
"358 178 CURVE"
);
}
);
width = 504;
},
{
layerId = UUID1;
paths = (
{
closed = 1;
nodes = (
"422 284 OFFCURVE",
"354 300 OFFCURVE",
"300 300 CURVE SMOOTH",
"246 300 OFFCURVE",
"180 284 OFFCURVE",
"142 262 CURVE",
"128 236 OFFCURVE",
"118 176 OFFCURVE",
"118 136 CURVE SMOOTH",
"118 96 OFFCURVE",
"128 42 OFFCURVE",
"142 16 CURVE",
"162 0 OFFCURVE",
"196 -10 OFFCURVE",
"230 -16 CURVE",
"214 -110 OFFCURVE",
"134 -184 OFFCURVE",
"40 -216 CURVE",
"34 -274 OFFCURVE",
"62 -338 OFFCURVE",
"118 -366 CURVE",
"360 -292 OFFCURVE",
"484 -92 OFFCURVE",
"484 100 CURVE SMOOTH",
"484 158 OFFCURVE",
"478 206 OFFCURVE",
"458 262 CURVE"
);
}
);
width = 598;
}
);
leftKerningGroup = comma;
rightKerningGroup = comma;
unicode = 002C;
},
{
glyphname = period;
lastChange = "2021-07-09 03:44:18 +0000";
layers = (
{
layerId = UUID0;
paths = (
{
closed = 1;
nodes = (
"132 68 OFFCURVE",
"138 22 OFFCURVE",
"148 6 CURVE",
"166 -4 OFFCURVE",
"212 -14 OFFCURVE",
"248 -14 CURVE SMOOTH",
"280 -14 OFFCURVE",
"334 -4 OFFCURVE",
"348 6 CURVE",
"358 22 OFFCURVE",
"364 68 OFFCURVE",
"364 92 CURVE SMOOTH",
"364 116 OFFCURVE",
"358 162 OFFCURVE",
"348 178 CURVE",
"332 188 OFFCURVE",
"280 198 OFFCURVE",
"248 198 CURVE SMOOTH",
"212 198 OFFCURVE",
"166 188 OFFCURVE",
"148 178 CURVE",
"138 162 OFFCURVE",
"132 116 OFFCURVE",
"132 92 CURVE SMOOTH"
);
}
);
width = 496;
},
{
layerId = UUID1;
paths = (
{
closed = 1;
nodes = (
"104 116 OFFCURVE",
"110 54 OFFCURVE",
"128 16 CURVE",
"170 -10 OFFCURVE",
"236 -22 OFFCURVE",
"290 -22 CURVE SMOOTH",
"344 -22 OFFCURVE",
"410 -10 OFFCURVE",
"452 16 CURVE",
"470 54 OFFCURVE",
"476 116 OFFCURVE",
"476 140 CURVE SMOOTH",
"476 164 OFFCURVE",
"470 226 OFFCURVE",
"452 264 CURVE",
"410 288 OFFCURVE",
"344 302 OFFCURVE",
"290 302 CURVE SMOOTH",
"236 302 OFFCURVE",
"170 288 OFFCURVE",
"128 264 CURVE",
"110 226 OFFCURVE",
"104 164 OFFCURVE",
"104 140 CURVE SMOOTH"
);
}
);
width = 580;
}
);
leftKerningGroup = comma;
rightKerningGroup = comma;
unicode = 002E;
},
{
glyphname = question;
lastChange = "2021-07-09 03:44:18 +0000";
layers = (
{
layerId = UUID0;
paths = (
{
closed = 1;
nodes = (
"38 1254 OFFCURVE",
"64 1206 OFFCURVE",
"86 1184 CURVE",
"172 1226 OFFCURVE",
"270 1260 OFFCURVE",
"366 1260 CURVE SMOOTH",
"502 1260 OFFCURVE",
"588 1176 OFFCURVE",
"588 1050 CURVE SMOOTH",
"588 916 OFFCURVE",
"484 820 OFFCURVE",
"322 734 CURVE SMOOTH",
"232 686 LINE",
"220 668 LINE",
"228 370 LINE",
"244 364 OFFCURVE",
"266 362 OFFCURVE",
"286 362 CURVE SMOOTH",
"304 362 OFFCURVE",
"322 364 OFFCURVE",
"338 370 CURVE",
"352 606 LINE",
"480 680 LINE SMOOTH",
"624 764 OFFCURVE",
"740 886 OFFCURVE",
"740 1062 CURVE SMOOTH",
"740 1264 OFFCURVE",
"596 1388 OFFCURVE",
"396 1388 CURVE SMOOTH",
"268 1388 OFFCURVE",
"140 1350 OFFCURVE",
"34 1296 CURVE"
);
},
{
closed = 1;
nodes = (
"250 182 OFFCURVE",
"214 174 OFFCURVE",
"194 162 CURVE",
"186 148 OFFCURVE",
"180 106 OFFCURVE",
"180 84 CURVE SMOOTH",
"180 62 OFFCURVE",
"186 20 OFFCURVE",
"194 6 CURVE",
"214 -6 OFFCURVE",
"250 -14 OFFCURVE",
"284 -14 CURVE SMOOTH",
"316 -14 OFFCURVE",
"356 -6 OFFCURVE",
"376 6 CURVE",
"384 20 OFFCURVE",
"390 62 OFFCURVE",
"390 84 CURVE SMOOTH",
"390 106 OFFCURVE",
"384 148 OFFCURVE",
"376 162 CURVE",
"356 174 OFFCURVE",
"316 182 OFFCURVE",
"284 182 CURVE SMOOTH"
);
}
);
width = 760;
},
{
layerId = UUID1;
paths = (
{
closed = 1;
nodes = (
"4 1198 OFFCURVE",
"56 1094 OFFCURVE",
"118 1048 CURVE",
"186 1086 OFFCURVE",
"262 1118 OFFCURVE",
"342 1118 CURVE SMOOTH",
"444 1118 OFFCURVE",
"494 1068 OFFCURVE",
"494 994 CURVE SMOOTH",
"494 908 OFFCURVE",
"413 851 OFFCURVE",
"308 804 CURVE SMOOTH",
"196 754 LINE",
"170 722 LINE",
"188 424 LINE",
"228 412 OFFCURVE",
"276 408 OFFCURVE",
"314 408 CURVE SMOOTH",
"354 408 OFFCURVE",
"396 412 OFFCURVE",
"434 424 CURVE",
"454 570 LINE",
"574 632 LINE SMOOTH",
"724 710 OFFCURVE",
"836 828 OFFCURVE",
"836 1030 CURVE SMOOTH",
"836 1242 OFFCURVE",
"694 1398 OFFCURVE",
"416 1398 CURVE SMOOTH",
"256 1398 OFFCURVE",
"112 1348 OFFCURVE",
"0 1280 CURVE"
);
},
{
closed = 1;
nodes = (
"258 280 OFFCURVE",
"200 268 OFFCURVE",
"160 246 CURVE",
"146 220 OFFCURVE",
"138 162 OFFCURVE",
"138 124 CURVE SMOOTH",
"138 86 OFFCURVE",
"146 30 OFFCURVE",
"160 4 CURVE",
"200 -18 OFFCURVE",
"258 -30 OFFCURVE",
"314 -30 CURVE SMOOTH",
"370 -30 OFFCURVE",
"428 -18 OFFCURVE",
"466 4 CURVE",
"482 30 OFFCURVE",
"490 86 OFFCURVE",
"490 124 CURVE SMOOTH",
"490 162 OFFCURVE",
"482 220 OFFCURVE",
"466 246 CURVE",
"428 268 OFFCURVE",
"370 280 OFFCURVE",
"314 280 CURVE SMOOTH"
);
}
);
width = 848;
}
);
unicode = 003F;
},
{
glyphname = exclam;
lastChange = "2021-07-09 03:44:18 +0000";
layers = (
{
layerId = UUID0;
paths = (
{
closed = 1;
nodes = (
"234 364 OFFCURVE",
"254 362 OFFCURVE",
"274 362 CURVE SMOOTH",
"294 362 OFFCURVE",
"314 364 OFFCURVE",
"330 370 CURVE",
"342 640 OFFCURVE",
"354 910 OFFCURVE",
"354 1180 CURVE SMOOTH",
"354 1364 LINE",
"314 1376 OFFCURVE",
"234 1376 OFFCURVE",
"194 1366 CURVE",
"194 1180 LINE SMOOTH",
"194 910 OFFCURVE",
"208 642 OFFCURVE",
"218 370 CURVE"
);
},
{
closed = 1;
nodes = (
"240 182 OFFCURVE",
"204 174 OFFCURVE",
"184 162 CURVE",
"176 148 OFFCURVE",
"170 106 OFFCURVE",
"170 84 CURVE SMOOTH",
"170 62 OFFCURVE",
"176 20 OFFCURVE",
"184 6 CURVE",
"204 -6 OFFCURVE",
"240 -14 OFFCURVE",
"274 -14 CURVE SMOOTH",
"306 -14 OFFCURVE",
"344 -6 OFFCURVE",
"364 6 CURVE",
"372 20 OFFCURVE",
"378 62 OFFCURVE",
"378 84 CURVE SMOOTH",
"378 106 OFFCURVE",
"372 148 OFFCURVE",
"364 162 CURVE",
"344 174 OFFCURVE",
"306 182 OFFCURVE",
"274 182 CURVE SMOOTH"
);
}
);
width = 550;
},
{
layerId = UUID1;
paths = (
{
closed = 1;
nodes = (
"220 410 OFFCURVE",
"274 408 OFFCURVE",
"302 408 CURVE SMOOTH",
"334 408 OFFCURVE",
"380 410 OFFCURVE",
"424 422 CURVE",
"444 678 OFFCURVE",
"484 932 OFFCURVE",
"484 1188 CURVE SMOOTH",
"484 1364 LINE",
"394 1390 OFFCURVE",
"210 1390 OFFCURVE",
"120 1364 CURVE",
"120 1192 LINE SMOOTH",
"120 932 OFFCURVE",
"154 678 OFFCURVE",
"178 422 CURVE"
);
},
{
closed = 1;
nodes = (
"246 286 OFFCURVE",
"188 274 OFFCURVE",
"148 252 CURVE",
"134 226 OFFCURVE",
"126 168 OFFCURVE",
"126 130 CURVE SMOOTH",
"126 92 OFFCURVE",
"134 36 OFFCURVE",
"148 10 CURVE",
"188 -12 OFFCURVE",
"246 -24 OFFCURVE",
"302 -24 CURVE SMOOTH",
"358 -24 OFFCURVE",
"416 -12 OFFCURVE",
"454 10 CURVE",
"470 36 OFFCURVE",
"478 92 OFFCURVE",
"478 130 CURVE SMOOTH",
"478 168 OFFCURVE",
"470 226 OFFCURVE",
"454 252 CURVE",
"416 274 OFFCURVE",
"358 286 OFFCURVE",
"302 286 CURVE SMOOTH"
);
}
);
width = 622;
}
);
unicode = 0021;
},
{
glyphname = at;
lastChange = "2021-07-09 03:44:18 +0000";
layers = (
{
layerId = UUID0;
paths = (
{
closed = 1;
nodes = (
"1282 826 LINE",
"1200 900 OFFCURVE",
"1088 956 OFFCURVE",
"956 956 CURVE SMOOTH",
"702 956 OFFCURVE",
"562 720 OFFCURVE",
"562 452 CURVE SMOOTH",
"562 184 OFFCURVE",
"686 20 OFFCURVE",
"876 20 CURVE SMOOTH",
"1028 20 OFFCURVE",
"1174 140 OFFCURVE",
"1222 258 CURVE",
"1166 338 LINE",
"1128 240 OFFCURVE",
"1002 138 OFFCURVE",
"902 138 CURVE SMOOTH",
"762 138 OFFCURVE",
"702 276 OFFCURVE",
"702 452 CURVE SMOOTH",
"702 668 OFFCURVE",
"794 848 OFFCURVE",
"956 848 CURVE SMOOTH",
"1036 848 OFFCURVE",
"1110 810 OFFCURVE",
"1146 772 CURVE",
"1146 264 LINE SMOOTH",
"1146 122 OFFCURVE",
"1228 30 OFFCURVE",
"1376 30 CURVE SMOOTH",
"1576 30 OFFCURVE",
"1762 228 OFFCURVE",
"1762 572 CURVE SMOOTH",
"1762 1032 OFFCURVE",
"1440 1344 OFFCURVE",
"962 1344 CURVE SMOOTH",
"462 1344 OFFCURVE",
"116 958 OFFCURVE",
"116 456 CURVE SMOOTH",
"116 -64 OFFCURVE",
"436 -358 OFFCURVE",
"874 -358 CURVE SMOOTH",
"1034 -358 OFFCURVE",
"1186 -330 OFFCURVE",
"1336 -276 CURVE",
"1336 -238 OFFCURVE",
"1316 -192 OFFCURVE",
"1294 -174 CURVE",
"1174 -224 OFFCURVE",
"1034 -246 OFFCURVE",
"880 -246 CURVE SMOOTH",
"514 -246 OFFCURVE",
"256 8 OFFCURVE",
"256 456 CURVE SMOOTH",
"256 896 OFFCURVE",
"534 1238 OFFCURVE",
"962 1238 CURVE SMOOTH",
"1364 1238 OFFCURVE",
"1624 970 OFFCURVE",
"1624 578 CURVE SMOOTH",
"1624 256 OFFCURVE",
"1498 142 OFFCURVE",
"1386 142 CURVE SMOOTH",
"1316 142 OFFCURVE",
"1282 186 OFFCURVE",
"1282 306 CURVE SMOOTH"
);
}
);
width = 1858;
},
{
layerId = UUID1;
paths = (
{
closed = 1;
nodes = (
"1400 822 LINE",
"1324 900 OFFCURVE",
"1168 974 OFFCURVE",
"1010 974 CURVE SMOOTH",
"730 974 OFFCURVE",
"576 764 OFFCURVE",
"576 454 CURVE SMOOTH",
"576 184 OFFCURVE",
"686 -8 OFFCURVE",
"904 -8 CURVE SMOOTH",
"1070 -8 OFFCURVE",
"1228 140 OFFCURVE",
"1280 254 CURVE",
"1168 396 LINE",
"1132 312 OFFCURVE",
"1052 234 OFFCURVE",
"980 234 CURVE SMOOTH",
"908 234 OFFCURVE",
"888 304 OFFCURVE",
"888 470 CURVE SMOOTH",
"888 622 OFFCURVE",
"906 748 OFFCURVE",
"1010 748 CURVE SMOOTH",
"1046 748 OFFCURVE",
"1070 740 OFFCURVE",
"1098 718 CURVE",
"1098 324 LINE SMOOTH",
"1098 146 OFFCURVE",
"1246 -2 OFFCURVE",
"1458 -2 CURVE SMOOTH",
"1674 -2 OFFCURVE",
"1908 172 OFFCURVE",
"1908 594 CURVE SMOOTH",
"1908 1096 OFFCURVE",
"1520 1374 OFFCURVE",
"1016 1374 CURVE SMOOTH",
"474 1374 OFFCURVE",
"74 990 OFFCURVE",
"74 442 CURVE SMOOTH",
"74 -150 OFFCURVE",
"428 -410 OFFCURVE",
"926 -410 CURVE SMOOTH",
"1090 -410 OFFCURVE",
"1298 -364 OFFCURVE",
"1422 -308 CURVE",
"1422 -238 OFFCURVE",
"1396 -146 OFFCURVE",
"1342 -86 CURVE",
"1216 -134 OFFCURVE",
"1084 -162 OFFCURVE",
"952 -162 CURVE SMOOTH",
"610 -162 OFFCURVE",
"400 28 OFFCURVE",
"400 442 CURVE SMOOTH",
"400 850 OFFCURVE",
"644 1134 OFFCURVE",
"1016 1134 CURVE SMOOTH",
"1360 1134 OFFCURVE",
"1586 936 OFFCURVE",
"1586 602 CURVE SMOOTH",
"1586 322 OFFCURVE",
"1530 234 OFFCURVE",
"1458 234 CURVE SMOOTH",
"1416 234 OFFCURVE",
"1400 262 OFFCURVE",
"1400 330 CURVE SMOOTH"
);
}
);
width = 1968;
}
);
unicode = 0040;
},
{
glyphname = parenleft;
lastChange = "2021-07-09 03:44:18 +0000";
layers = (
{
layerId = UUID0;
paths = (
{
closed = 1;
nodes = (
"286 876 OFFCURVE",
"374 1202 OFFCURVE",
"582 1460 CURVE",
"562 1506 OFFCURVE",
"530 1530 OFFCURVE",
"494 1540 CURVE",
"262 1308 OFFCURVE",
"130 900 OFFCURVE",
"130 552 CURVE SMOOTH",
"130 204 OFFCURVE",
"262 -204 OFFCURVE",
"494 -436 CURVE",
"530 -426 OFFCURVE",
"562 -402 OFFCURVE",
"582 -356 CURVE",
"374 -98 OFFCURVE",
"286 228 OFFCURVE",
"286 552 CURVE SMOOTH"
);
}
);
width = 608;
},
{
layerId = UUID1;
paths = (
{
closed = 1;
nodes = (
"456 830 OFFCURVE",
"542 1164 OFFCURVE",
"722 1420 CURVE",
"682 1506 OFFCURVE",
"608 1564 OFFCURVE",
"534 1590 CURVE",
"254 1326 OFFCURVE",
"116 900 OFFCURVE",
"116 544 CURVE SMOOTH",
"116 188 OFFCURVE",
"254 -238 OFFCURVE",
"534 -502 CURVE",
"608 -476 OFFCURVE",
"682 -418 OFFCURVE",
"722 -332 CURVE",
"542 -76 OFFCURVE",
"456 258 OFFCURVE",
"456 544 CURVE SMOOTH"
);
}
);
width = 762;
}
);
unicode = 0028;
},
{
glyphname = parenright;
lastChange = "2021-07-09 03:44:18 +0000";
layers = (
{
layerId = UUID0;
paths = (
{
closed = 1;
nodes = (
"322 876 OFFCURVE",
"234 1202 OFFCURVE",
"26 1460 CURVE",
"46 1506 OFFCURVE",
"78 1530 OFFCURVE",
"114 1540 CURVE",
"346 1308 OFFCURVE",
"478 900 OFFCURVE",
"478 552 CURVE SMOOTH",
"478 204 OFFCURVE",
"346 -204 OFFCURVE",
"114 -436 CURVE",
"78 -426 OFFCURVE",
"46 -402 OFFCURVE",
"26 -356 CURVE",
"234 -98 OFFCURVE",
"322 228 OFFCURVE",
"322 552 CURVE SMOOTH"
);
}
);
width = 608;
},
{
layerId = UUID1;
paths = (
{
closed = 1;
nodes = (
"306 830 OFFCURVE",
"220 1164 OFFCURVE",
"40 1420 CURVE",
"80 1506 OFFCURVE",
"154 1564 OFFCURVE",
"228 1590 CURVE",
"508 1326 OFFCURVE",
"646 900 OFFCURVE",
"646 544 CURVE SMOOTH",
"646 188 OFFCURVE",
"508 -238 OFFCURVE",
"228 -502 CURVE",
"154 -476 OFFCURVE",
"80 -418 OFFCURVE",
"40 -332 CURVE",
"220 -76 OFFCURVE",
"306 258 OFFCURVE",
"306 544 CURVE SMOOTH"
);
}
);
width = 762;
}
);
unicode = 0029;
},
{
glyphname = bracketleft;
lastChange = "2021-07-09 03:44:18 +0000";
layers = (
{
layerId = UUID0;
paths = (
{
closed = 1;
nodes = (
"200 -368 LINE",
"344 -320 LINE",
"344 1450 LINE",
"200 1502 LINE"
);
},
{
closed = 1;
nodes = (
"558 -366 LINE",
"562 -350 OFFCURVE",
"562 -336 OFFCURVE",
"562 -322 CURVE SMOOTH",
"562 -302 OFFCURVE",
"556 -276 OFFCURVE",
"550 -258 CURVE",
"212 -250 LINE",
"200 -368 LINE",
"212 -380 LINE"
);
},
{
closed = 1;
nodes = (
"212 1514 LINE",
"200 1502 LINE",
"212 1384 LINE",
"550 1392 LINE",
"556 1410 OFFCURVE",
"562 1436 OFFCURVE",
"562 1456 CURVE SMOOTH",
"562 1470 OFFCURVE",
"562 1484 OFFCURVE",
"558 1500 CURVE"
);
}
);
width = 622;
},
{
layerId = UUID1;
paths = (
{
closed = 1;
nodes = (
"196 -416 LINE",
"514 -336 LINE",
"514 1434 LINE",
"196 1544 LINE"
);
},
{
closed = 1;
nodes = (
"726 -414 LINE",
"734 -394 OFFCURVE",
"738 -348 OFFCURVE",
"738 -324 CURVE SMOOTH",
"738 -272 OFFCURVE",
"724 -216 OFFCURVE",
"714 -192 CURVE",
"222 -178 LINE",
"196 -416 LINE",
"214 -432 LINE"
);
},
{
closed = 1;
nodes = (
"214 1560 LINE",
"196 1544 LINE",
"222 1306 LINE",
"714 1320 LINE",
"724 1344 OFFCURVE",
"738 1400 OFFCURVE",
"738 1452 CURVE SMOOTH",
"738 1476 OFFCURVE",
"734 1522 OFFCURVE",
"726 1542 CURVE"
);
}
);
width = 804;
}
);
unicode = 005B;
},
{
glyphname = bracketright;
lastChange = "2021-07-09 03:44:18 +0000";
layers = (
{
layerId = UUID0;
paths = (
{
closed = 1;
nodes = (
"422 -368 LINE",
"278 -320 LINE",
"278 1450 LINE",
"422 1502 LINE"
);
},
{
closed = 1;
nodes = (
"64 -366 LINE",
"60 -350 OFFCURVE",
"60 -336 OFFCURVE",
"60 -322 CURVE SMOOTH",
"60 -302 OFFCURVE",
"66 -276 OFFCURVE",
"72 -258 CURVE",
"410 -250 LINE",
"422 -368 LINE",
"410 -380 LINE"
);
},
{
closed = 1;
nodes = (
"410 1514 LINE",
"422 1502 LINE",
"410 1384 LINE",
"72 1392 LINE",
"66 1410 OFFCURVE",
"60 1436 OFFCURVE",
"60 1456 CURVE SMOOTH",
"60 1470 OFFCURVE",
"60 1484 OFFCURVE",
"64 1500 CURVE"
);
}
);
width = 622;
},
{
layerId = UUID1;
paths = (
{
closed = 1;
nodes = (
"608 -416 LINE",
"290 -336 LINE",
"290 1434 LINE",
"608 1544 LINE"
);
},
{
closed = 1;
nodes = (
"78 -414 LINE",
"70 -394 OFFCURVE",
"66 -348 OFFCURVE",
"66 -324 CURVE SMOOTH",
"66 -272 OFFCURVE",
"80 -216 OFFCURVE",
"90 -192 CURVE",
"582 -178 LINE",
"608 -416 LINE",
"590 -432 LINE"
);
},
{
closed = 1;
nodes = (
"590 1560 LINE",
"608 1544 LINE",
"582 1306 LINE",
"90 1320 LINE",
"80 1344 OFFCURVE",
"66 1400 OFFCURVE",
"66 1452 CURVE SMOOTH",
"66 1476 OFFCURVE",
"70 1522 OFFCURVE",
"78 1542 CURVE"
);
}
);
width = 804;
}
);
unicode = 005D;
},
{
glyphname = braceleft;
lastChange = "2021-07-09 03:44:18 +0000";
layers = (
{
layerId = UUID0;
paths = (
{
closed = 1;
nodes = (
"72 574 OFFCURVE",
"72 522 OFFCURVE",
"82 500 CURVE",
"170 464 OFFCURVE",
"242 380 OFFCURVE",
"242 254 CURVE SMOOTH",
"242 -100 LINE SMOOTH",
"242 -280 OFFCURVE",
"352 -382 OFFCURVE",
"502 -408 CURVE SMOOTH",
"584 -422 LINE",
"604 -400 OFFCURVE",
"616 -354 OFFCURVE",
"608 -318 CURVE",
"522 -292 LINE SMOOTH",
"430 -264 OFFCURVE",
"386 -198 OFFCURVE",
"386 -98 CURVE SMOOTH",
"386 250 LINE SMOOTH",
"386 370 OFFCURVE",
"324 492 OFFCURVE",
"226 540 CURVE",
"226 556 LINE",
"324 604 OFFCURVE",
"386 726 OFFCURVE",
"386 846 CURVE SMOOTH",
"386 1192 LINE SMOOTH",
"386 1292 OFFCURVE",
"430 1358 OFFCURVE",
"522 1386 CURVE SMOOTH",
"608 1412 LINE",
"616 1448 OFFCURVE",
"604 1494 OFFCURVE",
"584 1516 CURVE",
"502 1502 LINE SMOOTH",
"352 1476 OFFCURVE",
"242 1374 OFFCURVE",
"242 1194 CURVE SMOOTH",
"242 842 LINE SMOOTH",
"242 714 OFFCURVE",
"170 632 OFFCURVE",
"82 596 CURVE"
);
}
);
width = 626;
},
{
layerId = UUID1;
paths = (
{
closed = 1;
nodes = (
"70 608 OFFCURVE",
"70 504 OFFCURVE",
"90 452 CURVE",
"190 436 OFFCURVE",
"260 338 OFFCURVE",
"260 236 CURVE SMOOTH",
"260 -82 LINE SMOOTH",
"260 -294 OFFCURVE",
"398 -412 OFFCURVE",
"588 -442 CURVE SMOOTH",
"726 -464 LINE",
"770 -416 OFFCURVE",
"800 -302 OFFCURVE",
"788 -254 CURVE",
"664 -212 LINE SMOOTH",
"628 -200 OFFCURVE",
"588 -154 OFFCURVE",
"588 -80 CURVE SMOOTH",
"588 232 LINE SMOOTH",
"588 370 OFFCURVE",
"518 502 OFFCURVE",
"410 548 CURVE",
"410 564 LINE",
"518 610 OFFCURVE",
"588 742 OFFCURVE",
"588 880 CURVE SMOOTH",
"588 1192 LINE SMOOTH",
"588 1266 OFFCURVE",
"628 1312 OFFCURVE",
"664 1324 CURVE SMOOTH",
"788 1366 LINE",
"800 1414 OFFCURVE",
"770 1528 OFFCURVE",
"726 1576 CURVE",
"588 1554 LINE SMOOTH",
"398 1524 OFFCURVE",
"260 1406 OFFCURVE",
"260 1194 CURVE SMOOTH",
"260 876 LINE SMOOTH",
"260 774 OFFCURVE",
"190 676 OFFCURVE",
"90 660 CURVE"
);
}
);
width = 812;
}
);
unicode = 007B;
},
{
glyphname = braceright;
lastChange = "2021-07-09 03:44:18 +0000";
layers = (
{
layerId = UUID0;
paths = (
{
closed = 1;
nodes = (
"554 574 OFFCURVE",
"554 522 OFFCURVE",
"544 500 CURVE",
"456 464 OFFCURVE",
"384 380 OFFCURVE",
"384 254 CURVE SMOOTH",
"384 -100 LINE SMOOTH",
"384 -280 OFFCURVE",
"274 -382 OFFCURVE",
"124 -408 CURVE SMOOTH",
"42 -422 LINE",
"22 -400 OFFCURVE",
"10 -354 OFFCURVE",
"18 -318 CURVE",
"104 -292 LINE SMOOTH",
"196 -264 OFFCURVE",
"240 -198 OFFCURVE",
"240 -98 CURVE SMOOTH",
"240 250 LINE SMOOTH",
"240 370 OFFCURVE",
"302 492 OFFCURVE",
"400 540 CURVE",
"400 556 LINE",
"302 604 OFFCURVE",
"240 726 OFFCURVE",
"240 846 CURVE SMOOTH",
"240 1192 LINE SMOOTH",
"240 1292 OFFCURVE",
"196 1358 OFFCURVE",
"104 1386 CURVE SMOOTH",
"18 1412 LINE",
"10 1448 OFFCURVE",
"22 1494 OFFCURVE",
"42 1516 CURVE",
"124 1502 LINE SMOOTH",
"274 1476 OFFCURVE",
"384 1374 OFFCURVE",
"384 1194 CURVE SMOOTH",
"384 842 LINE SMOOTH",
"384 714 OFFCURVE",
"456 632 OFFCURVE",
"544 596 CURVE"
);
}
);
width = 626;
},
{
layerId = UUID1;
paths = (
{
closed = 1;
nodes = (
"742 608 OFFCURVE",
"742 504 OFFCURVE",
"722 452 CURVE",
"622 436 OFFCURVE",
"552 338 OFFCURVE",
"552 236 CURVE SMOOTH",
"552 -82 LINE SMOOTH",
"552 -294 OFFCURVE",
"414 -412 OFFCURVE",
"224 -442 CURVE SMOOTH",
"86 -464 LINE",
"42 -416 OFFCURVE",
"12 -302 OFFCURVE",
"24 -254 CURVE",
"148 -212 LINE SMOOTH",
"184 -200 OFFCURVE",
"224 -154 OFFCURVE",
"224 -80 CURVE SMOOTH",
"224 232 LINE SMOOTH",
"224 370 OFFCURVE",
"294 502 OFFCURVE",
"402 548 CURVE",
"402 564 LINE",
"294 610 OFFCURVE",
"224 742 OFFCURVE",
"224 880 CURVE",
"224 1192 LINE",
"224 1266 OFFCURVE",
"184 1312 OFFCURVE",
"148 1324 CURVE SMOOTH",
"24 1366 LINE",
"12 1414 OFFCURVE",
"42 1528 OFFCURVE",
"86 1576 CURVE",
"224 1554 LINE SMOOTH",
"414 1524 OFFCURVE",
"552 1406 OFFCURVE",
"552 1194 CURVE",
"552 876 LINE",
"552 774 OFFCURVE",
"622 676 OFFCURVE",
"722 660 CURVE"
);
}
);
width = 812;
}
);
unicode = 007D;
},
{
glyphname = "leftanglebracket-math";
lastChange = "2021-07-09 03:44:18 +0000";
layers = (
{
layerId = UUID0;
paths = (
{
closed = 1;
nodes = (
"77 560 LINE",
"447 1538 LINE",
"488 1538 OFFCURVE",
"535 1521 OFFCURVE",
"558 1495 CURVE",
"252 552 LINE",
"558 -391 LINE",
"535 -417 OFFCURVE",
"488 -434 OFFCURVE",
"447 -434 CURVE",
"77 544 LINE"
);
}
);
width = 612;
},
{
layerId = UUID1;
paths = (
{
closed = 1;
nodes = (
"62 555 LINE",
"524 1585 LINE",
"611 1583 OFFCURVE",
"715 1537 OFFCURVE",
"762 1477 CURVE",
"427 543 LINE",
"762 -391 LINE",
"715 -451 OFFCURVE",
"611 -497 OFFCURVE",
"524 -499 CURVE",
"62 531 LINE"
);
}
);
width = 790;
}
);
unicode = 27E8;
},
{
glyphname = "rightanglebracket-math";
lastChange = "2021-07-09 03:44:18 +0000";
layers = (
{
guideLines = (
{
position = "{151, -433}";
}
);
layerId = UUID0;
paths = (
{
closed = 1;
nodes = (
"165 -434 LINE",
"124 -434 OFFCURVE",
"77 -417 OFFCURVE",
"54 -391 CURVE",
"360 552 LINE",
"54 1495 LINE",
"77 1521 OFFCURVE",
"124 1538 OFFCURVE",
"165 1538 CURVE",
"535 560 LINE",
"535 544 LINE"
);
}
);
width = 612;
},
{
guideLines = (
{
position = "{232, -499}";
}
);
layerId = UUID1;
paths = (
{
closed = 1;
nodes = (
"266 -499 LINE",
"179 -497 OFFCURVE",
"75 -451 OFFCURVE",
"28 -391 CURVE",
"363 543 LINE",
"28 1477 LINE",
"75 1537 OFFCURVE",
"179 1583 OFFCURVE",
"266 1585 CURVE",
"728 555 LINE",
"728 531 LINE"
);
}
);
width = 790;
}
);
unicode = 27E9;
},
{
glyphname = backslash;
lastChange = "2021-07-09 03:44:18 +0000";
layers = (
{
layerId = UUID0;
paths = (
{
closed = 1;
nodes = (
"28 1368 LINE",
"64 1396 OFFCURVE",
"112 1414 OFFCURVE",
"152 1414 CURVE",
"786 -264 LINE",
"752 -290 OFFCURVE",
"700 -308 OFFCURVE",
"662 -310 CURVE"
);
}
);
width = 808;
},
{
layerId = UUID1;
paths = (
{
closed = 1;
nodes = (
"4 1332 LINE",
"84 1394 OFFCURVE",
"186 1426 OFFCURVE",
"282 1438 CURVE",
"910 -236 LINE",
"830 -298 OFFCURVE",
"728 -330 OFFCURVE",
"632 -342 CURVE"
);
}
);
width = 910;
}
);
unicode = 005C;
},
{
glyphname = slash;
lastChange = "2021-07-09 03:44:18 +0000";
layers = (
{
layerId = UUID0;
paths = (
{
closed = 1;
nodes = (
"22 -264 LINE",
"58 -292 OFFCURVE",
"106 -310 OFFCURVE",
"146 -310 CURVE",
"780 1368 LINE",
"746 1394 OFFCURVE",
"694 1412 OFFCURVE",
"656 1414 CURVE"
);
}
);
width = 808;
},
{
layerId = UUID1;
paths = (
{
closed = 1;
nodes = (
"0 -236 LINE",
"80 -298 OFFCURVE",
"182 -330 OFFCURVE",
"278 -342 CURVE",
"906 1332 LINE",
"826 1394 OFFCURVE",
"724 1426 OFFCURVE",
"628 1438 CURVE"
);
}
);
width = 910;
}
);
unicode = 002F;
},
{
glyphname = brokenbar;
lastChange = "2021-07-09 03:44:18 +0000";
layers = (
{
layerId = UUID0;
paths = (
{
closed = 1;
nodes = (
"174 -280 LINE",
"192 -284 OFFCURVE",
"216 -286 OFFCURVE",
"238 -286 CURVE SMOOTH",
"264 -286 OFFCURVE",
"286 -284 OFFCURVE",
"306 -280 CURVE",
"306 494 LINE",
"286 498 OFFCURVE",
"264 500 OFFCURVE",
"238 500 CURVE SMOOTH",
"216 500 OFFCURVE",
"192 498 OFFCURVE",
"174 494 CURVE"
);
},
{
closed = 1;
nodes = (
"174 776 LINE",
"192 772 OFFCURVE",
"216 770 OFFCURVE",
"238 770 CURVE SMOOTH",
"264 770 OFFCURVE",
"286 772 OFFCURVE",
"306 776 CURVE",
"306 1550 LINE",
"286 1554 OFFCURVE",
"264 1556 OFFCURVE",
"238 1556 CURVE SMOOTH",
"216 1556 OFFCURVE",
"192 1554 OFFCURVE",
"174 1550 CURVE"
);
}
);
width = 480;
},
{
layerId = UUID1;
paths = (
{
closed = 1;
nodes = (
"116 -284 LINE",
"164 -296 OFFCURVE",
"236 -298 OFFCURVE",
"270 -298 CURVE SMOOTH",
"308 -298 OFFCURVE",
"366 -296 OFFCURVE",
"416 -284 CURVE",
"416 490 LINE",
"366 502 OFFCURVE",
"308 504 OFFCURVE",
"270 504 CURVE SMOOTH",
"236 504 OFFCURVE",
"164 502 OFFCURVE",
"116 490 CURVE"
);
},
{
closed = 1;
nodes = (
"116 772 LINE",
"164 760 OFFCURVE",
"236 758 OFFCURVE",
"270 758 CURVE SMOOTH",
"308 758 OFFCURVE",
"366 760 OFFCURVE",
"416 772 CURVE",
"416 1546 LINE",
"366 1558 OFFCURVE",
"308 1560 OFFCURVE",
"270 1560 CURVE SMOOTH",
"236 1560 OFFCURVE",
"164 1558 OFFCURVE",
"116 1546 CURVE"
);
}
);
width = 532;
}
);
unicode = 00A6;
},
{
glyphname = bar;
lastChange = "2021-07-09 03:44:18 +0000";
layers = (
{
layerId = UUID0;
paths = (
{
closed = 1;
nodes = (
"180 -280 LINE",
"198 -284 OFFCURVE",
"222 -286 OFFCURVE",
"244 -286 CURVE SMOOTH",
"270 -286 OFFCURVE",
"292 -284 OFFCURVE",
"312 -280 CURVE",
"312 1550 LINE",
"292 1554 OFFCURVE",
"270 1556 OFFCURVE",
"244 1556 CURVE SMOOTH",
"222 1556 OFFCURVE",
"198 1554 OFFCURVE",
"180 1550 CURVE"
);
}
);
width = 492;
},
{
layerId = UUID1;
paths = (
{
closed = 1;
nodes = (
"120 -284 LINE",
"168 -296 OFFCURVE",
"242 -298 OFFCURVE",
"276 -298 CURVE SMOOTH",
"314 -298 OFFCURVE",
"374 -296 OFFCURVE",
"424 -284 CURVE",
"424 1546 LINE",
"374 1558 OFFCURVE",
"314 1560 OFFCURVE",
"276 1560 CURVE SMOOTH",
"242 1560 OFFCURVE",
"168 1558 OFFCURVE",
"120 1546 CURVE"
);
}
);
width = 544;
}
);
unicode = 007C;
},
{
glyphname = underscore;
lastChange = "2021-07-09 03:44:18 +0000";
layers = (
{
layerId = UUID0;
paths = (
{
closed = 1;
nodes = (
"1014 -282 LINE",
"1018 -268 OFFCURVE",
"1020 -252 OFFCURVE",
"1020 -226 CURVE",
"1020 -198 OFFCURVE",
"1018 -182 OFFCURVE",
"1014 -166 CURVE",
"0 -166 LINE",
"-4 -182 OFFCURVE",
"-6 -198 OFFCURVE",
"-6 -226 CURVE SMOOTH",
"-6 -252 OFFCURVE",
"-4 -268 OFFCURVE",
"0 -282 CURVE"
);
}
);
width = 1014;
},
{
layerId = UUID1;
paths = (
{
closed = 1;
nodes = (
"1142 -360 LINE",
"1152 -318 OFFCURVE",
"1156 -284 OFFCURVE",
"1156 -238 CURVE",
"1156 -192 OFFCURVE",
"1152 -160 OFFCURVE",
"1142 -116 CURVE",
"-2 -116 LINE",
"-14 -160 OFFCURVE",
"-16 -218 OFFCURVE",
"-16 -238 CURVE SMOOTH",
"-16 -262 OFFCURVE",
"-14 -318 OFFCURVE",
"-2 -360 CURVE"
);
}
);
width = 1140;
}
);
unicode = 005F;
},
{
glyphname = hyphen;
lastChange = "2021-07-09 03:44:18 +0000";
layers = (
{
layerId = UUID0;
paths = (
{
closed = 1;
nodes = (
"560 464 LINE",
"564 482 OFFCURVE",
"566 502 OFFCURVE",
"566 528 CURVE SMOOTH",
"566 556 OFFCURVE",
"564 576 OFFCURVE",
"560 596 CURVE",
"106 596 LINE",
"102 576 OFFCURVE",
"100 556 OFFCURVE",
"100 528 CURVE SMOOTH",
"100 502 OFFCURVE",
"102 482 OFFCURVE",
"106 464 CURVE"
);
}
);
width = 666;
},
{
layerId = UUID1;
paths = (
{
closed = 1;
nodes = (
"666 410 LINE",
"678 454 OFFCURVE",
"680 512 OFFCURVE",
"680 540 CURVE SMOOTH",
"680 568 OFFCURVE",
"678 626 OFFCURVE",
"666 670 CURVE",
"94 670 LINE",
"82 626 OFFCURVE",
"80 568 OFFCURVE",
"80 540 CURVE SMOOTH",
"80 512 OFFCURVE",
"82 454 OFFCURVE",
"94 410 CURVE"
);
}
);
width = 760;
}
);
leftKerningGroup = hyphen;
rightKerningGroup = hyphen;
unicode = 002D;
},
{
glyphname = endash;
lastChange = "2021-07-09 03:44:18 +0000";
layers = (
{
layerId = UUID0;
paths = (
{
closed = 1;
nodes = (
"896 466 LINE",
"900 484 OFFCURVE",
"902 500 OFFCURVE",
"902 526 CURVE SMOOTH",
"902 554 OFFCURVE",
"900 570 OFFCURVE",
"896 590 CURVE",
"134 590 LINE",
"130 570 OFFCURVE",
"128 554 OFFCURVE",
"128 526 CURVE SMOOTH",
"128 500 OFFCURVE",
"130 484 OFFCURVE",
"134 466 CURVE"
);
}
);
width = 1030;
},
{
layerId = UUID1;
paths = (
{
closed = 1;
nodes = (
"996 408 LINE",
"1008 452 OFFCURVE",
"1010 504 OFFCURVE",
"1010 532 CURVE SMOOTH",
"1010 560 OFFCURVE",
"1008 612 OFFCURVE",
"996 656 CURVE",
"124 656 LINE",
"112 612 OFFCURVE",
"110 560 OFFCURVE",
"110 532 CURVE SMOOTH",
"110 504 OFFCURVE",
"112 452 OFFCURVE",
"124 408 CURVE"
);
}
);
width = 1118;
}
);
leftKerningGroup = equal;
rightKerningGroup = equal;
unicode = 2013;
},
{
glyphname = emdash;
lastChange = "2021-07-09 03:44:18 +0000";
layers = (
{
layerId = UUID0;
paths = (
{
closed = 1;
nodes = (
"1410 466 LINE",
"1414 484 OFFCURVE",
"1416 500 OFFCURVE",
"1416 526 CURVE SMOOTH",
"1416 554 OFFCURVE",
"1414 570 OFFCURVE",
"1410 590 CURVE",
"166 590 LINE",
"162 570 OFFCURVE",
"160 554 OFFCURVE",
"160 526 CURVE SMOOTH",
"160 500 OFFCURVE",
"162 484 OFFCURVE",
"166 466 CURVE"
);
}
);
width = 1576;
},
{
layerId = UUID1;
paths = (
{
closed = 1;
nodes = (
"1490 408 LINE",
"1502 452 OFFCURVE",
"1504 504 OFFCURVE",
"1504 532 CURVE SMOOTH",
"1504 560 OFFCURVE",
"1502 612 OFFCURVE",
"1490 656 CURVE",
"146 656 LINE",
"134 612 OFFCURVE",
"132 560 OFFCURVE",
"132 532 CURVE SMOOTH",
"132 504 OFFCURVE",
"134 452 OFFCURVE",
"146 408 CURVE"
);
}
);
width = 1636;
}
);
leftKerningGroup = equal;
rightKerningGroup = equal;
unicode = 2014;
},
{
glyphname = horizontalbar;
lastChange = "2021-07-09 03:44:18 +0000";
layers = (
{
layerId = UUID0;
paths = (
{
closed = 1;
nodes = (
"1450 466 LINE",
"1454 484 OFFCURVE",
"1456 500 OFFCURVE",
"1456 526 CURVE SMOOTH",
"1456 554 OFFCURVE",
"1454 570 OFFCURVE",
"1450 590 CURVE",
"246 590 LINE",
"242 570 OFFCURVE",
"240 554 OFFCURVE",
"240 526 CURVE SMOOTH",
"240 500 OFFCURVE",
"242 484 OFFCURVE",
"246 466 CURVE"
);
}
);
width = 1696;
},
{
layerId = UUID1;
paths = (
{
closed = 1;
nodes = (
"1538 408 LINE",
"1550 452 OFFCURVE",
"1552 504 OFFCURVE",
"1552 532 CURVE SMOOTH",
"1552 560 OFFCURVE",
"1550 612 OFFCURVE",
"1538 656 CURVE",
"254 656 LINE",
"242 612 OFFCURVE",
"240 560 OFFCURVE",
"240 532 CURVE SMOOTH",
"240 504 OFFCURVE",
"242 452 OFFCURVE",
"254 408 CURVE"
);
}
);
width = 1792;
}
);
unicode = 2015;
},
{
glyphname = section;
lastChange = "2021-07-09 03:44:18 +0000";
layers = (
{
layerId = UUID0;
paths = (
{
closed = 1;
nodes = (
"562 266 LINE",
"724 310 OFFCURVE",
"884 432 OFFCURVE",
"884 600 CURVE SMOOTH",
"884 776 OFFCURVE",
"728 858 OFFCURVE",
"566 922 CURVE SMOOTH",
"448 968 LINE SMOOTH",
"352 1006 OFFCURVE",
"294 1052 OFFCURVE",
"294 1126 CURVE SMOOTH",
"294 1218 OFFCURVE",
"372 1276 OFFCURVE",
"480 1276 CURVE SMOOTH",
"578 1276 OFFCURVE",
"676 1240 OFFCURVE",
"738 1212 CURVE",
"766 1238 OFFCURVE",
"782 1284 OFFCURVE",
"782 1322 CURVE",
"702 1360 OFFCURVE",
"582 1390 OFFCURVE",
"484 1390 CURVE SMOOTH",
"304 1390 OFFCURVE",
"150 1288 OFFCURVE",
"150 1118 CURVE SMOOTH",
"150 962 OFFCURVE",
"274 878 OFFCURVE",
"406 826 CURVE SMOOTH",
"520 782 LINE SMOOTH",
"628 740 OFFCURVE",
"738 688 OFFCURVE",
"738 584 CURVE SMOOTH",
"738 464 OFFCURVE",
"624 386 OFFCURVE",
"506 342 CURVE"
);
},
{
closed = 1;
nodes = (
"392 920 LINE",
"230 876 OFFCURVE",
"70 754 OFFCURVE",
"70 586 CURVE SMOOTH",
"70 410 OFFCURVE",
"226 328 OFFCURVE",
"388 264 CURVE SMOOTH",
"506 218 LINE SMOOTH",
"602 180 OFFCURVE",
"660 134 OFFCURVE",
"660 60 CURVE SMOOTH",
"660 -32 OFFCURVE",
"584 -90 OFFCURVE",
"462 -90 CURVE SMOOTH",
"344 -90 OFFCURVE",
"254 -48 OFFCURVE",
"192 -14 CURVE",
"166 -34 OFFCURVE",
"138 -82 OFFCURVE",
"138 -120 CURVE",
"214 -170 OFFCURVE",
"346 -204 OFFCURVE",
"454 -204 CURVE SMOOTH",
"652 -204 OFFCURVE",
"804 -102 OFFCURVE",
"804 68 CURVE SMOOTH",
"804 224 OFFCURVE",
"680 308 OFFCURVE",
"548 360 CURVE SMOOTH",
"434 404 LINE SMOOTH",
"326 446 OFFCURVE",
"216 498 OFFCURVE",
"216 602 CURVE SMOOTH",
"216 722 OFFCURVE",
"330 800 OFFCURVE",
"448 844 CURVE"
);
}
);
width = 952;
},
{
layerId = UUID1;
paths = (
{
closed = 1;
nodes = (
"610 256 LINE",
"800 324 OFFCURVE",
"956 462 OFFCURVE",
"956 624 CURVE SMOOTH",
"956 808 OFFCURVE",
"808 900 OFFCURVE",
"626 976 CURVE SMOOTH",
"512 1024 LINE SMOOTH",
"462 1044 OFFCURVE",
"438 1064 OFFCURVE",
"438 1098 CURVE SMOOTH",
"438 1136 OFFCURVE",
"476 1160 OFFCURVE",
"530 1160 CURVE SMOOTH",
"602 1160 OFFCURVE",
"680 1136 OFFCURVE",
"764 1102 CURVE",
"816 1140 OFFCURVE",
"860 1246 OFFCURVE",
"854 1322 CURVE",
"766 1362 OFFCURVE",
"638 1396 OFFCURVE",
"514 1396 CURVE SMOOTH",
"270 1396 OFFCURVE",
"116 1246 OFFCURVE",
"116 1070 CURVE SMOOTH",
"116 920 OFFCURVE",
"222 824 OFFCURVE",
"372 764 CURVE SMOOTH",
"458 730 LINE SMOOTH",
"570 686 OFFCURVE",
"646 636 OFFCURVE",
"646 564 CURVE SMOOTH",
"646 496 OFFCURVE",
"586 434 OFFCURVE",
"514 408 CURVE"
);
},
{
closed = 1;
nodes = (
"398 906 LINE",
"208 838 OFFCURVE",
"52 700 OFFCURVE",
"52 538 CURVE SMOOTH",
"52 354 OFFCURVE",
"200 262 OFFCURVE",
"382 186 CURVE SMOOTH",
"496 138 LINE SMOOTH",
"546 118 OFFCURVE",
"570 94 OFFCURVE",
"570 60 CURVE SMOOTH",
"570 22 OFFCURVE",
"532 -2 OFFCURVE",
"478 -2 CURVE SMOOTH",
"388 -2 OFFCURVE",
"284 34 OFFCURVE",
"210 66 CURVE",
"158 28 OFFCURVE",
"116 -78 OFFCURVE",
"122 -154 CURVE",
"218 -208 OFFCURVE",
"356 -238 OFFCURVE",
"482 -238 CURVE SMOOTH",
"738 -238 OFFCURVE",
"892 -88 OFFCURVE",
"892 88 CURVE SMOOTH",
"892 238 OFFCURVE",
"786 338 OFFCURVE",
"636 398 CURVE SMOOTH",
"550 432 LINE SMOOTH",
"428 480 OFFCURVE",
"362 526 OFFCURVE",
"362 598 CURVE SMOOTH",
"362 666 OFFCURVE",
"422 728 OFFCURVE",
"494 754 CURVE"
);
}
);
width = 1004;
}
);
unicode = 00A7;
},
{
glyphname = copyright;
lastChange = "2021-07-09 03:44:18 +0000";
layers = (
{
layerId = UUID0;
paths = (
{
closed = 1;
nodes = (
"92 276 OFFCURVE",
"404 -36 OFFCURVE",
"810 -36 CURVE SMOOTH",
"1216 -36 OFFCURVE",
"1530 276 OFFCURVE",
"1530 682 CURVE SMOOTH",
"1530 1088 OFFCURVE",
"1216 1402 OFFCURVE",
"810 1402 CURVE SMOOTH",
"404 1402 OFFCURVE",
"92 1088 OFFCURVE",
"92 682 CURVE SMOOTH"
);
},
{
closed = 1;
nodes = (
"226 1016 OFFCURVE",
"474 1292 OFFCURVE",
"810 1292 CURVE SMOOTH",
"1146 1292 OFFCURVE",
"1396 1016 OFFCURVE",
"1396 682 CURVE SMOOTH",
"1396 348 OFFCURVE",
"1146 74 OFFCURVE",
"810 74 CURVE SMOOTH",
"474 74 OFFCURVE",
"226 348 OFFCURVE",
"226 682 CURVE SMOOTH"
);
},
{
closed = 1;
nodes = (
"1004 774 OFFCURVE",
"1022 770 OFFCURVE",
"1046 770 CURVE SMOOTH",
"1098 770 OFFCURVE",
"1114 808 OFFCURVE",
"1114 846 CURVE SMOOTH",
"1114 938 OFFCURVE",
"1028 1088 OFFCURVE",
"816 1088 CURVE SMOOTH",
"640 1088 OFFCURVE",
"462 956 OFFCURVE",
"462 682 CURVE SMOOTH",
"462 438 OFFCURVE",
"598 280 OFFCURVE",
"804 280 CURVE SMOOTH",
"920 280 OFFCURVE",
"1036 334 OFFCURVE",
"1106 406 CURVE",
"1094 434 OFFCURVE",
"1068 468 OFFCURVE",
"1040 480 CURVE",
"982 428 OFFCURVE",
"898 388 OFFCURVE",
"820 388 CURVE SMOOTH",
"686 388 OFFCURVE",
"602 494 OFFCURVE",
"602 682 CURVE SMOOTH",
"602 876 OFFCURVE",
"686 980 OFFCURVE",
"812 980 CURVE SMOOTH",
"948 980 OFFCURVE",
"996 872 OFFCURVE",
"988 780 CURVE"
);
}
);
width = 1622;
},
{
layerId = UUID1;
paths = (
{
closed = 1;
nodes = (
"60 272 OFFCURVE",
"376 -44 OFFCURVE",
"786 -44 CURVE SMOOTH",
"1196 -44 OFFCURVE",
"1514 272 OFFCURVE",
"1514 682 CURVE SMOOTH",
"1514 1092 OFFCURVE",
"1196 1410 OFFCURVE",
"786 1410 CURVE SMOOTH",
"376 1410 OFFCURVE",
"60 1092 OFFCURVE",
"60 682 CURVE SMOOTH"
);
},
{
closed = 1;
nodes = (
"302 968 OFFCURVE",
"500 1196 OFFCURVE",
"786 1196 CURVE SMOOTH",
"1072 1196 OFFCURVE",
"1272 968 OFFCURVE",
"1272 682 CURVE SMOOTH",
"1272 396 OFFCURVE",
"1072 170 OFFCURVE",
"786 170 CURVE SMOOTH",
"500 170 OFFCURVE",
"302 396 OFFCURVE",
"302 682 CURVE SMOOTH"
);
},
{
closed = 1;
nodes = (
"886 716 OFFCURVE",
"926 712 OFFCURVE",
"954 712 CURVE SMOOTH",
"1044 712 OFFCURVE",
"1088 752 OFFCURVE",
"1088 838 CURVE SMOOTH",
"1088 974 OFFCURVE",
"958 1070 OFFCURVE",
"792 1070 CURVE SMOOTH",
"628 1070 OFFCURVE",
"444 970 OFFCURVE",
"444 684 CURVE SMOOTH",
"444 500 OFFCURVE",
"516 298 OFFCURVE",
"792 298 CURVE SMOOTH",
"888 298 OFFCURVE",
"1016 346 OFFCURVE",
"1076 408 CURVE",
"1070 458 OFFCURVE",
"1032 522 OFFCURVE",
"992 550 CURVE",
"938 520 OFFCURVE",
"880 490 OFFCURVE",
"834 490 CURVE SMOOTH",
"742 490 OFFCURVE",
"692 554 OFFCURVE",
"692 684 CURVE SMOOTH",
"692 822 OFFCURVE",
"716 892 OFFCURVE",
"782 892 CURVE SMOOTH",
"854 892 OFFCURVE",
"866 808 OFFCURVE",
"866 724 CURVE"
);
}
);
width = 1574;
}
);
unicode = 00A9;
},
{
glyphname = registered;
lastChange = "2021-07-09 03:44:18 +0000";
layers = (
{
layerId = UUID0;
paths = (
{
closed = 1;
nodes = (
"78 692 OFFCURVE",
"302 468 OFFCURVE",
"586 468 CURVE SMOOTH",
"870 468 OFFCURVE",
"1096 692 OFFCURVE",
"1096 976 CURVE SMOOTH",
"1096 1260 OFFCURVE",
"870 1486 OFFCURVE",
"586 1486 CURVE SMOOTH",
"302 1486 OFFCURVE",
"78 1260 OFFCURVE",
"78 976 CURVE SMOOTH"
);
},
{
closed = 1;
nodes = (
"188 1202 OFFCURVE",
"360 1386 OFFCURVE",
"586 1386 CURVE SMOOTH",
"814 1386 OFFCURVE",
"986 1202 OFFCURVE",
"986 976 CURVE SMOOTH",
"986 750 OFFCURVE",
"814 568 OFFCURVE",
"586 568 CURVE SMOOTH",
"360 568 OFFCURVE",
"188 750 OFFCURVE",
"188 976 CURVE SMOOTH"
);
},
{
closed = 1;
nodes = (
"782 1178 OFFCURVE",
"718 1234 OFFCURVE",
"598 1234 CURVE SMOOTH",
"542 1234 OFFCURVE",
"466 1232 OFFCURVE",
"406 1230 CURVE",
"400 1224 LINE",
"400 730 LINE",
"417 725 OFFCURVE",
"434 723 OFFCURVE",
"451 723 CURVE SMOOTH",
"468 723 OFFCURVE",
"485 725 OFFCURVE",
"502 730 CURVE",
"502 1154 LINE",
"520 1154 OFFCURVE",
"570 1154 OFFCURVE",
"596 1154 CURVE SMOOTH",
"654 1154 OFFCURVE",
"680 1118 OFFCURVE",
"680 1078 CURVE SMOOTH",
"680 1036 OFFCURVE",
"652 1002 OFFCURVE",
"588 1002 CURVE SMOOTH",
"554 1002 OFFCURVE",
"492 1002 OFFCURVE",
"456 1000 CURVE",
"456 920 LINE",
"566 920 LINE SMOOTH",
"598 920 OFFCURVE",
"618 902 OFFCURVE",
"632 878 CURVE SMOOTH",
"684 780 LINE SMOOTH",
"702 744 OFFCURVE",
"720 720 OFFCURVE",
"752 720 CURVE SMOOTH",
"784 720 OFFCURVE",
"808 738 OFFCURVE",
"820 758 CURVE",
"804 770 OFFCURVE",
"790 790 OFFCURVE",
"778 812 CURVE SMOOTH",
"746 870 LINE SMOOTH",
"713 929 OFFCURVE",
"705 940 OFFCURVE",
"680 952 CURVE",
"730 968 OFFCURVE",
"782 1010 OFFCURVE",
"782 1082 CURVE SMOOTH"
);
}
);
width = 1174;
},
{
layerId = UUID1;
paths = (
{
closed = 1;
nodes = (
"52 626 OFFCURVE",
"292 386 OFFCURVE",
"602 386 CURVE SMOOTH",
"912 386 OFFCURVE",
"1154 626 OFFCURVE",
"1154 936 CURVE SMOOTH",
"1154 1246 OFFCURVE",
"912 1488 OFFCURVE",
"602 1488 CURVE SMOOTH",
"292 1488 OFFCURVE",
"52 1246 OFFCURVE",
"52 936 CURVE SMOOTH"
);
},
{
closed = 1;
nodes = (
"238 1146 OFFCURVE",
"392 1318 OFFCURVE",
"602 1318 CURVE SMOOTH",
"812 1318 OFFCURVE",
"968 1146 OFFCURVE",
"968 936 CURVE SMOOTH",
"968 726 OFFCURVE",
"812 556 OFFCURVE",
"602 556 CURVE SMOOTH",
"392 556 OFFCURVE",
"238 726 OFFCURVE",
"238 936 CURVE SMOOTH"
);
},
{
closed = 1;
nodes = (
"822 1130 OFFCURVE",
"770 1202 OFFCURVE",
"616 1202 CURVE SMOOTH",
"550 1202 OFFCURVE",
"474 1198 OFFCURVE",
"398 1196 CURVE",
"392 1192 LINE",
"392 698 LINE",
"411 692 OFFCURVE",
"442 689 OFFCURVE",
"473 689 CURVE SMOOTH",
"504 689 OFFCURVE",
"534 692 OFFCURVE",
"552 698 CURVE",
"552 1082 LINE",
"574 1082 OFFCURVE",
"576 1082 OFFCURVE",
"598 1082 CURVE SMOOTH",
"636 1082 OFFCURVE",
"652 1062 OFFCURVE",
"652 1038 CURVE SMOOTH",
"652 1012 OFFCURVE",
"638 990 OFFCURVE",
"592 990 CURVE SMOOTH",
"576 990 OFFCURVE",
"510 988 OFFCURVE",
"478 988 CURVE",
"478 868 LINE",
"560 868 LINE SMOOTH",
"592 868 OFFCURVE",
"600 858 OFFCURVE",
"612 834 CURVE SMOOTH",
"654 750 LINE SMOOTH",
"676 706 OFFCURVE",
"700 688 OFFCURVE",
"742 688 CURVE SMOOTH",
"784 688 OFFCURVE",
"832 712 OFFCURVE",
"856 746 CURVE",
"834 758 OFFCURVE",
"820 782 OFFCURVE",
"808 806 CURVE SMOOTH",
"788 848 LINE SMOOTH",
"776 874 OFFCURVE",
"756 906 OFFCURVE",
"722 920 CURVE",
"772 932 OFFCURVE",
"822 974 OFFCURVE",
"822 1056 CURVE SMOOTH"
);
}
);
width = 1206;
}
);
unicode = 00AE;
},
{
glyphname = trademark;
lastChange = "2021-07-09 03:44:18 +0000";
layers = (
{
layerId = UUID0;
paths = (
{
closed = 1;
nodes = (
"544 1258 LINE SMOOTH",
"596 1258 OFFCURVE",
"620 1272 OFFCURVE",
"620 1318 CURVE SMOOTH",
"620 1336 OFFCURVE",
"616 1354 OFFCURVE",
"612 1370 CURVE",
"-10 1370 LINE",
"-14 1348 OFFCURVE",
"-16 1330 OFFCURVE",
"-16 1314 CURVE SMOOTH",
"-16 1296 OFFCURVE",
"-14 1278 OFFCURVE",
"-10 1258 CURVE"
);
},
{
closed = 1;
nodes = (
"234 550 LINE",
"256 546 OFFCURVE",
"282 544 OFFCURVE",
"302 544 CURVE SMOOTH",
"322 544 OFFCURVE",
"350 546 OFFCURVE",
"372 550 CURVE",
"372 1170 LINE SMOOTH",
"372 1202 OFFCURVE",
"372 1224 OFFCURVE",
"372 1258 CURVE SMOOTH",
"372 1314 LINE",
"234 1314 LINE",
"234 1258 LINE SMOOTH",
"234 1224 OFFCURVE",
"234 1202 OFFCURVE",
"234 1170 CURVE SMOOTH"
);
},
{
closed = 1;
nodes = (
"674 552 LINE",
"700 546 OFFCURVE",
"728 544 OFFCURVE",
"752 544 CURVE SMOOTH",
"772 544 OFFCURVE",
"794 546 OFFCURVE",
"810 548 CURVE",
"836 966 LINE SMOOTH",
"840 1034 OFFCURVE",
"844 1144 OFFCURVE",
"846 1216 CURVE",
"856 1216 LINE",
"1022 674 LINE",
"1042 672 OFFCURVE",
"1066 670 OFFCURVE",
"1086 670 CURVE SMOOTH",
"1112 670 OFFCURVE",
"1138 672 OFFCURVE",
"1158 674 CURVE",
"1324 1216 LINE",
"1334 1216 LINE",
"1336 1144 OFFCURVE",
"1340 1034 OFFCURVE",
"1344 966 CURVE SMOOTH",
"1370 548 LINE",
"1386 546 OFFCURVE",
"1408 544 OFFCURVE",
"1428 544 CURVE SMOOTH",
"1452 544 OFFCURVE",
"1480 546 OFFCURVE",
"1506 552 CURVE",
"1440 1364 LINE",
"1408 1368 OFFCURVE",
"1368 1370 OFFCURVE",
"1344 1370 CURVE SMOOTH",
"1318 1370 OFFCURVE",
"1286 1368 OFFCURVE",
"1252 1364 CURVE",
"1146 1004 LINE SMOOTH",
"1124 932 OFFCURVE",
"1106 864 OFFCURVE",
"1096 810 CURVE",
"1084 810 LINE",
"1074 864 OFFCURVE",
"1056 932 OFFCURVE",
"1034 1004 CURVE SMOOTH",
"928 1364 LINE",
"896 1368 OFFCURVE",
"862 1370 OFFCURVE",
"836 1370 CURVE SMOOTH",
"812 1370 OFFCURVE",
"772 1368 OFFCURVE",
"740 1364 CURVE"
);
}
);
width = 1588;
},
{
layerId = UUID1;
paths = (
{
closed = 1;
nodes = (
"610 1136 LINE SMOOTH",
"716 1136 OFFCURVE",
"774 1160 OFFCURVE",
"774 1260 CURVE SMOOTH",
"774 1298 OFFCURVE",
"768 1340 OFFCURVE",
"760 1370 CURVE",
"22 1370 LINE",
"12 1326 OFFCURVE",
"10 1286 OFFCURVE",
"10 1252 CURVE SMOOTH",
"10 1220 OFFCURVE",
"12 1184 OFFCURVE",
"22 1136 CURVE"
);
},
{
closed = 1;
nodes = (
"238 478 LINE",
"294 468 OFFCURVE",
"344 466 OFFCURVE",
"384 466 CURVE SMOOTH",
"426 466 OFFCURVE",
"476 468 OFFCURVE",
"532 478 CURVE",
"532 1042 LINE SMOOTH",
"532 1076 OFFCURVE",
"530 1100 OFFCURVE",
"530 1136 CURVE SMOOTH",
"530 1252 LINE",
"240 1252 LINE",
"240 1136 LINE SMOOTH",
"240 1100 OFFCURVE",
"238 1076 OFFCURVE",
"238 1042 CURVE SMOOTH"
);
},
{
closed = 1;
nodes = (
"786 480 LINE",
"834 470 OFFCURVE",
"884 468 OFFCURVE",
"934 468 CURVE SMOOTH",
"978 468 OFFCURVE",
"1020 468 OFFCURVE",
"1062 476 CURVE",
"1072 696 LINE SMOOTH",
"1078 812 OFFCURVE",
"1080 936 OFFCURVE",
"1082 1074 CURVE",
"1092 1074 LINE",
"1178 598 LINE",
"1226 592 OFFCURVE",
"1282 590 OFFCURVE",
"1328 590 CURVE SMOOTH",
"1374 590 OFFCURVE",
"1430 592 OFFCURVE",
"1478 598 CURVE",
"1564 1074 LINE",
"1574 1074 LINE",
"1576 936 OFFCURVE",
"1578 812 OFFCURVE",
"1584 696 CURVE SMOOTH",
"1594 476 LINE",
"1636 468 OFFCURVE",
"1678 468 OFFCURVE",
"1722 468 CURVE SMOOTH",
"1772 468 OFFCURVE",
"1822 470 OFFCURVE",
"1870 480 CURVE",
"1798 1370 LINE",
"1738 1380 OFFCURVE",
"1664 1384 OFFCURVE",
"1602 1384 CURVE SMOOTH",
"1542 1384 OFFCURVE",
"1470 1380 OFFCURVE",
"1408 1370 CURVE",
"1372 1148 LINE SMOOTH",
"1358 1066 OFFCURVE",
"1346 960 OFFCURVE",
"1334 846 CURVE",
"1322 846 LINE",
"1310 960 OFFCURVE",
"1298 1066 OFFCURVE",
"1284 1148 CURVE SMOOTH",
"1248 1370 LINE",
"1186 1380 OFFCURVE",
"1114 1384 OFFCURVE",
"1054 1384 CURVE SMOOTH",
"992 1384 OFFCURVE",
"920 1380 OFFCURVE",
"858 1370 CURVE"
);
}
);
width = 1952;
}
);
unicode = 2122;
},
{
glyphname = numero;
lastChange = "2021-07-09 03:44:18 +0000";
layers = (
{
guideLines = (
{
angle = 90;
position = "{1314, 1002}";
},
{
angle = 90;
position = "{1956, 1002}";
}
);
layerId = UUID0;
paths = (
{
closed = 1;
nodes = (
"186 0 LINE",
"210 -4 OFFCURVE",
"230 -6 OFFCURVE",
"247 -6 CURVE SMOOTH",
"266 -6 OFFCURVE",
"284 -4 OFFCURVE",
"311 0 CURVE",
"311 716 LINE SMOOTH",
"311 850 OFFCURVE",
"303 997 OFFCURVE",
"299 1109 CURVE",
"312 1109 LINE",
"350 1270 LINE",
"328 1274 OFFCURVE",
"285 1276 OFFCURVE",
"266 1276 CURVE SMOOTH",
"249 1276 OFFCURVE",
"208 1274 OFFCURVE",
"186 1270 CURVE"
);
},
{
closed = 1;
nodes = (
"895 0 LINE",
"1042 37 LINE",
"941 156 LINE",
"900 238 OFFCURVE",
"863 321 OFFCURVE",
"811 417 CURVE SMOOTH",
"350 1270 LINE",
"205 1252 LINE",
"305 1109 LINE",
"346 1025 OFFCURVE",
"383 946 OFFCURVE",
"433 854 CURVE SMOOTH"
);
},
{
closed = 1;
nodes = (
"1049 1276 LINE",
"1004 1276 LINE SMOOTH",
"941 1276 OFFCURVE",
"936 1240 OFFCURVE",
"936 1189 CURVE SMOOTH",
"936 573 LINE SMOOTH",
"936 452 OFFCURVE",
"941 290 OFFCURVE",
"947 156 CURVE",
"934 156 LINE",
"895 0 LINE",
"918 -4 OFFCURVE",
"964 -6 OFFCURVE",
"978 -6 CURVE SMOOTH",
"995 -6 OFFCURVE",
"1035 -4 OFFCURVE",
"1060 0 CURVE",
"1060 1267 LINE"
);
},
{
closed = 1;
nodes = (
"1819 1039 OFFCURVE",
"1790 1141 OFFCURVE",
"1718 1217 CURVE SMOOTH",
"1672 1266 OFFCURVE",
"1600 1289 OFFCURVE",
"1520 1289 CURVE SMOOTH",
"1444 1289 OFFCURVE",
"1374 1264 OFFCURVE",
"1322 1216 CURVE SMOOTH",
"1250 1149 OFFCURVE",
"1222 1045 OFFCURVE",
"1222 928 CURVE SMOOTH",
"1222 814 OFFCURVE",
"1251 712 OFFCURVE",
"1323 637 CURVE SMOOTH",
"1370 588 OFFCURVE",
"1444 565 OFFCURVE",
"1520 565 CURVE SMOOTH",
"1598 565 OFFCURVE",
"1667 590 OFFCURVE",
"1719 638 CURVE SMOOTH",
"1796 709 OFFCURVE",
"1819 820 OFFCURVE",
"1819 928 CURVE SMOOTH"
);
},
{
closed = 1;
nodes = (
"1343 1062 OFFCURVE",
"1388 1194 OFFCURVE",
"1521 1194 CURVE SMOOTH",
"1653 1194 OFFCURVE",
"1698 1062 OFFCURVE",
"1698 928 CURVE SMOOTH",
"1698 792 OFFCURVE",
"1653 662 OFFCURVE",
"1521 662 CURVE SMOOTH",
"1388 662 OFFCURVE",
"1343 792 OFFCURVE",
"1343 928 CURVE SMOOTH"
);
},
{
closed = 1;
nodes = (
"1786 338 LINE",
"1789 353 OFFCURVE",
"1791 367 OFFCURVE",
"1791 392 CURVE SMOOTH",
"1791 420 OFFCURVE",
"1789 433 OFFCURVE",
"1786 450 CURVE",
"1256 450 LINE",
"1252 432 OFFCURVE",
"1250 420 OFFCURVE",
"1250 392 CURVE SMOOTH",
"1250 367 OFFCURVE",
"1252 354 OFFCURVE",
"1256 338 CURVE"
);
}
);
userData = {
RMXScaler = {
height = 93;
width = 93;
};
};
width = 1897;
},
{
guideLines = (
{
angle = 90;
position = "{1390, 966}";
},
{
angle = 90;
position = "{2146, 966}";
}
);
layerId = UUID1;
paths = (
{
closed = 1;
nodes = (
"128 0 LINE",
"179 -10 OFFCURVE",
"247 -12 OFFCURVE",
"281 -12 CURVE SMOOTH",
"318 -12 OFFCURVE",
"374 -10 OFFCURVE",
"427 0 CURVE",
"427 313 LINE SMOOTH",
"427 482 OFFCURVE",
"417 730 OFFCURVE",
"402 896 CURVE",
"422 904 LINE",
"502 1272 LINE",
"431 1282 OFFCURVE",
"359 1284 OFFCURVE",
"317 1284 CURVE SMOOTH",
"275 1284 OFFCURVE",
"178 1278 OFFCURVE",
"128 1266 CURVE"
);
},
{
closed = 1;
nodes = (
"756 0 LINE",
"1116 43 LINE",
"855 353 LINE",
"832 417 OFFCURVE",
"790 523 OFFCURVE",
"745 640 CURVE SMOOTH",
"502 1272 LINE",
"146 1228 LINE",
"409 900 LINE",
"431 830 OFFCURVE",
"464 741 OFFCURVE",
"505 635 CURVE SMOOTH"
);
},
{
closed = 1;
nodes = (
"1121 1286 LINE",
"1018 1286 LINE SMOOTH",
"881 1286 OFFCURVE",
"837 1219 OFFCURVE",
"837 1090 CURVE SMOOTH",
"837 928 LINE SMOOTH",
"837 794 OFFCURVE",
"845 537 OFFCURVE",
"862 357 CURVE",
"840 349 LINE",
"756 0 LINE",
"830 -10 OFFCURVE",
"903 -12 OFFCURVE",
"941 -12 CURVE SMOOTH",
"979 -12 OFFCURVE",
"1081 -6 OFFCURVE",
"1134 6 CURVE",
"1134 1273 LINE"
);
},
{
closed = 1;
nodes = (
"1950 1027 OFFCURVE",
"1923 1133 OFFCURVE",
"1841 1213 CURVE SMOOTH",
"1784 1269 OFFCURVE",
"1699 1296 OFFCURVE",
"1605 1296 CURVE SMOOTH",
"1508 1296 OFFCURVE",
"1422 1268 OFFCURVE",
"1367 1213 CURVE SMOOTH",
"1292 1138 OFFCURVE",
"1259 1034 OFFCURVE",
"1259 913 CURVE SMOOTH",
"1259 798 OFFCURVE",
"1285 693 OFFCURVE",
"1368 611 CURVE SMOOTH",
"1429 551 OFFCURVE",
"1513 528 OFFCURVE",
"1605 528 CURVE SMOOTH",
"1701 528 OFFCURVE",
"1786 556 OFFCURVE",
"1841 611 CURVE SMOOTH",
"1920 690 OFFCURVE",
"1950 791 OFFCURVE",
"1950 913 CURVE SMOOTH"
);
},
{
closed = 1;
nodes = (
"1514 1029 OFFCURVE",
"1537 1099 OFFCURVE",
"1604 1099 CURVE SMOOTH",
"1672 1099 OFFCURVE",
"1695 1029 OFFCURVE",
"1695 913 CURVE SMOOTH",
"1695 797 OFFCURVE",
"1672 725 OFFCURVE",
"1604 725 CURVE SMOOTH",
"1537 725 OFFCURVE",
"1514 797 OFFCURVE",
"1514 913 CURVE SMOOTH"
);
},
{
closed = 1;
nodes = (
"1910 226 LINE",
"1922 268 OFFCURVE",
"1923 318 OFFCURVE",
"1923 340 CURVE SMOOTH",
"1923 362 OFFCURVE",
"1922 412 OFFCURVE",
"1910 454 CURVE",
"1299 454 LINE",
"1287 412 OFFCURVE",
"1286 362 OFFCURVE",
"1286 340 CURVE SMOOTH",
"1286 318 OFFCURVE",
"1287 268 OFFCURVE",
"1299 226 CURVE"
);
}
);
userData = {
RMXScaler = {
height = 93;
width = 90;
};
};
width = 2016;
}
);
unicode = 2116;
userData = {
RMXScaler = {
source = numero;
};
};
},
{
glyphname = numero.lf;
lastChange = "2021-07-09 03:44:18 +0000";
layers = (
{
guideLines = (
{
angle = 90;
position = "{1314, 1002}";
},
{
angle = 90;
position = "{1956, 1002}";
}
);
layerId = UUID0;
paths = (
{
closed = 1;
nodes = (
"200 0 LINE",
"224 -4 OFFCURVE",
"246 -6 OFFCURVE",
"266 -6 CURVE SMOOTH",
"286 -6 OFFCURVE",
"308 -4 OFFCURVE",
"334 0 CURVE",
"334 770 LINE SMOOTH",
"334 908 OFFCURVE",
"326 1072 OFFCURVE",
"322 1192 CURVE",
"336 1192 LINE",
"376 1366 LINE",
"352 1370 OFFCURVE",
"306 1372 OFFCURVE",
"286 1372 CURVE SMOOTH",
"270 1372 OFFCURVE",
"224 1370 OFFCURVE",
"200 1366 CURVE"
);
},
{
closed = 1;
nodes = (
"962 0 LINE",
"1120 40 LINE",
"1012 168 LINE",
"968 256 OFFCURVE",
"924 352 OFFCURVE",
"872 448 CURVE SMOOTH",
"376 1366 LINE",
"220 1346 LINE",
"328 1192 LINE",
"372 1102 OFFCURVE",
"414 1014 OFFCURVE",
"466 918 CURVE SMOOTH"
);
},
{
closed = 1;
nodes = (
"1128 1372 LINE",
"1080 1372 LINE SMOOTH",
"1016 1372 OFFCURVE",
"1006 1340 OFFCURVE",
"1006 1278 CURVE SMOOTH",
"1006 616 LINE SMOOTH",
"1006 478 OFFCURVE",
"1012 312 OFFCURVE",
"1018 168 CURVE",
"1004 168 LINE",
"962 0 LINE",
"986 -4 OFFCURVE",
"1034 -6 OFFCURVE",
"1052 -6 CURVE SMOOTH",
"1070 -6 OFFCURVE",
"1116 -4 OFFCURVE",
"1140 0 CURVE",
"1140 1362 LINE"
);
},
{
closed = 1;
nodes = (
"1956 1126 OFFCURVE",
"1924 1236 OFFCURVE",
"1848 1318 CURVE SMOOTH",
"1798 1372 OFFCURVE",
"1720 1396 OFFCURVE",
"1634 1396 CURVE SMOOTH",
"1550 1396 OFFCURVE",
"1476 1368 OFFCURVE",
"1422 1318 CURVE SMOOTH",
"1340 1242 OFFCURVE",
"1314 1126 OFFCURVE",
"1314 1008 CURVE SMOOTH",
"1314 886 OFFCURVE",
"1345 776 OFFCURVE",
"1422 696 CURVE SMOOTH",
"1473 643 OFFCURVE",
"1550 618 OFFCURVE",
"1634 618 CURVE SMOOTH",
"1720 618 OFFCURVE",
"1794 646 OFFCURVE",
"1848 696 CURVE SMOOTH",
"1929 771 OFFCURVE",
"1956 886 OFFCURVE",
"1956 1008 CURVE SMOOTH"
);
},
{
closed = 1;
nodes = (
"1444 1152 OFFCURVE",
"1492 1294 OFFCURVE",
"1636 1294 CURVE SMOOTH",
"1778 1294 OFFCURVE",
"1826 1152 OFFCURVE",
"1826 1008 CURVE SMOOTH",
"1826 862 OFFCURVE",
"1778 722 OFFCURVE",
"1636 722 CURVE SMOOTH",
"1492 722 OFFCURVE",
"1444 862 OFFCURVE",
"1444 1008 CURVE SMOOTH"
);
},
{
closed = 1;
nodes = (
"1920 374 LINE",
"1924 391 OFFCURVE",
"1926 407 OFFCURVE",
"1926 432 CURVE SMOOTH",
"1926 459 OFFCURVE",
"1924 475 OFFCURVE",
"1920 494 CURVE",
"1350 494 LINE",
"1346 475 OFFCURVE",
"1344 459 OFFCURVE",
"1344 432 CURVE SMOOTH",
"1344 407 OFFCURVE",
"1346 391 OFFCURVE",
"1350 374 CURVE"
);
}
);
width = 2040;
},
{
guideLines = (
{
angle = 90;
position = "{1390, 966}";
},
{
angle = 90;
position = "{2146, 966}";
}
);
layerId = UUID1;
paths = (
{
closed = 1;
nodes = (
"148 0 LINE",
"200 -10 OFFCURVE",
"268 -12 OFFCURVE",
"308 -12 CURVE SMOOTH",
"350 -12 OFFCURVE",
"406 -10 OFFCURVE",
"460 0 CURVE",
"460 366 LINE SMOOTH",
"460 534 OFFCURVE",
"450 804 OFFCURVE",
"434 978 CURVE",
"456 986 LINE",
"540 1366 LINE",
"466 1376 OFFCURVE",
"388 1378 OFFCURVE",
"346 1378 CURVE SMOOTH",
"304 1378 OFFCURVE",
"200 1372 OFFCURVE",
"148 1360 CURVE"
);
},
{
closed = 1;
nodes = (
"852 0 LINE",
"1228 46 LINE",
"956 364 LINE",
"928 436 OFFCURVE",
"882 550 OFFCURVE",
"832 670 CURVE SMOOTH",
"540 1366 LINE",
"168 1320 LINE",
"442 982 LINE",
"468 906 OFFCURVE",
"508 802 OFFCURVE",
"552 698 CURVE SMOOTH"
);
},
{
closed = 1;
nodes = (
"1234 1380 LINE",
"1126 1380 LINE SMOOTH",
"998 1380 OFFCURVE",
"938 1328 OFFCURVE",
"938 1178 CURVE SMOOTH",
"938 970 LINE SMOOTH",
"938 832 OFFCURVE",
"946 558 OFFCURVE",
"964 368 CURVE",
"940 360 LINE",
"852 0 LINE",
"926 -10 OFFCURVE",
"1004 -12 OFFCURVE",
"1046 -12 CURVE SMOOTH",
"1088 -12 OFFCURVE",
"1194 -6 OFFCURVE",
"1248 6 CURVE",
"1248 1366 LINE"
);
},
{
closed = 1;
nodes = (
"2146 1113 OFFCURVE",
"2115 1226 OFFCURVE",
"2026 1312 CURVE SMOOTH",
"1964 1372 OFFCURVE",
"1868 1400 OFFCURVE",
"1768 1400 CURVE SMOOTH",
"1664 1400 OFFCURVE",
"1572 1372 OFFCURVE",
"1510 1312 CURVE SMOOTH",
"1421 1226 OFFCURVE",
"1390 1113 OFFCURVE",
"1390 990 CURVE SMOOTH",
"1390 866 OFFCURVE",
"1421 752 OFFCURVE",
"1510 666 CURVE SMOOTH",
"1572 606 OFFCURVE",
"1664 578 OFFCURVE",
"1768 578 CURVE SMOOTH",
"1868 578 OFFCURVE",
"1964 606 OFFCURVE",
"2026 666 CURVE SMOOTH",
"2115 752 OFFCURVE",
"2146 866 OFFCURVE",
"2146 990 CURVE SMOOTH"
);
},
{
closed = 1;
nodes = (
"1658 1116 OFFCURVE",
"1686 1196 OFFCURVE",
"1768 1196 CURVE SMOOTH",
"1850 1196 OFFCURVE",
"1878 1116 OFFCURVE",
"1878 990 CURVE SMOOTH",
"1878 864 OFFCURVE",
"1850 782 OFFCURVE",
"1768 782 CURVE SMOOTH",
"1686 782 OFFCURVE",
"1658 864 OFFCURVE",
"1658 990 CURVE SMOOTH"
);
},
{
closed = 1;
nodes = (
"2102 259 LINE",
"2114 301 OFFCURVE",
"2116 350 OFFCURVE",
"2116 377 CURVE SMOOTH",
"2116 404 OFFCURVE",
"2114 453 OFFCURVE",
"2102 495 CURVE",
"1434 495 LINE",
"1422 453 OFFCURVE",
"1420 404 OFFCURVE",
"1420 377 CURVE SMOOTH",
"1420 350 OFFCURVE",
"1422 301 OFFCURVE",
"1434 259 CURVE"
);
}
);
width = 2220;
}
);
leftMetricsKey = N;
},
{
glyphname = ordfeminine;
lastChange = "2021-07-09 03:44:18 +0000";
layers = (
{
layerId = UUID0;
paths = (
{
closed = 1;
nodes = (
"80 626 OFFCURVE",
"152 512 OFFCURVE",
"308 512 CURVE SMOOTH",
"446 512 OFFCURVE",
"554 612 OFFCURVE",
"608 680 CURVE",
"586 790 LINE",
"520 676 OFFCURVE",
"406 614 OFFCURVE",
"324 614 CURVE SMOOTH",
"250 614 OFFCURVE",
"208 674 OFFCURVE",
"208 744 CURVE SMOOTH",
"208 830 OFFCURVE",
"272 884 OFFCURVE",
"370 884 CURVE SMOOTH",
"446 884 OFFCURVE",
"528 876 OFFCURVE",
"594 864 CURVE",
"594 960 LINE",
"526 972 OFFCURVE",
"444 978 OFFCURVE",
"372 978 CURVE SMOOTH",
"196 978 OFFCURVE",
"80 904 OFFCURVE",
"80 734 CURVE SMOOTH"
);
},
{
closed = 1;
nodes = (
"664 618 OFFCURVE",
"660 668 OFFCURVE",
"660 732 CURVE SMOOTH",
"660 1036 LINE SMOOTH",
"660 1200 OFFCURVE",
"584 1290 OFFCURVE",
"416 1290 CURVE SMOOTH",
"304 1290 OFFCURVE",
"184 1252 OFFCURVE",
"106 1218 CURVE",
"106 1178 OFFCURVE",
"130 1138 OFFCURVE",
"150 1120 CURVE",
"236 1158 OFFCURVE",
"322 1180 OFFCURVE",
"412 1180 CURVE SMOOTH",
"494 1180 OFFCURVE",
"544 1136 OFFCURVE",
"544 1030 CURVE SMOOTH",
"544 688 LINE SMOOTH",
"544 606 OFFCURVE",
"572 546 OFFCURVE",
"644 518 CURVE",
"672 530 OFFCURVE",
"698 560 OFFCURVE",
"704 580 CURVE"
);
}
);
width = 806;
},
{
layerId = UUID1;
paths = (
{
closed = 1;
nodes = (
"78 554 OFFCURVE",
"174 436 OFFCURVE",
"334 436 CURVE SMOOTH",
"478 436 OFFCURVE",
"570 526 OFFCURVE",
"638 600 CURVE",
"596 760 LINE",
"550 688 OFFCURVE",
"474 632 OFFCURVE",
"416 632 CURVE SMOOTH",
"370 632 OFFCURVE",
"338 664 OFFCURVE",
"338 702 CURVE SMOOTH",
"338 760 OFFCURVE",
"368 796 OFFCURVE",
"430 796 CURVE SMOOTH",
"476 796 OFFCURVE",
"548 792 OFFCURVE",
"596 788 CURVE",
"596 956 LINE",
"532 960 OFFCURVE",
"450 966 OFFCURVE",
"404 966 CURVE SMOOTH",
"228 966 OFFCURVE",
"78 880 OFFCURVE",
"78 686 CURVE SMOOTH"
);
},
{
closed = 1;
nodes = (
"810 608 OFFCURVE",
"796 646 OFFCURVE",
"796 698 CURVE SMOOTH",
"796 1016 LINE SMOOTH",
"796 1224 OFFCURVE",
"634 1296 OFFCURVE",
"496 1296 CURVE SMOOTH",
"386 1296 OFFCURVE",
"232 1268 OFFCURVE",
"120 1222 CURVE",
"124 1158 OFFCURVE",
"144 1092 OFFCURVE",
"184 1048 CURVE",
"274 1074 OFFCURVE",
"340 1094 OFFCURVE",
"416 1094 CURVE SMOOTH",
"458 1094 OFFCURVE",
"510 1070 OFFCURVE",
"510 1008 CURVE SMOOTH",
"510 722 LINE SMOOTH",
"510 550 OFFCURVE",
"608 446 OFFCURVE",
"754 446 CURVE",
"802 472 OFFCURVE",
"846 536 OFFCURVE",
"852 590 CURVE"
);
}
);
width = 924;
}
);
unicode = 00AA;
},
{
glyphname = ordmasculine;
lastChange = "2021-07-09 03:44:18 +0000";
layers = (
{
layerId = UUID0;
paths = (
{
closed = 1;
nodes = (
"706 1020 OFFCURVE",
"674 1130 OFFCURVE",
"598 1212 CURVE SMOOTH",
"548 1266 OFFCURVE",
"470 1290 OFFCURVE",
"384 1290 CURVE SMOOTH",
"300 1290 OFFCURVE",
"226 1262 OFFCURVE",
"172 1212 CURVE SMOOTH",
"90 1136 OFFCURVE",
"64 1020 OFFCURVE",
"64 902 CURVE SMOOTH",
"64 780 OFFCURVE",
"95 670 OFFCURVE",
"172 590 CURVE SMOOTH",
"223 537 OFFCURVE",
"300 512 OFFCURVE",
"384 512 CURVE SMOOTH",
"470 512 OFFCURVE",
"544 540 OFFCURVE",
"598 590 CURVE SMOOTH",
"679 665 OFFCURVE",
"706 780 OFFCURVE",
"706 902 CURVE SMOOTH"
);
},
{
closed = 1;
nodes = (
"194 1046 OFFCURVE",
"242 1188 OFFCURVE",
"386 1188 CURVE SMOOTH",
"528 1188 OFFCURVE",
"576 1046 OFFCURVE",
"576 902 CURVE SMOOTH",
"576 756 OFFCURVE",
"528 616 OFFCURVE",
"386 616 CURVE SMOOTH",
"242 616 OFFCURVE",
"194 756 OFFCURVE",
"194 902 CURVE SMOOTH"
);
}
);
width = 770;
},
{
layerId = UUID1;
paths = (
{
closed = 1;
nodes = (
"840 996 OFFCURVE",
"808 1114 OFFCURVE",
"718 1204 CURVE SMOOTH",
"656 1266 OFFCURVE",
"562 1296 OFFCURVE",
"462 1296 CURVE SMOOTH",
"358 1296 OFFCURVE",
"268 1266 OFFCURVE",
"206 1204 CURVE SMOOTH",
"116 1114 OFFCURVE",
"84 996 OFFCURVE",
"84 866 CURVE SMOOTH",
"84 736 OFFCURVE",
"116 616 OFFCURVE",
"206 526 CURVE SMOOTH",
"268 464 OFFCURVE",
"358 434 OFFCURVE",
"462 434 CURVE SMOOTH",
"562 434 OFFCURVE",
"656 464 OFFCURVE",
"718 526 CURVE SMOOTH",
"808 616 OFFCURVE",
"840 736 OFFCURVE",
"840 866 CURVE SMOOTH"
);
},
{
closed = 1;
nodes = (
"352 1004 OFFCURVE",
"380 1092 OFFCURVE",
"462 1092 CURVE SMOOTH",
"544 1092 OFFCURVE",
"572 1004 OFFCURVE",
"572 866 CURVE SMOOTH",
"572 728 OFFCURVE",
"544 638 OFFCURVE",
"462 638 CURVE SMOOTH",
"380 638 OFFCURVE",
"352 728 OFFCURVE",
"352 866 CURVE SMOOTH"
);
}
);
width = 924;
}
);
unicode = 00BA;
},
{
glyphname = ordfeminine.lf;
lastChange = "2021-07-09 03:44:18 +0000";
layers = (
{
layerId = UUID0;
paths = (
{
closed = 1;
nodes = (
"80 726 OFFCURVE",
"152 612 OFFCURVE",
"308 612 CURVE SMOOTH",
"446 612 OFFCURVE",
"554 712 OFFCURVE",
"608 780 CURVE",
"586 890 LINE",
"520 776 OFFCURVE",
"406 714 OFFCURVE",
"324 714 CURVE SMOOTH",
"250 714 OFFCURVE",
"208 774 OFFCURVE",
"208 844 CURVE SMOOTH",
"208 930 OFFCURVE",
"272 984 OFFCURVE",
"370 984 CURVE SMOOTH",
"446 984 OFFCURVE",
"528 976 OFFCURVE",
"594 964 CURVE",
"594 1060 LINE",
"526 1072 OFFCURVE",
"444 1078 OFFCURVE",
"372 1078 CURVE SMOOTH",
"196 1078 OFFCURVE",
"80 1004 OFFCURVE",
"80 834 CURVE SMOOTH"
);
},
{
closed = 1;
nodes = (
"664 718 OFFCURVE",
"660 768 OFFCURVE",
"660 832 CURVE SMOOTH",
"660 1136 LINE SMOOTH",
"660 1300 OFFCURVE",
"584 1390 OFFCURVE",
"416 1390 CURVE SMOOTH",
"304 1390 OFFCURVE",
"184 1352 OFFCURVE",
"106 1318 CURVE",
"106 1278 OFFCURVE",
"130 1238 OFFCURVE",
"150 1220 CURVE",
"236 1258 OFFCURVE",
"322 1280 OFFCURVE",
"412 1280 CURVE SMOOTH",
"494 1280 OFFCURVE",
"544 1236 OFFCURVE",
"544 1130 CURVE SMOOTH",
"544 788 LINE SMOOTH",
"544 706 OFFCURVE",
"572 646 OFFCURVE",
"644 618 CURVE",
"672 630 OFFCURVE",
"698 660 OFFCURVE",
"704 680 CURVE"
);
}
);
width = 806;
},
{
layerId = UUID1;
paths = (
{
closed = 1;
nodes = (
"78 654 OFFCURVE",
"174 536 OFFCURVE",
"334 536 CURVE SMOOTH",
"478 536 OFFCURVE",
"570 626 OFFCURVE",
"638 700 CURVE",
"596 860 LINE",
"550 788 OFFCURVE",
"474 732 OFFCURVE",
"416 732 CURVE SMOOTH",
"370 732 OFFCURVE",
"338 764 OFFCURVE",
"338 802 CURVE SMOOTH",
"338 860 OFFCURVE",
"368 896 OFFCURVE",
"430 896 CURVE SMOOTH",
"476 896 OFFCURVE",
"548 892 OFFCURVE",
"596 888 CURVE",
"596 1056 LINE",
"532 1060 OFFCURVE",
"450 1066 OFFCURVE",
"404 1066 CURVE SMOOTH",
"228 1066 OFFCURVE",
"78 980 OFFCURVE",
"78 786 CURVE SMOOTH"
);
},
{
closed = 1;
nodes = (
"810 708 OFFCURVE",
"796 746 OFFCURVE",
"796 798 CURVE SMOOTH",
"796 1116 LINE SMOOTH",
"796 1324 OFFCURVE",
"634 1396 OFFCURVE",
"496 1396 CURVE SMOOTH",
"386 1396 OFFCURVE",
"232 1368 OFFCURVE",
"120 1322 CURVE",
"124 1258 OFFCURVE",
"144 1192 OFFCURVE",
"184 1148 CURVE",
"274 1174 OFFCURVE",
"340 1194 OFFCURVE",
"416 1194 CURVE SMOOTH",
"458 1194 OFFCURVE",
"510 1170 OFFCURVE",
"510 1108 CURVE SMOOTH",
"510 822 LINE SMOOTH",
"510 650 OFFCURVE",
"608 546 OFFCURVE",
"754 546 CURVE",
"802 572 OFFCURVE",
"846 636 OFFCURVE",
"852 690 CURVE"
);
}
);
width = 924;
}
);
},
{
glyphname = ordmasculine.lf;
lastChange = "2021-07-09 03:44:18 +0000";
layers = (
{
layerId = UUID0;
paths = (
{
closed = 1;
nodes = (
"706 1120 OFFCURVE",
"674 1230 OFFCURVE",
"598 1312 CURVE SMOOTH",
"544 1362 OFFCURVE",
"470 1390 OFFCURVE",
"384 1390 CURVE SMOOTH",
"300 1390 OFFCURVE",
"226 1362 OFFCURVE",
"172 1312 CURVE SMOOTH",
"96 1230 OFFCURVE",
"64 1120 OFFCURVE",
"64 1002 CURVE SMOOTH",
"64 880 OFFCURVE",
"96 770 OFFCURVE",
"172 690 CURVE SMOOTH",
"226 640 OFFCURVE",
"300 612 OFFCURVE",
"384 612 CURVE SMOOTH",
"470 612 OFFCURVE",
"544 640 OFFCURVE",
"598 690 CURVE SMOOTH",
"674 770 OFFCURVE",
"706 880 OFFCURVE",
"706 1002 CURVE SMOOTH"
);
},
{
closed = 1;
nodes = (
"194 1146 OFFCURVE",
"242 1288 OFFCURVE",
"386 1288 CURVE SMOOTH",
"528 1288 OFFCURVE",
"576 1146 OFFCURVE",
"576 1002 CURVE SMOOTH",
"576 856 OFFCURVE",
"528 716 OFFCURVE",
"386 716 CURVE SMOOTH",
"242 716 OFFCURVE",
"194 856 OFFCURVE",
"194 1002 CURVE SMOOTH"
);
}
);
width = 770;
},
{
layerId = UUID1;
paths = (
{
closed = 1;
nodes = (
"840 1096 OFFCURVE",
"808 1214 OFFCURVE",
"718 1304 CURVE SMOOTH",
"656 1366 OFFCURVE",
"562 1396 OFFCURVE",
"462 1396 CURVE SMOOTH",
"358 1396 OFFCURVE",
"268 1366 OFFCURVE",
"206 1304 CURVE SMOOTH",
"116 1214 OFFCURVE",
"84 1096 OFFCURVE",
"84 966 CURVE SMOOTH",
"84 836 OFFCURVE",
"116 716 OFFCURVE",
"206 626 CURVE SMOOTH",
"268 564 OFFCURVE",
"358 534 OFFCURVE",
"462 534 CURVE SMOOTH",
"562 534 OFFCURVE",
"656 564 OFFCURVE",
"718 626 CURVE SMOOTH",
"808 716 OFFCURVE",
"840 836 OFFCURVE",
"840 966 CURVE SMOOTH"
);
},
{
closed = 1;
nodes = (
"352 1104 OFFCURVE",
"380 1192 OFFCURVE",
"462 1192 CURVE SMOOTH",
"544 1192 OFFCURVE",
"572 1104 OFFCURVE",
"572 966 CURVE SMOOTH",
"572 828 OFFCURVE",
"544 738 OFFCURVE",
"462 738 CURVE SMOOTH",
"380 738 OFFCURVE",
"352 828 OFFCURVE",
"352 966 CURVE SMOOTH"
);
}
);
width = 924;
}
);
},
{
glyphname = guilsinglleft;
lastChange = "2021-07-09 03:44:18 +0000";
layers = (
{
layerId = UUID0;
paths = (
{
closed = 1;
nodes = (
"548 846 LINE",
"534 878 OFFCURVE",
"500 910 OFFCURVE",
"466 924 CURVE",
"88 560 LINE",
"78 534 OFFCURVE",
"78 486 OFFCURVE",
"88 460 CURVE",
"478 88 LINE",
"512 102 OFFCURVE",
"546 134 OFFCURVE",
"560 166 CURVE",
"250 512 LINE"
);
}
);
width = 640;
},
{
layerId = UUID1;
paths = (
{
closed = 1;
nodes = (
"636 816 LINE",
"616 884 OFFCURVE",
"532 966 OFFCURVE",
"462 982 CURVE",
"58 602 LINE",
"36 552 OFFCURVE",
"36 468 OFFCURVE",
"58 418 CURVE",
"464 48 LINE",
"534 64 OFFCURVE",
"624 144 OFFCURVE",
"644 212 CURVE",
"396 516 LINE"
);
}
);
width = 704;
}
);
leftKerningGroup = guillemetleft;
rightKerningGroup = guillemetleft;
unicode = 2039;
},
{
glyphname = guilsinglright;
lastChange = "2021-07-09 03:44:18 +0000";
layers = (
{
layerId = UUID0;
paths = (
{
closed = 1;
nodes = (
"92 166 LINE",
"106 134 OFFCURVE",
"140 102 OFFCURVE",
"174 88 CURVE",
"552 452 LINE",
"562 478 OFFCURVE",
"562 526 OFFCURVE",
"552 552 CURVE",
"162 924 LINE",
"128 910 OFFCURVE",
"94 878 OFFCURVE",
"80 846 CURVE",
"390 500 LINE"
);
}
);
width = 640;
},
{
layerId = UUID1;
paths = (
{
closed = 1;
nodes = (
"68 214 LINE",
"88 146 OFFCURVE",
"172 64 OFFCURVE",
"242 48 CURVE",
"646 428 LINE",
"668 478 OFFCURVE",
"668 562 OFFCURVE",
"646 612 CURVE",
"240 982 LINE",
"170 966 OFFCURVE",
"80 886 OFFCURVE",
"60 818 CURVE",
"308 514 LINE"
);
}
);
width = 704;
}
);
leftKerningGroup = guillemetright;
rightKerningGroup = guillemetright;
unicode = 203A;
},
{
glyphname = quoteleft;
lastChange = "2021-07-09 03:44:18 +0000";
layers = (
{
layerId = UUID0;
paths = (
{
closed = 1;
nodes = (
"126 1042 OFFCURVE",
"176 1034 OFFCURVE",
"208 1034 CURVE SMOOTH",
"242 1034 OFFCURVE",
"294 1046 OFFCURVE",
"310 1054 CURVE",
"320 1068 OFFCURVE",
"326 1112 OFFCURVE",
"326 1142 CURVE SMOOTH",
"326 1172 OFFCURVE",
"318 1210 OFFCURVE",
"310 1224 CURVE",
"294 1236 OFFCURVE",
"252 1242 OFFCURVE",
"230 1244 CURVE",
"232 1312 OFFCURVE",
"282 1376 OFFCURVE",
"350 1414 CURVE",
"352 1442 OFFCURVE",
"332 1476 OFFCURVE",
"306 1488 CURVE",
"164 1426 OFFCURVE",
"90 1312 OFFCURVE",
"90 1170 CURVE SMOOTH",
"90 1128 OFFCURVE",
"98 1078 OFFCURVE",
"110 1054 CURVE"
);
}
);
width = 404;
},
{
layerId = UUID1;
paths = (
{
closed = 1;
nodes = (
"138 982 OFFCURVE",
"206 966 OFFCURVE",
"260 966 CURVE SMOOTH",
"314 966 OFFCURVE",
"380 982 OFFCURVE",
"418 1004 CURVE",
"432 1030 OFFCURVE",
"442 1090 OFFCURVE",
"442 1130 CURVE SMOOTH",
"442 1170 OFFCURVE",
"432 1224 OFFCURVE",
"418 1250 CURVE",
"398 1266 OFFCURVE",
"360 1274 OFFCURVE",
"326 1280 CURVE",
"330 1376 OFFCURVE",
"438 1432 OFFCURVE",
"502 1450 CURVE",
"508 1508 OFFCURVE",
"486 1572 OFFCURVE",
"430 1600 CURVE",
"190 1534 OFFCURVE",
"76 1358 OFFCURVE",
"76 1166 CURVE SMOOTH",
"76 1108 OFFCURVE",
"82 1060 OFFCURVE",
"102 1004 CURVE"
);
}
);
width = 548;
}
);
leftKerningGroup = quoteleft;
rightKerningGroup = quoteleft;
unicode = 2018;
},
{
glyphname = quoteright;
lastChange = "2021-07-09 03:44:18 +0000";
layers = (
{
layerId = UUID0;
paths = (
{
closed = 1;
nodes = (
"278 1476 OFFCURVE",
"228 1484 OFFCURVE",
"196 1484 CURVE SMOOTH",
"162 1484 OFFCURVE",
"110 1472 OFFCURVE",
"94 1464 CURVE",
"84 1450 OFFCURVE",
"78 1406 OFFCURVE",
"78 1376 CURVE SMOOTH",
"78 1346 OFFCURVE",
"86 1308 OFFCURVE",
"94 1294 CURVE",
"110 1282 OFFCURVE",
"152 1276 OFFCURVE",
"174 1274 CURVE",
"172 1206 OFFCURVE",
"122 1142 OFFCURVE",
"54 1104 CURVE",
"52 1076 OFFCURVE",
"72 1042 OFFCURVE",
"98 1030 CURVE",
"240 1092 OFFCURVE",
"314 1206 OFFCURVE",
"314 1348 CURVE SMOOTH",
"314 1390 OFFCURVE",
"306 1440 OFFCURVE",
"294 1464 CURVE"
);
}
);
width = 404;
},
{
layerId = UUID1;
paths = (
{
closed = 1;
nodes = (
"410 1584 OFFCURVE",
"342 1600 OFFCURVE",
"288 1600 CURVE SMOOTH",
"234 1600 OFFCURVE",
"168 1584 OFFCURVE",
"130 1562 CURVE",
"116 1536 OFFCURVE",
"106 1476 OFFCURVE",
"106 1436 CURVE SMOOTH",
"106 1396 OFFCURVE",
"116 1342 OFFCURVE",
"130 1316 CURVE",
"150 1300 OFFCURVE",
"188 1292 OFFCURVE",
"222 1286 CURVE",
"218 1190 OFFCURVE",
"110 1134 OFFCURVE",
"46 1116 CURVE",
"40 1058 OFFCURVE",
"62 994 OFFCURVE",
"118 966 CURVE",
"358 1032 OFFCURVE",
"472 1208 OFFCURVE",
"472 1400 CURVE SMOOTH",
"472 1458 OFFCURVE",
"466 1506 OFFCURVE",
"446 1562 CURVE"
);
}
);
width = 548;
}
);
leftKerningGroup = quoteright;
rightKerningGroup = quoteright;
unicode = 2019;
},
{
glyphname = quotesinglbase;
lastChange = "2021-07-09 03:44:18 +0000";
layers = (
{
layerId = UUID0;
paths = (
{
closed = 1;
nodes = (
"294 184 OFFCURVE",
"244 192 OFFCURVE",
"212 192 CURVE SMOOTH",
"178 192 OFFCURVE",
"126 180 OFFCURVE",
"110 172 CURVE",
"100 158 OFFCURVE",
"94 114 OFFCURVE",
"94 84 CURVE SMOOTH",
"94 54 OFFCURVE",
"102 16 OFFCURVE",
"110 2 CURVE",
"126 -10 OFFCURVE",
"168 -16 OFFCURVE",
"190 -18 CURVE",
"188 -86 OFFCURVE",
"138 -150 OFFCURVE",
"70 -188 CURVE",
"68 -216 OFFCURVE",
"88 -250 OFFCURVE",
"114 -262 CURVE",
"256 -200 OFFCURVE",
"330 -86 OFFCURVE",
"330 56 CURVE SMOOTH",
"330 98 OFFCURVE",
"322 148 OFFCURVE",
"310 172 CURVE"
);
}
);
width = 406;
},
{
layerId = UUID1;
paths = (
{
closed = 1;
nodes = (
"404 280 OFFCURVE",
"336 296 OFFCURVE",
"282 296 CURVE SMOOTH",
"228 296 OFFCURVE",
"162 280 OFFCURVE",
"124 258 CURVE",
"110 232 OFFCURVE",
"100 172 OFFCURVE",
"100 132 CURVE SMOOTH",
"100 92 OFFCURVE",
"110 38 OFFCURVE",
"124 12 CURVE",
"144 -4 OFFCURVE",
"182 -12 OFFCURVE",
"216 -18 CURVE",
"212 -114 OFFCURVE",
"104 -170 OFFCURVE",
"40 -188 CURVE",
"34 -246 OFFCURVE",
"56 -310 OFFCURVE",
"112 -338 CURVE",
"352 -272 OFFCURVE",
"466 -96 OFFCURVE",
"466 96 CURVE SMOOTH",
"466 154 OFFCURVE",
"460 202 OFFCURVE",
"440 258 CURVE"
);
}
);
width = 548;
}
);
rightKerningGroup = quotesinglbase;
unicode = 201A;
},
{
color = 7;
glyphname = dagger;
lastChange = "2021-07-09 03:44:18 +0000";
layers = (
{
layerId = UUID0;
paths = (
{
closed = 1;
nodes = (
"296 -220 LINE",
"310 -224 OFFCURVE",
"332 -226 OFFCURVE",
"352 -226 CURVE SMOOTH",
"372 -226 OFFCURVE",
"396 -224 OFFCURVE",
"408 -220 CURVE",
"428 548 LINE SMOOTH",
"430 650 OFFCURVE",
"418 814 OFFCURVE",
"410 916 CURVE",
"412 1018 OFFCURVE",
"434 1190 OFFCURVE",
"428 1288 CURVE SMOOTH",
"422 1366 LINE",
"398 1372 OFFCURVE",
"376 1374 OFFCURVE",
"350 1374 CURVE SMOOTH",
"328 1374 OFFCURVE",
"304 1372 OFFCURVE",
"282 1366 CURVE",
"276 1290 LINE SMOOTH",
"268 1188 OFFCURVE",
"292 1018 OFFCURVE",
"294 916 CURVE",
"288 816 OFFCURVE",
"274 656 OFFCURVE",
"276 550 CURVE SMOOTH"
);
},
{
closed = 1;
nodes = (
"660 848 LINE",
"664 866 OFFCURVE",
"666 886 OFFCURVE",
"666 912 CURVE SMOOTH",
"666 940 OFFCURVE",
"664 960 OFFCURVE",
"660 980 CURVE",
"600 982 LINE SMOOTH",
"552 984 OFFCURVE",
"402 966 OFFCURVE",
"354 966 CURVE SMOOTH",
"302 966 OFFCURVE",
"154 984 OFFCURVE",
"106 982 CURVE SMOOTH",
"46 980 LINE",
"42 960 OFFCURVE",
"40 940 OFFCURVE",
"40 912 CURVE SMOOTH",
"40 886 OFFCURVE",
"42 866 OFFCURVE",
"46 848 CURVE",
"106 846 LINE SMOOTH",
"160 844 OFFCURVE",
"306 862 OFFCURVE",
"354 862 CURVE SMOOTH",
"404 862 OFFCURVE",
"556 844 OFFCURVE",
"600 846 CURVE SMOOTH"
);
}
);
width = 706;
},
{
layerId = UUID1;
paths = (
{
closed = 1;
nodes = (
"282 -244 LINE",
"330 -256 OFFCURVE",
"374 -258 OFFCURVE",
"408 -258 CURVE SMOOTH",
"446 -258 OFFCURVE",
"484 -256 OFFCURVE",
"534 -244 CURVE",
"586 516 LINE SMOOTH",
"592 610 OFFCURVE",
"536 782 OFFCURVE",
"528 876 CURVE",
"532 964 OFFCURVE",
"590 1158 OFFCURVE",
"590 1226 CURVE SMOOTH",
"590 1366 LINE",
"534 1378 OFFCURVE",
"466 1386 OFFCURVE",
"408 1386 CURVE SMOOTH",
"354 1386 OFFCURVE",
"280 1378 OFFCURVE",
"226 1366 CURVE",
"226 1226 LINE SMOOTH",
"226 1158 OFFCURVE",
"284 964 OFFCURVE",
"288 876 CURVE",
"280 782 OFFCURVE",
"224 610 OFFCURVE",
"230 516 CURVE SMOOTH"
);
},
{
closed = 1;
nodes = (
"776 746 LINE",
"788 790 OFFCURVE",
"792 848 OFFCURVE",
"792 876 CURVE SMOOTH",
"792 904 OFFCURVE",
"788 968 OFFCURVE",
"776 1006 CURVE",
"676 1002 LINE SMOOTH",
"614 998 OFFCURVE",
"470 966 OFFCURVE",
"408 966 CURVE SMOOTH",
"358 966 OFFCURVE",
"190 1000 OFFCURVE",
"140 1002 CURVE SMOOTH",
"40 1006 LINE",
"28 962 OFFCURVE",
"24 904 OFFCURVE",
"24 876 CURVE SMOOTH",
"24 848 OFFCURVE",
"28 788 OFFCURVE",
"40 746 CURVE",
"140 750 LINE SMOOTH",
"194 752 OFFCURVE",
"354 786 OFFCURVE",
"408 786 CURVE SMOOTH",
"468 786 OFFCURVE",
"616 752 OFFCURVE",
"676 750 CURVE SMOOTH"
);
}
);
width = 816;
}
);
unicode = 2020;
},
{
color = 7;
glyphname = daggerdbl;
lastChange = "2021-07-09 03:44:18 +0000";
layers = (
{
layerId = UUID0;
paths = (
{
closed = 1;
nodes = (
"296 -220 LINE",
"310 -224 OFFCURVE",
"332 -226 OFFCURVE",
"352 -226 CURVE SMOOTH",
"372 -226 OFFCURVE",
"396 -224 OFFCURVE",
"408 -220 CURVE",
"428 558 LINE SMOOTH",
"430 660 OFFCURVE",
"418 824 OFFCURVE",
"410 926 CURVE",
"412 1028 OFFCURVE",
"434 1190 OFFCURVE",
"428 1288 CURVE SMOOTH",
"422 1366 LINE",
"398 1372 OFFCURVE",
"376 1374 OFFCURVE",
"350 1374 CURVE SMOOTH",
"328 1374 OFFCURVE",
"304 1372 OFFCURVE",
"282 1366 CURVE",
"276 1290 LINE SMOOTH",
"268 1188 OFFCURVE",
"292 1028 OFFCURVE",
"294 926 CURVE",
"288 826 OFFCURVE",
"274 666 OFFCURVE",
"276 560 CURVE SMOOTH"
);
},
{
closed = 1;
nodes = (
"660 858 LINE",
"664 876 OFFCURVE",
"666 896 OFFCURVE",
"666 922 CURVE SMOOTH",
"666 950 OFFCURVE",
"664 970 OFFCURVE",
"660 990 CURVE",
"600 992 LINE SMOOTH",
"532 994 OFFCURVE",
"402 974 OFFCURVE",
"354 974 CURVE SMOOTH",
"302 974 OFFCURVE",
"174 994 OFFCURVE",
"106 992 CURVE SMOOTH",
"46 990 LINE",
"42 970 OFFCURVE",
"40 950 OFFCURVE",
"40 922 CURVE SMOOTH",
"40 896 OFFCURVE",
"42 876 OFFCURVE",
"46 858 CURVE",
"106 856 LINE SMOOTH",
"180 854 OFFCURVE",
"306 874 OFFCURVE",
"354 874 CURVE SMOOTH",
"404 874 OFFCURVE",
"536 854 OFFCURVE",
"600 856 CURVE SMOOTH"
);
},
{
closed = 1;
nodes = (
"660 308 LINE",
"664 326 OFFCURVE",
"666 346 OFFCURVE",
"666 372 CURVE SMOOTH",
"666 400 OFFCURVE",
"664 420 OFFCURVE",
"660 440 CURVE",
"600 442 LINE SMOOTH",
"532 444 OFFCURVE",
"402 422 OFFCURVE",
"354 422 CURVE SMOOTH",
"302 422 OFFCURVE",
"174 444 OFFCURVE",
"106 442 CURVE SMOOTH",
"46 440 LINE",
"42 420 OFFCURVE",
"40 400 OFFCURVE",
"40 372 CURVE SMOOTH",
"40 346 OFFCURVE",
"42 326 OFFCURVE",
"46 308 CURVE",
"106 306 LINE SMOOTH",
"180 304 OFFCURVE",
"306 326 OFFCURVE",
"354 326 CURVE SMOOTH",
"404 326 OFFCURVE",
"536 304 OFFCURVE",
"600 306 CURVE SMOOTH"
);
}
);
width = 706;
},
{
layerId = UUID1;
paths = (
{
closed = 1;
nodes = (
"324 -244 LINE",
"372 -256 OFFCURVE",
"414 -258 OFFCURVE",
"448 -258 CURVE SMOOTH",
"486 -258 OFFCURVE",
"522 -256 OFFCURVE",
"572 -244 CURVE",
"620 530 LINE SMOOTH",
"626 624 OFFCURVE",
"576 792 OFFCURVE",
"568 886 CURVE",
"572 974 OFFCURVE",
"630 1158 OFFCURVE",
"630 1226 CURVE SMOOTH",
"630 1364 LINE",
"574 1376 OFFCURVE",
"506 1384 OFFCURVE",
"448 1384 CURVE SMOOTH",
"394 1384 OFFCURVE",
"320 1376 OFFCURVE",
"266 1364 CURVE",
"266 1226 LINE SMOOTH",
"266 1158 OFFCURVE",
"324 974 OFFCURVE",
"328 886 CURVE",
"320 792 OFFCURVE",
"270 624 OFFCURVE",
"276 530 CURVE SMOOTH"
);
},
{
closed = 1;
nodes = (
"816 756 LINE",
"828 800 OFFCURVE",
"832 858 OFFCURVE",
"832 886 CURVE SMOOTH",
"832 914 OFFCURVE",
"828 978 OFFCURVE",
"816 1016 CURVE",
"716 1012 LINE SMOOTH",
"654 1008 OFFCURVE",
"510 976 OFFCURVE",
"448 976 CURVE SMOOTH",
"398 976 OFFCURVE",
"230 1010 OFFCURVE",
"180 1012 CURVE SMOOTH",
"80 1016 LINE",
"68 972 OFFCURVE",
"64 914 OFFCURVE",
"64 886 CURVE SMOOTH",
"64 858 OFFCURVE",
"68 798 OFFCURVE",
"80 756 CURVE",
"180 760 LINE SMOOTH",
"234 762 OFFCURVE",
"394 796 OFFCURVE",
"448 796 CURVE SMOOTH",
"508 796 OFFCURVE",
"656 762 OFFCURVE",
"716 760 CURVE SMOOTH"
);
},
{
closed = 1;
nodes = (
"816 166 LINE",
"828 210 OFFCURVE",
"832 268 OFFCURVE",
"832 296 CURVE SMOOTH",
"832 324 OFFCURVE",
"828 388 OFFCURVE",
"816 426 CURVE",
"716 422 LINE SMOOTH",
"654 418 OFFCURVE",
"510 386 OFFCURVE",
"448 386 CURVE SMOOTH",
"398 386 OFFCURVE",
"230 420 OFFCURVE",
"180 422 CURVE SMOOTH",
"80 426 LINE",
"68 382 OFFCURVE",
"64 324 OFFCURVE",
"64 296 CURVE SMOOTH",
"64 268 OFFCURVE",
"68 208 OFFCURVE",
"80 166 CURVE",
"180 170 LINE SMOOTH",
"234 172 OFFCURVE",
"394 206 OFFCURVE",
"448 206 CURVE SMOOTH",
"508 206 OFFCURVE",
"656 172 OFFCURVE",
"716 170 CURVE SMOOTH"
);
}
);
width = 896;
}
);
unicode = 2021;
},
